<?xml version="1.0" encoding="UTF-8" standalone="no"?>
<!-- Created with Inkscape (http://www.inkscape.org/) -->

<svg
   xmlns:dc="http://purl.org/dc/elements/1.1/"
   xmlns:cc="http://creativecommons.org/ns#"
   xmlns:rdf="http://www.w3.org/1999/02/22-rdf-syntax-ns#"
   xmlns:svg="http://www.w3.org/2000/svg"
   xmlns="http://www.w3.org/2000/svg"
   xmlns:sodipodi="http://sodipodi.sourceforge.net/DTD/sodipodi-0.dtd"
   xmlns:inkscape="http://www.inkscape.org/namespaces/inkscape"
   width="5cm"
   height="5cm"
   viewBox="0 0 177.16535 177.16535"
   id="svg2"
   version="1.1"
   inkscape:version="0.91 r"
   sodipodi:docname="alarm.svg">
  <defs
     id="defs4" />
  <sodipodi:namedview
     id="base"
     pagecolor="#ffffff"
     bordercolor="#666666"
     borderopacity="1.0"
     inkscape:pageopacity="0.0"
     inkscape:pageshadow="2"
     inkscape:zoom="1.2786848"
     inkscape:cx="69.711235"
     inkscape:cy="132.20464"
     inkscape:document-units="px"
     inkscape:current-layer="layer3"
     showgrid="false"
     units="cm"
     inkscape:showpageshadow="false"
     inkscape:snap-intersection-paths="true"
     inkscape:object-paths="true"
     inkscape:snap-smooth-nodes="false"
     inkscape:object-nodes="true"
     inkscape:snap-center="true"
     inkscape:snap-object-midpoints="true"
     inkscape:snap-bbox="false"
     inkscape:snap-bbox-edge-midpoints="true"
     inkscape:snap-bbox-midpoints="true"
     inkscape:snap-midpoints="false"
     inkscape:bbox-nodes="true"
     inkscape:window-width="1366"
     inkscape:window-height="696"
     inkscape:window-x="0"
     inkscape:window-y="24"
     inkscape:window-maximized="1" />
  <metadata
     id="metadata7">
    <rdf:RDF>
      <cc:Work
         rdf:about="">
        <dc:format>image/svg+xml</dc:format>
        <dc:type
           rdf:resource="http://purl.org/dc/dcmitype/StillImage" />
        <dc:title></dc:title>
      </cc:Work>
    </rdf:RDF>
  </metadata>
  <g
     inkscape:groupmode="layer"
     id="layer3"
     inkscape:label="Layer 2"
     style="display:inline">
    <path
       style="display:inline;opacity:1;fill:#636461;fill-opacity:1;fill-rule:evenodd;stroke:none;stroke-width:1;stroke-miterlimit:4;stroke-dasharray:none;stroke-opacity:1"
       d="M 25.808594,0.421875 A 25.807767,25.807767 0 0 0 0,26.228516 25.807767,25.807767 0 0 0 4.6152344,40.904297 C 13.241535,26.190055 25.805545,13.717305 40.535156,5.046875 a 25.807767,25.807767 0 0 0 -14.726562,-4.625 z"
       id="path6009"
       inkscape:connector-curvature="0" />
    <path
       style="display:inline;opacity:1;fill:#000000;fill-opacity:1;fill-rule:evenodd;stroke:none;stroke-width:1;stroke-miterlimit:4;stroke-dasharray:none;stroke-opacity:1"
       d="m 151.35742,0.421875 a 25.807763,25.807763 0 0 0 -14.67383,4.6113281 c 10.31716,5.9407279 19.57958,13.7227999 27.09571,22.9374999 3.39078,3.983805 6.36952,8.248359 8.94531,12.722656 a 25.807763,25.807763 0 0 0 4.44141,-14.464843 25.807763,25.807763 0 0 0 -25.8086,-25.806641 z"
       id="path6009-1"
       inkscape:connector-curvature="0" />
    <rect
       style="opacity:1;fill:#000000;fill-opacity:1;fill-rule:evenodd;stroke:none;stroke-width:1;stroke-miterlimit:4;stroke-dasharray:none;stroke-opacity:1"
       id="rect6082"
       width="16.589859"
       height="50.322571"
       x="105.12447"
       y="87.400238"
       ry="8.2949295"
       rx="8.2949295"
       transform="matrix(0.8660254,0.5,-0.5,0.8660254,0,0)" />
    <rect
       style="opacity:1;fill:#000000;fill-opacity:1;fill-rule:evenodd;stroke:none;stroke-width:1;stroke-miterlimit:4;stroke-dasharray:none;stroke-opacity:1"
       id="rect6082-9"
       width="16.589859"
       height="50.322571"
       x="-50.477322"
       y="177.23697"
       ry="8.2949295"
       rx="8.2949295"
       transform="matrix(-0.8660254,0.5,0.5,0.8660254,0,0)" />
    <rect
       style="opacity:1;fill:#000000;fill-opacity:1;fill-rule:evenodd;stroke:none;stroke-width:1;stroke-miterlimit:4;stroke-dasharray:none;stroke-opacity:1"
       id="rect6129"
       width="14.930873"
       height="28.582621"
       x="118.03358"
       y="-110.71748"
       rx="7.4654365"
       ry="7.4654365"
       transform="matrix(0.70710678,0.70710678,-0.70710678,0.70710678,0,0)" />
    <rect
       style="opacity:1;fill:#636461;fill-opacity:1;fill-rule:evenodd;stroke:none;stroke-width:1;stroke-miterlimit:4;stroke-dasharray:none;stroke-opacity:1"
       id="rect6129-3"
       width="14.930871"
       height="28.582617"
       x="-7.7451019"
       y="14.651042"
       rx="7.4654355"
       ry="7.4654355"
       transform="matrix(0.70710678,-0.70710678,0.70710678,0.70710678,0,0)" />
  </g>
  <g
     inkscape:label="Layer 1"
     inkscape:groupmode="layer"
     id="layer1"
     transform="translate(0,-875.19688)"
     style="display:inline">
    <path
       style="opacity:1;fill:#f2ffa7;fill-opacity:1;fill-rule:evenodd;stroke:none;stroke-width:1;stroke-miterlimit:4;stroke-dasharray:none;stroke-opacity:1"
       d="m 86.877915,891.24008 c -42.376374,-0.27169 -78.68276,43.67313 -69.758311,85.14827 6.361449,35.99285 42.838775,65.26595 79.848152,59.47665 34.232034,-3.84 64.364784,-34.3062 64.281284,-69.51095 1.27775,-33.19537 -22.26148,-66.05552 -55.29886,-72.98506 -6.226044,-1.5502 -12.656656,-2.28187 -19.072265,-2.12891 z"
       id="path4140-3-6-3-7"
       inkscape:connector-curvature="0" />
    <path
       style="opacity:1;fill:#d9ff54;fill-opacity:0.62745098;fill-rule:evenodd;stroke:none;stroke-width:1;stroke-miterlimit:4;stroke-dasharray:none;stroke-opacity:1"
       d="m 89.283203,16.027344 c -0.251275,-0.0026 -0.502606,0.0058 -0.753906,0.0059 l 0,145.335936 c 2.801554,-0.0464 5.616664,-0.25991 8.4375,-0.70117 C 131.19883,156.82797 161.3335,126.36092 161.25,91.15625 162.52775,57.960846 138.9866,25.101416 105.94922,18.171875 100.50143,16.81545 94.897141,16.086113 89.283203,16.027344 Z"
       transform="translate(0,875.19688)"
       id="path4140-3-6-3-7-6"
       inkscape:connector-curvature="0" />
    <rect
       style="opacity:1;fill:#000000;fill-opacity:1;fill-rule:evenodd;stroke:none;stroke-width:1;stroke-miterlimit:4;stroke-dasharray:none;stroke-opacity:1"
       id="rect4188"
       width="12.512857"
       height="22.126541"
       x="82.326241"
       y="875.1969"
       rx="0.26512876"
       ry="0.26512876"
       inkscape:transform-center-y="-77.519378" />
    <path
       style="opacity:1;fill:#000000;fill-opacity:1;fill-rule:evenodd;stroke:none;stroke-width:1;stroke-miterlimit:4;stroke-dasharray:none;stroke-opacity:1"
       d="M 88.581692,875.23949 A 88.540179,88.540179 0 0 0 0.04262563,963.7805 88.540179,88.540179 0 0 0 88.581692,1052.3196 88.540179,88.540179 0 0 0 177.12271,963.7805 88.540179,88.540179 0 0 0 88.581692,875.23949 Z m 0.83203,8.00781 c 14.062348,0.16872 28.296448,4.22189 40.589848,11.57227 32.45956,18.1277 46.75884,60.53696 34.8418,95.04294 -11.14612,35.66719 -50.17346,58.73269 -86.640638,53.86129 -37.76023,-3.8875 -68.3239903,-38.3974 -70.1582003,-75.85739 -3.48788,-43.53717 35.0568603,-84.62603 78.5585903,-84.60153 0.93536,-0.0235 1.87111,-0.0288 2.8086,-0.0176 z"
       id="path4140-7-5"
       inkscape:connector-curvature="0" />
    <rect
       style="opacity:1;fill:#000000;fill-opacity:1;fill-rule:evenodd;stroke:none;stroke-width:1;stroke-miterlimit:4;stroke-dasharray:none;stroke-opacity:1"
       id="rect4188-0"
       width="12.512856"
       height="22.126539"
       x="82.326241"
       y="1030.2357"
       rx="0"
       ry="0"
       inkscape:transform-center-y="-77.519378" />
    <rect
       style="opacity:1;fill:#000000;fill-opacity:1;fill-rule:evenodd;stroke:none;stroke-width:1;stroke-miterlimit:4;stroke-dasharray:none;stroke-opacity:1"
       id="rect4188-9"
       width="12.512856"
       height="22.126539"
       x="957.52313"
       y="-177.16533"
       rx="0.26512873"
       ry="0.26512873"
       inkscape:transform-center-y="2.0405988e-05"
       transform="matrix(0,1,-1,0,0,0)"
       inkscape:transform-center-x="-77.519376" />
    <rect
       style="opacity:1;fill:#000000;fill-opacity:1;fill-rule:evenodd;stroke:none;stroke-width:1;stroke-miterlimit:4;stroke-dasharray:none;stroke-opacity:1"
       id="rect4188-9-3"
       width="12.512854"
       height="22.126539"
       x="957.52313"
       y="-22.126539"
       rx="0.26512873"
       ry="0.26512873"
       inkscape:transform-center-y="2.0405988e-05"
       transform="matrix(0,1,-1,0,0,0)"
       inkscape:transform-center-x="-77.519376" />
    <path
       style="opacity:1;fill:#79c8ff;fill-opacity:1;fill-rule:evenodd;stroke:none;stroke-width:1;stroke-miterlimit:4;stroke-dasharray:none;stroke-opacity:1"
       d="m 89.579116,883.22124 c -0.93749,-0.0113 -1.8752,-0.006 -2.81055,0.0176 -43.50174,-0.025 -82.0445175,41.06451 -78.5566385,84.60161 1.8342105,37.46015 32.3960085,71.96795 70.1562485,75.85545 36.467174,4.8714 75.496464,-18.192 86.642584,-53.85945 11.91704,-34.5059 -2.3842,-76.9152 -34.84375,-95.0429 -12.2934,-7.3504 -26.52555,-11.4035 -40.587894,-11.57229 z m -0.29492,8.00199 c 5.61394,0.059 11.218234,0.7881 16.666014,2.1445 33.03738,6.9295 56.57658,39.791 55.29883,72.98632 0.0835,35.20485 -30.04923,65.66975 -64.281254,69.50985 -37.00938,5.7892 -73.486206,-23.4837 -79.847656,-59.47665 -8.9244495,-41.47512 27.381436,-85.42002 69.757816,-85.14842 0.80195,-0.019 1.60426,-0.024 2.40625,-0.016 z"
       id="path4140-3-5-1"
       inkscape:connector-curvature="0" />
    <path
       style="fill:#000000;fill-opacity:1;fill-rule:evenodd;stroke:none;stroke-width:1px;stroke-linecap:butt;stroke-linejoin:miter;stroke-opacity:1"
       d="m 142.84988,932.4476 -56.007377,27.1916 a 4.4966426,4.4966426 0 0 0 -0.507649,0.24572 4.4966426,4.4966426 0 0 0 -1.647377,6.14276 4.4966426,4.4966426 0 0 0 6.144447,1.6464 4.4966426,4.4966426 0 0 0 0.44562,-0.30238 l 51.572336,-34.9241 z"
       id="path4413-61"
       inkscape:connector-curvature="0"
       inkscape:transform-center-x="-24.884913"
       inkscape:transform-center-y="-13.417131" />
    <path
       style="opacity:1;fill:#fcfff7;fill-opacity:0.39215686;fill-rule:evenodd;stroke:none;stroke-width:1;stroke-miterlimit:4;stroke-dasharray:none;stroke-opacity:1"
       d="M 88.625,0.04101562 A 88.540179,88.540179 0 0 0 0.0859375,88.582031 88.540179,88.540179 0 0 0 29.09375,153.99023 l 5.691406,-5.6914 C 19.316534,134.01092 9.1251254,113.8115 8.0898438,92.667969 4.6019633,49.130794 43.146708,8.0419062 86.648438,8.0664062 c 0.93536,-0.0235 1.871103,-0.028778 2.808593,-0.017578 14.062339,0.16872 28.296449,4.2218848 40.589849,11.5722658 7.05037,3.937424 13.23984,9.02315 18.49414,14.921875 l 5.48632,-5.486328 A 88.540179,88.540179 0 0 0 88.625,0.04101562 Z"
       transform="translate(0,875.19688)"
       id="path4140-7-5-2"
       inkscape:connector-curvature="0" />
    <path
       style="opacity:1;fill:#eeeeee;fill-opacity:0.39215686;fill-rule:evenodd;stroke:none;stroke-width:1;stroke-miterlimit:4;stroke-dasharray:none;stroke-opacity:1"
       d="m 89.580078,8.0234375 c -0.93749,-0.0113 -1.875207,-0.00602 -2.810547,0.017578 C 43.267786,8.0160156 4.7250122,49.105523 8.2128906,92.642578 9.2470625,113.76353 19.415297,133.94382 34.855469,148.22852 l 5.75,-5.75 C 28.607969,131.64745 19.928838,117.07564 17.121094,101.18945 8.1966437,59.714378 44.502521,15.769416 86.878906,16.041016 c 0.80195,-0.019 1.60426,-0.02362 2.40625,-0.01563 5.613941,0.059 11.218234,0.788131 16.666014,2.144531 14.57148,3.056328 27.28795,11.163991 36.84961,22.113281 l 5.81445,-5.814453 C 143.37065,28.59194 137.19781,23.521662 130.16797,19.595703 117.87457,12.245302 103.64243,8.1922275 89.580078,8.0234375 Z"
       transform="translate(0,875.19688)"
       id="path4140-3-5-1-7"
       inkscape:connector-curvature="0" />
    <path
       style="fill:#000000;fill-opacity:1;fill-rule:evenodd;stroke:none;stroke-width:1px;stroke-linecap:butt;stroke-linejoin:miter;stroke-opacity:1"
       d="m 85.533314,966.90443 a 4.4966422,4.4966422 0 0 0 6.359819,10e-4 4.4966422,4.4966422 0 0 0 -0.0014,-6.35982 A 4.4966422,4.4966422 0 0 0 91.099,959.92137 L 61.803809,936.81648 84.90631,966.10893 a 4.4966422,4.4966422 0 0 0 0.627004,0.7955 z"
       id="path4413-6-7"
       inkscape:connector-curvature="0"
       inkscape:transform-center-x="11.075901"
       inkscape:transform-center-y="-11.260166" />
  </g>
  <g
     inkscape:groupmode="layer"
     id="layer2"
     inkscape:label="Hidden"
     style="display:none">
    <circle
       style="opacity:1;fill:#000000;fill-opacity:1;fill-rule:evenodd;stroke:none;stroke-width:1;stroke-miterlimit:4;stroke-dasharray:none;stroke-opacity:1"
       id="path4140-7"
       cx="285.34558"
       cy="209.23906"
       r="88.540169" />
    <path
       style="opacity:1;fill:#a0a0a0;fill-opacity:1;fill-rule:evenodd;stroke:none;stroke-width:1;stroke-miterlimit:4;stroke-dasharray:none;stroke-opacity:1"
       d="m 283.36838,128.7252 c -43.50174,-0.0245 -82.0461,41.06314 -78.55822,84.60026 1.83421,37.46008 32.39729,71.96938 70.15753,75.85688 36.46716,4.8714 75.49496,-18.1935 86.64108,-53.86079 11.91704,-34.50589 -2.38301,-76.91392 -34.84256,-95.04162 -13.11296,-7.8404 -28.4322,-11.93011 -43.39783,-11.55473 z"
       id="path4140-3-5"
       inkscape:connector-curvature="0" />
    <path
       style="opacity:1;fill:#dbf8ff;fill-opacity:0.66153846;fill-rule:evenodd;stroke:none;stroke-width:1;stroke-miterlimit:4;stroke-dasharray:none;stroke-opacity:1"
       d="m 283.47776,136.7252 c -42.37638,-0.27169 -78.68276,43.67313 -69.75831,85.14825 6.36145,35.99289 42.83877,65.26589 79.84815,59.47669 34.23202,-3.8401 64.36478,-34.3062 64.28128,-69.51098 1.27775,-33.19536 -22.26149,-66.05552 -55.29886,-72.98505 -6.22604,-1.5502 -12.65665,-2.28187 -19.07226,-2.12891 z"
       id="path4140-3-6-3"
       inkscape:connector-curvature="0" />
    <path
       style="fill:#b1ff00;fill-opacity:0.70769234;fill-rule:evenodd;stroke:none;stroke-width:1px;stroke-linecap:butt;stroke-linejoin:miter;stroke-opacity:1"
       d="m -7.1925168,193.73516 -4.4962992,62.66303 4.4962992,0 4.4969894,0 -4.4969894,-62.66303 z"
       id="path4413"
       inkscape:connector-curvature="0" />
    <circle
       style="opacity:1;fill:#b1ff00;fill-opacity:0.70769234;fill-rule:evenodd;stroke:none;stroke-width:1;stroke-miterlimit:4;stroke-dasharray:none;stroke-opacity:1"
       id="path4431"
       cx="-7.1921787"
       cy="256.39819"
       r="4.4966421" />
    <path
       style="fill:#b1ff00;fill-opacity:0.70769234;fill-rule:evenodd;stroke:none;stroke-width:1px;stroke-linecap:butt;stroke-linejoin:miter;stroke-opacity:1"
       d="m 14.963081,225.15079 -4.4963,38.05467 4.4963,0 4.496989,0 -4.496989,-38.05467 z"
       id="path4413-6"
       inkscape:connector-curvature="0" />
    <circle
       style="opacity:1;fill:#b1ff00;fill-opacity:0.70769234;fill-rule:evenodd;stroke:none;stroke-width:1;stroke-miterlimit:4;stroke-dasharray:none;stroke-opacity:1"
       id="path4431-2"
       cx="14.963412"
       cy="263.20557"
       r="4.4966416" />
    <rect
       style="opacity:1;fill:#b2be97;fill-opacity:0.81372549;fill-rule:evenodd;stroke:none;stroke-width:1;stroke-miterlimit:4;stroke-dasharray:none;stroke-opacity:1"
       id="rect4566-3"
       width="244.42397"
       height="239.44701"
       x="75.011749"
       y="-480.88596"
       rx="0.265129"
       ry="0.265129"
       transform="matrix(0.70710678,0.70710678,-0.70710678,0.70710678,0,0)" />
  </g>
</svg>
