<?xml version="1.0" encoding="UTF-8" standalone="no"?>
<!-- Created with Inkscape (http://www.inkscape.org/) -->

<svg
   xmlns:dc="http://purl.org/dc/elements/1.1/"
   xmlns:cc="http://creativecommons.org/ns#"
   xmlns:rdf="http://www.w3.org/1999/02/22-rdf-syntax-ns#"
   xmlns:svg="http://www.w3.org/2000/svg"
   xmlns="http://www.w3.org/2000/svg"
   xmlns:sodipodi="http://sodipodi.sourceforge.net/DTD/sodipodi-0.dtd"
   xmlns:inkscape="http://www.inkscape.org/namespaces/inkscape"
   width="50mm"
   height="50mm"
   viewBox="0 0 177.16535 177.16535"
   id="svg2"
   version="1.1"
   inkscape:version="0.91 r13725"
   sodipodi:docname="alert_modal_on.svg"
   inkscape:export-filename="J:\work\fpc\catbell\res\controls\alert_modal_on.png"
   inkscape:export-xdpi="12.401245"
   inkscape:export-ydpi="12.401245">
  <defs
     id="defs4">
    <filter
       inkscape:collect="always"
       style="color-interpolation-filters:sRGB"
       id="filter5766"
       x="-0.040981455"
       width="1.0819629"
       y="-0.05599511"
       height="1.1119902">
      <feGaussianBlur
         inkscape:collect="always"
         stdDeviation="0.69876009"
         id="feGaussianBlur5768" />
    </filter>
    <filter
       inkscape:collect="always"
       style="color-interpolation-filters:sRGB"
       id="filter5770"
       x="-0.055995032"
       width="1.1119901"
       y="-0.055995032"
       height="1.1119901">
      <feGaussianBlur
         inkscape:collect="always"
         stdDeviation="0.69876009"
         id="feGaussianBlur5772" />
    </filter>
    <filter
       inkscape:collect="always"
       style="color-interpolation-filters:sRGB"
       id="filter5774"
       x="-0.055995032"
       width="1.1119901"
       y="-0.055995032"
       height="1.1119901">
      <feGaussianBlur
         inkscape:collect="always"
         stdDeviation="0.69876009"
         id="feGaussianBlur5776" />
    </filter>
    <filter
       inkscape:collect="always"
       style="color-interpolation-filters:sRGB"
       id="filter5778"
       x="-0.055995032"
       width="1.1119901"
       y="-0.055995032"
       height="1.1119901">
      <feGaussianBlur
         inkscape:collect="always"
         stdDeviation="0.69876009"
         id="feGaussianBlur5780" />
    </filter>
  </defs>
  <sodipodi:namedview
     id="base"
     pagecolor="#ffffff"
     bordercolor="#666666"
     borderopacity="1.0"
     inkscape:pageopacity="0.0"
     inkscape:pageshadow="2"
     inkscape:zoom="1.979899"
     inkscape:cx="116.84355"
     inkscape:cy="47.422645"
     inkscape:document-units="px"
     inkscape:current-layer="g5790"
     showgrid="false"
     inkscape:object-paths="true"
     inkscape:snap-intersection-paths="true"
     inkscape:object-nodes="true"
     inkscape:snap-smooth-nodes="true"
     inkscape:snap-midpoints="true"
     inkscape:snap-nodes="true"
     inkscape:window-width="1366"
     inkscape:window-height="697"
     inkscape:window-x="-4"
     inkscape:window-y="-4"
     inkscape:window-maximized="1"
     inkscape:snap-bbox="false"
     inkscape:snap-bbox-midpoints="true" />
  <metadata
     id="metadata7">
    <rdf:RDF>
      <cc:Work
         rdf:about="">
        <dc:format>image/svg+xml</dc:format>
        <dc:type
           rdf:resource="http://purl.org/dc/dcmitype/StillImage" />
        <dc:title />
      </cc:Work>
    </rdf:RDF>
  </metadata>
  <g
     style="display:inline;opacity:1"
     transform="translate(0,-875.19685)"
     id="g5790"
     inkscape:groupmode="layer"
     inkscape:label="base_circle copy">
    <g
       transform="translate(-12.848809,7.4399194)"
       id="g5792">
      <g
         id="g5794"
         transform="matrix(0,1,-1,0,1076.3056,911.26973)">
        <g
           id="g5796" />
      </g>
      <g
         transform="matrix(0.8660254,0.5,-0.5,0.8660254,485.28193,67.310149)"
         id="g5798">
        <g
           id="g5800" />
      </g>
      <g
         id="g5802"
         transform="matrix(0.8660254,-0.5,0.5,0.8660254,-438.15038,156.89914)">
        <g
           id="g5804" />
      </g>
    </g>
    <g
       transform="translate(-213.42134,-113.56216)"
       id="g5808" />
    <g
       id="g5810"
       transform="matrix(0.5,-0.8660254,0.8660254,0.5,-1059.1746,664.56517)" />
    <g
       transform="matrix(0.5,0.8660254,-0.8660254,0.5,934.05661,141.13307)"
       id="g5812" />
    <path
       inkscape:connector-curvature="0"
       d="m 50.890224,939.43038 75.756576,0 0,76.10902 -75.756576,0 z M 166.80064,1039.7544 a 19.923557,19.923557 0 0 1 -27.21601,-7.2925 19.923557,19.923557 0 0 1 7.29245,-27.2161 19.923557,19.923557 0 0 1 27.21612,7.2926 19.923557,19.923557 0 0 1 -7.29256,27.216 z M 98.730256,921.85306 a 19.923557,19.923557 0 0 1 -27.216016,-7.29256 19.923557,19.923557 0 0 1 7.29246,-27.21604 19.923557,19.923557 0 0 1 27.21612,7.2925 19.923557,19.923557 0 0 1 -7.292564,27.2161 z m 75.362944,90.68534 -34.50857,19.9235 -68.07039,-117.9014 34.50858,-19.92354 z M 98.358741,887.80452 a 19.923557,19.923557 0 0 1 7.292429,27.21607 19.923557,19.923557 0 0 1 -27.21605,7.29259 19.923557,19.923557 0 0 1 -7.292601,-27.21611 19.923557,19.923557 0 0 1 27.216222,-7.29255 z m -68.07046,117.90138 a 19.923557,19.923557 0 0 1 7.292542,27.2161 19.923557,19.923557 0 0 1 -27.216047,7.2926 19.923557,19.923557 0 0 1 -7.2926019,-27.2161 19.923557,19.923557 0 0 1 27.2161069,-7.2926 z M 71.142519,895.09707 105.65117,915.02059 37.580823,1032.922 3.0721741,1012.9985 Z M 176.7624,1022.5003 a 19.923557,19.923557 0 0 1 -19.92348,19.9233 19.923557,19.923557 0 0 1 -19.92358,-19.9235 19.923557,19.923557 0 0 1 19.92353,-19.9236 19.923557,19.923557 0 0 1 19.92353,19.9238 z m -136.140723,-2e-4 a 19.923557,19.923557 0 0 1 -19.923588,19.9236 19.923557,19.923557 0 0 1 -19.92347325,-19.9236 19.923557,19.923557 0 0 1 19.92353525,-19.9236 19.923557,19.923557 0 0 1 19.923526,19.9236 z m 116.217193,-19.9236 5e-5,39.8471 -136.140831,10e-5 6.2e-5,-39.8472 z"
       style="opacity:1;fill:#5795be;fill-opacity:1;stroke:none;stroke-opacity:1"
       id="path5814" />
    <path
       inkscape:connector-curvature="0"
       id="path5816"
       d="m 88.210217,884.68808 a 19.923558,19.923558 0 0 0 -9.404281,2.65576 19.923558,19.923558 0 0 0 -5.833825,5.14259 19.923558,19.923558 0 0 0 -1.829404,2.61158 L 3.0727558,1012.9985 a 19.923558,19.923558 0 0 0 7.2916322,27.2149 19.923558,19.923558 0 0 0 14.107721,2.2114 l 63.738108,0 0,-157.73672 z"
       style="opacity:1;fill:#ffffff;fill-opacity:0.39215686;stroke:none;stroke-opacity:1" />
    <g
       style="fill:#ffffff;fill-opacity:1"
       transform="matrix(0,0.97487675,-0.97487675,0,1182.0866,864.46079)"
       id="g5818">
      <path
         id="path5820"
         style="opacity:1;fill:#ffffff;fill-opacity:1;stroke:none;stroke-opacity:1"
         d="m 125.30931,1121.6843 a 14.97476,14.97476 0 0 1 -14.97476,14.9748 14.97476,14.97476 0 0 1 -14.974761,-14.9748 14.97476,14.97476 0 0 1 14.974761,-14.9747 14.97476,14.97476 0 0 1 14.97476,14.9747 z m -40.92154,0 a 14.97476,14.97476 0 0 1 -14.97476,14.9748 14.97476,14.97476 0 0 1 -14.97476,-14.9748 14.97476,14.97476 0 0 1 14.97476,-14.9747 14.97476,14.97476 0 0 1 14.97476,14.9747 z m 25.94678,-14.9747 0,29.9495 -40.92154,0 0,-29.9495 z"
         inkscape:connector-curvature="0" />
      <circle
         style="opacity:1;fill:#ffffff;fill-opacity:1;stroke:none;stroke-opacity:1"
         id="circle5822"
         cx="148.42897"
         cy="1121.6843"
         r="14.97476" />
    </g>
  </g>
  <g
     inkscape:groupmode="layer"
     id="layer4"
     inkscape:label="base_circle 1"
     style="display:none">
    <g
       style="display:inline;opacity:1"
       transform="matrix(0.8660254,-0.5,0.5,0.8660254,-397.73911,-383.35912)"
       id="g4255">
      <g
         id="g4257">
        <circle
           r="21.213203"
           cy="923.43231"
           cx="89.588989"
           id="circle4259"
           style="opacity:1;fill:#80ff69;fill-opacity:0.39215686;stroke:none;stroke-opacity:1" />
      </g>
      <rect
         style="opacity:1;fill:#80ff69;fill-opacity:0.39215686;stroke:none;stroke-opacity:1"
         id="rect4261"
         width="42.426407"
         height="102.32487"
         x="68.375786"
         y="923.43231" />
      <circle
         r="21.213203"
         cy="1025.7572"
         cx="89.588989"
         id="circle4263"
         style="opacity:1;fill:#80ff69;fill-opacity:0.39215686;stroke:none;stroke-opacity:1" />
    </g>
    <g
       style="display:inline;opacity:1"
       transform="translate(-231.89104,-591.13426)"
       id="g5459">
      <g
         id="g5461"
         transform="matrix(0,1,-1,0,1076.3056,911.26973)">
        <g
           id="g5463">
          <circle
             style="opacity:1;fill:#80ff69;fill-opacity:0.39215686;stroke:none;stroke-opacity:1"
             id="circle5465"
             cx="89.588989"
             cy="923.43231"
             r="21.213203" />
        </g>
        <rect
           y="923.43231"
           x="68.375786"
           height="102.32487"
           width="42.426407"
           id="rect5467"
           style="opacity:1;fill:#80ff69;fill-opacity:0.39215686;stroke:none;stroke-opacity:1" />
        <circle
           style="opacity:1;fill:#80ff69;fill-opacity:0.39215686;stroke:none;stroke-opacity:1"
           id="circle5469"
           cx="89.588989"
           cy="1025.7572"
           r="21.213203" />
      </g>
      <g
         transform="matrix(0.8660254,0.5,-0.5,0.8660254,485.28193,67.310149)"
         id="g5471">
        <g
           id="g5473">
          <circle
             r="21.213203"
             cy="923.43231"
             cx="89.588989"
             id="circle5475"
             style="opacity:1;fill:#80ff69;fill-opacity:0.39215686;stroke:none;stroke-opacity:1" />
        </g>
        <rect
           style="opacity:1;fill:#80ff69;fill-opacity:0.39215686;stroke:none;stroke-opacity:1"
           id="rect5477"
           width="42.426407"
           height="102.32487"
           x="68.375786"
           y="923.43231" />
        <circle
           r="21.213203"
           cy="1025.7572"
           cx="89.588989"
           id="circle5479"
           style="opacity:1;fill:#80ff69;fill-opacity:0.39215686;stroke:none;stroke-opacity:1" />
      </g>
      <g
         id="g5481"
         transform="matrix(0.8660254,-0.5,0.5,0.8660254,-438.15038,156.89914)">
        <g
           id="g5483">
          <circle
             style="opacity:1;fill:#80ff69;fill-opacity:0.39215686;stroke:none;stroke-opacity:1"
             id="circle5485"
             cx="89.588989"
             cy="923.43231"
             r="21.213203" />
        </g>
        <rect
           y="923.43231"
           x="68.375786"
           height="102.32487"
           width="42.426407"
           id="rect5487"
           style="opacity:1;fill:#80ff69;fill-opacity:0.39215686;stroke:none;stroke-opacity:1" />
        <circle
           style="opacity:1;fill:#80ff69;fill-opacity:0.39215686;stroke:none;stroke-opacity:1"
           id="circle5489"
           cx="89.588989"
           cy="1025.7572"
           r="21.213203" />
      </g>
    </g>
    <path
       style="display:inline;opacity:1;fill:#7b69ff;fill-opacity:0.39215686;stroke:none;stroke-opacity:1"
       d="m 37.347877,419.97058 c -11.5082,0.2762 -15.81003,13.2365 -20.6781,21.5667 -14.9055695,26.7349 -31.76698,52.55709 -45.11486,80.05249 -1.64869,11.0363 10.26381,20.4793 20.7441105,17.816 34.1477795,-0.4604 68.4642595,1.0266 102.4941695,-0.7965 10.638313,-3.5925 13.162103,-19.0458 5.07291,-26.4575 -17.43009,-29.3128 -33.28389,-59.58909 -51.77018,-88.23389 -2.89853,-2.6216 -6.83501,-4.1013 -10.74805,-3.9473 z"
       id="path5503"
       inkscape:connector-curvature="0" />
    <g
       transform="translate(-506.37439,-531.68684)"
       style="display:inline;opacity:1"
       id="g5534">
      <rect
         transform="matrix(0,1,-1,0,0,0)"
         style="opacity:1;fill:#7b69ff;fill-opacity:0.39215686;stroke:none;stroke-opacity:1"
         id="rect4285"
         width="29.949509"
         height="102.32487"
         x="1106.1179"
         y="-353.16644" />
      <circle
         r="14.97476"
         cy="1121.0927"
         cx="250.84158"
         id="path5513"
         style="opacity:1;fill:#7b69ff;fill-opacity:0.39215686;stroke:none;stroke-opacity:1" />
      <circle
         style="opacity:1;fill:#7b69ff;fill-opacity:0.39215686;stroke:none;stroke-opacity:1"
         id="circle5532"
         cx="353.16644"
         cy="1121.0927"
         r="14.97476" />
    </g>
    <rect
       transform="matrix(0,1,-1,0,0,0)"
       style="display:inline;opacity:1;fill:#7b69ff;fill-opacity:0.39215686;stroke:none;stroke-opacity:1;filter:url(#filter5766)"
       id="rect5594"
       width="29.949476"
       height="40.921539"
       x="380.80206"
       y="208.69814" />
    <circle
       r="14.974759"
       cy="395.77667"
       cx="-249.61969"
       id="circle5596"
       style="display:inline;opacity:1;fill:#7b69ff;fill-opacity:0.39215686;stroke:none;stroke-opacity:1;filter:url(#filter5770)" />
    <circle
       style="display:inline;opacity:1;fill:#7b69ff;fill-opacity:0.39215686;stroke:none;stroke-opacity:1;filter:url(#filter5774)"
       id="circle5598"
       cx="-208.69815"
       cy="395.77667"
       r="14.974759" />
    <circle
       r="14.974759"
       cy="394.93976"
       cx="-170.60373"
       id="circle5603"
       style="display:inline;opacity:1;fill:#7b69ff;fill-opacity:0.39215686;stroke:none;stroke-opacity:1;filter:url(#filter5778)" />
  </g>
</svg>
