<?xml version="1.0" encoding="UTF-8" standalone="no"?>
<!-- Created with Inkscape (http://www.inkscape.org/) -->

<svg
   xmlns:dc="http://purl.org/dc/elements/1.1/"
   xmlns:cc="http://creativecommons.org/ns#"
   xmlns:rdf="http://www.w3.org/1999/02/22-rdf-syntax-ns#"
   xmlns:svg="http://www.w3.org/2000/svg"
   xmlns="http://www.w3.org/2000/svg"
   xmlns:sodipodi="http://sodipodi.sourceforge.net/DTD/sodipodi-0.dtd"
   xmlns:inkscape="http://www.inkscape.org/namespaces/inkscape"
   width="5cm"
   height="5cm"
   viewBox="0 0 177.16535 177.16535"
   id="svg2"
   version="1.1"
   inkscape:version="0.92.4 (unknown)"
   sodipodi:docname="arrow_up.svg">
  <defs
     id="defs4" />
  <sodipodi:namedview
     id="base"
     pagecolor="#ffffff"
     bordercolor="#666666"
     borderopacity="1.0"
     inkscape:pageopacity="0.0"
     inkscape:pageshadow="2"
     inkscape:zoom="1.8083334"
     inkscape:cx="-75.155171"
     inkscape:cy="74.535738"
     inkscape:document-units="px"
     inkscape:current-layer="layer1"
     showgrid="false"
     units="cm"
     inkscape:showpageshadow="false"
     inkscape:snap-intersection-paths="true"
     inkscape:object-paths="true"
     inkscape:snap-smooth-nodes="true"
     inkscape:object-nodes="true"
     inkscape:snap-center="true"
     inkscape:snap-object-midpoints="true"
     inkscape:snap-bbox="false"
     inkscape:snap-bbox-edge-midpoints="true"
     inkscape:snap-bbox-midpoints="true"
     inkscape:snap-midpoints="true"
     inkscape:bbox-nodes="true"
     inkscape:window-width="1366"
     inkscape:window-height="723"
     inkscape:window-x="0"
     inkscape:window-y="0"
     inkscape:window-maximized="1" />
  <metadata
     id="metadata7">
    <rdf:RDF>
      <cc:Work
         rdf:about="">
        <dc:format>image/svg+xml</dc:format>
        <dc:type
           rdf:resource="http://purl.org/dc/dcmitype/StillImage" />
        <dc:title />
      </cc:Work>
    </rdf:RDF>
  </metadata>
  <g
     inkscape:label="Layer 1"
     inkscape:groupmode="layer"
     id="layer1"
     transform="translate(0,-875.19688)">
    <path
       style="opacity:1;fill:#5795be;fill-opacity:1;fill-rule:evenodd;stroke:#404040;stroke-width:11.25;stroke-miterlimit:4;stroke-dasharray:none;stroke-opacity:1"
       d="m 88.583662,910.93951 c -6.31035,0 -12.62042,2.41785 -17.45573,7.25317 l -56.311015,56.30905 c -9.6706302,9.67057 -9.6706302,25.24087 0,34.91147 9.67064,9.6706 25.240835,9.6706 34.911475,0 l 38.85527,-38.85327 38.853288,38.85327 c 9.67065,9.6706 25.24085,9.6706 34.91148,0 9.67063,-9.6706 9.67063,-25.2409 0,-34.91147 l -56.30904,-56.30905 c -4.83532,-4.83532 -11.145378,-7.25317 -17.455728,-7.25317 z"
       id="rect5024-5"
       inkscape:connector-curvature="0" />
    <path
       style="opacity:1;fill:#5795be;fill-opacity:1;fill-rule:evenodd;stroke:none;stroke-width:0.92504376;stroke-miterlimit:4;stroke-dasharray:none;stroke-opacity:1"
       d="m 88.583671,910.93954 c -6.310351,0 -12.62042,2.41785 -17.455737,7.25317 l -56.311013,56.30902 c -9.6706375,9.67064 -9.6706345,25.24088 0,34.91147 9.670634,9.6706 25.240839,9.6706 34.911475,0 l 38.855275,-38.85328 38.853279,38.85328 c 9.67065,9.6706 25.24085,9.6706 34.91148,0 9.67063,-9.67059 9.67063,-25.24083 0,-34.91147 L 106.0394,918.19271 c -4.83532,-4.83532 -11.145377,-7.25317 -17.455729,-7.25317 z"
       id="rect5024"
       inkscape:connector-curvature="0" />
    <path
       style="opacity:1;fill:#ffffff;fill-opacity:0.31372549;fill-rule:evenodd;stroke:none;stroke-width:0.92504376;stroke-miterlimit:4;stroke-dasharray:none;stroke-opacity:1"
       d="m 88.581682,910.93955 c -6.309686,5.1e-4 -12.618939,2.41835 -17.453748,7.25317 l -56.311018,56.30901 c -9.6706338,9.67065 -9.6706236,25.24088 0,34.91147 9.670643,9.6706 25.240844,9.6706 34.91148,0 l 38.853286,-38.85128 z"
       id="rect5024-9"
       inkscape:connector-curvature="0" />
  </g>
</svg>
