<?xml version="1.0" encoding="UTF-8" standalone="no"?>
<!-- Created with Inkscape (http://www.inkscape.org/) -->

<svg
   xmlns:dc="http://purl.org/dc/elements/1.1/"
   xmlns:cc="http://creativecommons.org/ns#"
   xmlns:rdf="http://www.w3.org/1999/02/22-rdf-syntax-ns#"
   xmlns:svg="http://www.w3.org/2000/svg"
   xmlns="http://www.w3.org/2000/svg"
   xmlns:sodipodi="http://sodipodi.sourceforge.net/DTD/sodipodi-0.dtd"
   xmlns:inkscape="http://www.inkscape.org/namespaces/inkscape"
   width="50mm"
   height="50mm"
   viewBox="0 0 177.16535 177.16535"
   id="svg2"
   version="1.1"
   inkscape:version="0.92.4 (5da689c313, 2019-01-14)"
   sodipodi:docname="bell.svg">
  <defs
     id="defs4" />
  <sodipodi:namedview
     id="base"
     pagecolor="#ffffff"
     bordercolor="#666666"
     borderopacity="1.0"
     inkscape:pageopacity="0.0"
     inkscape:pageshadow="2"
     inkscape:zoom="1.994054"
     inkscape:cx="182.32835"
     inkscape:cy="86.600755"
     inkscape:document-units="px"
     inkscape:current-layer="g4180"
     showgrid="false"
     inkscape:showpageshadow="false"
     inkscape:object-paths="true"
     inkscape:snap-intersection-paths="true"
     inkscape:object-nodes="true"
     inkscape:snap-smooth-nodes="true"
     inkscape:snap-midpoints="true"
     inkscape:snap-nodes="true"
     showguides="false"
     inkscape:window-width="1366"
     inkscape:window-height="705"
     inkscape:window-x="-8"
     inkscape:window-y="-8"
     inkscape:window-maximized="1" />
  <metadata
     id="metadata7">
    <rdf:RDF>
      <cc:Work
         rdf:about="">
        <dc:format>image/svg+xml</dc:format>
        <dc:type
           rdf:resource="http://purl.org/dc/dcmitype/StillImage" />
        <dc:title />
      </cc:Work>
    </rdf:RDF>
  </metadata>
  <g
     inkscape:label="Layer 1"
     inkscape:groupmode="layer"
     id="layer1"
     transform="translate(0,-875.19685)"
     style="display:none">
    <circle
       style="opacity:1;fill:#5ad04b;fill-opacity:1;fill-rule:evenodd;stroke:none;stroke-width:7;stroke-miterlimit:4;stroke-dasharray:none;stroke-opacity:1"
       id="path4136"
       cx="88.582664"
       cy="931.90155"
       r="55.810928" />
    <rect
       style="opacity:1;fill:#6c4bd0;fill-opacity:1;fill-rule:evenodd;stroke:none;stroke-width:7;stroke-miterlimit:4;stroke-dasharray:none;stroke-opacity:1"
       id="rect4138"
       width="111.62186"
       height="77.276672"
       x="32.771736"
       y="931.90155" />
    <rect
       style="opacity:1;fill:#d0734b;fill-opacity:1;fill-rule:evenodd;stroke:none;stroke-width:7;stroke-miterlimit:4;stroke-dasharray:none;stroke-opacity:1"
       id="rect4142"
       width="139.40106"
       height="14.142136"
       x="18.882128"
       y="1009.1782"
       rx="7.0710678"
       ry="7.0710678" />
    <rect
       style="opacity:1;fill:#d0734b;fill-opacity:1;fill-rule:evenodd;stroke:none;stroke-width:7;stroke-miterlimit:4;stroke-dasharray:none;stroke-opacity:1"
       id="rect4142-6"
       width="149.50256"
       height="14.142134"
       x="13.831373"
       y="1023.3204"
       rx="7.0710669"
       ry="7.0710669" />
    <path
       id="path4239"
       d="m 573.04488,937.27969 a 47.926201,47.926201 0 0 0 -47.92577,47.92578 l 0,77.27533 95.85351,0 0,-77.27533 a 47.926201,47.926201 0 0 0 -47.92774,-47.92578 z"
       style="opacity:1;fill:#ff0000;fill-opacity:0.31372549;fill-rule:evenodd;stroke:none;stroke-width:7;stroke-miterlimit:4;stroke-dasharray:none;stroke-opacity:1"
       inkscape:connector-curvature="0" />
    <circle
       r="38.364052"
       cy="1056.9811"
       cx="74.46759"
       id="circle4364"
       style="opacity:1;fill:#00a3ff;fill-opacity:1;fill-rule:evenodd;stroke:none;stroke-width:7;stroke-miterlimit:4;stroke-dasharray:none;stroke-opacity:1" />
    <circle
       style="opacity:1;fill:#ff6d00;fill-opacity:0.53554508;fill-rule:evenodd;stroke:none;stroke-width:7;stroke-miterlimit:4;stroke-dasharray:none;stroke-opacity:1"
       id="path4376"
       cx="74.46759"
       cy="1056.9811"
       r="30.249228" />
    <circle
       r="38.364052"
       cy="1143.4873"
       cx="53.191143"
       id="circle4385"
       style="opacity:1;fill:#00a3ff;fill-opacity:1;fill-rule:evenodd;stroke:none;stroke-width:7;stroke-miterlimit:4;stroke-dasharray:none;stroke-opacity:1" />
    <path
       id="path4387"
       d="m 53.19183,1113.2387 a 30.249231,30.249231 0 0 0 -30.249996,30.248 30.249231,30.249231 0 0 0 30.249996,30.25 l 0,-60.498 z"
       style="opacity:1;fill:#ffffff;fill-opacity:0.31372549;fill-rule:evenodd;stroke:none;stroke-width:7;stroke-miterlimit:4;stroke-dasharray:none;stroke-opacity:1"
       inkscape:connector-curvature="0" />
  </g>
  <g
     transform="translate(0,-875.19685)"
     id="g4180"
     inkscape:groupmode="layer"
     inkscape:label="Layer 1 copy">
    <path
       style="opacity:1;fill:#ffef5c;fill-opacity:1;fill-rule:evenodd;stroke:#515151;stroke-width:14.1732279;stroke-linejoin:round;stroke-miterlimit:4;stroke-dasharray:none;stroke-opacity:1"
       d="m 88.581759,884.38958 a 11.123269,11.123269 0 0 0 -11.12183,11.12549 11.123269,11.123269 0 0 0 3.63282,8.20495 50.019058,50.019058 0 0 0 -42.52808,49.41468 v 45.95577 h -6.11206 c -3.51084,0 -6.33728,2.82653 -6.33728,6.33733 0,3.5108 2.82644,6.3373 6.33728,6.3373 h -4.52637 c -3.51084,0 -6.33728,2.8264 -6.33728,6.3373 0,3.5108 2.82644,6.3372 6.33728,6.3372 h 30.04761 a 34.382763,34.382763 0 0 0 30.60974,18.7299 34.382763,34.382763 0 0 0 30.574951,-18.7299 h 30.08056 c 3.51085,0 6.33729,-2.8264 6.33729,-6.3372 0,-3.5109 -2.82644,-6.3373 -6.33729,-6.3373 h -4.52636 c 3.51083,0 6.33728,-2.8265 6.33728,-6.3373 0,-3.5108 -2.82645,-6.33733 -6.33728,-6.33733 h -6.11023 V 953.1347 a 50.019058,50.019058 0 0 0 -42.551881,-49.39637 11.123269,11.123269 0 0 0 3.65479,-8.22326 11.123269,11.123269 0 0 0 -11.12366,-11.12549 z m 0,7.41577 a 3.7079453,3.7079453 0 0 1 3.70971,3.70972 3.7079453,3.7079453 0 0 1 -3.70971,3.70605 3.7079453,3.7079453 0 0 1 -3.70605,-3.70605 3.7079453,3.7079453 0 0 1 3.70605,-3.70972 z"
       id="path3773"
       inkscape:connector-curvature="0" />
    <path
       inkscape:connector-curvature="0"
       style="opacity:1;fill:#ffffff;fill-opacity:0.31372549;fill-rule:evenodd;stroke:none;stroke-width:6.27356339;stroke-miterlimit:4;stroke-dasharray:none;stroke-opacity:1"
       d="m 88.584078,981.67741 a 27.110071,27.110071 0 0 0 -27.110756,27.10899 27.110071,27.110071 0 0 0 27.110756,27.1109 z"
       id="circle4378" />
    <circle
       style="opacity:0.98999999;fill:#e25243;fill-opacity:1;stroke:none;stroke-width:16.35713768;stroke-linecap:round;stroke-linejoin:round;stroke-miterlimit:4;stroke-dasharray:none;stroke-opacity:1"
       id="path3804"
       cx="88.582291"
       cy="895.51508"
       r="11.123122" />
    <circle
       r="50.019058"
       cy="953.1347"
       cx="88.58345"
       id="circle4182"
       style="opacity:1;fill:#ffef5c;fill-opacity:1;fill-rule:evenodd;stroke:none;stroke-width:6.27356339;stroke-miterlimit:4;stroke-dasharray:none;stroke-opacity:1" />
    <circle
       style="opacity:1;fill:#ffef5c;fill-opacity:1;fill-rule:evenodd;stroke:none;stroke-width:6.27356339;stroke-miterlimit:4;stroke-dasharray:none;stroke-opacity:1"
       id="circle4380"
       cx="88.58345"
       cy="1008.787"
       r="34.382763" />
    <rect
       y="953.1347"
       x="38.5644"
       height="69.257156"
       width="100.03812"
       id="rect4184"
       style="opacity:1;fill:#ffef5c;fill-opacity:1;fill-rule:evenodd;stroke:none;stroke-width:6.27356339;stroke-miterlimit:4;stroke-dasharray:none;stroke-opacity:1" />
    <rect
       ry="6.337256"
       rx="6.337256"
       y="999.09009"
       x="26.116207"
       height="12.674512"
       width="124.93449"
       id="rect4186"
       style="opacity:1;fill:#e25243;fill-opacity:1;fill-rule:evenodd;stroke:none;stroke-width:6.27356339;stroke-miterlimit:4;stroke-dasharray:none;stroke-opacity:1" />
    <rect
       ry="6.337255"
       rx="6.337255"
       y="1011.7646"
       x="21.589603"
       height="12.67451"
       width="133.98769"
       id="rect4188"
       style="opacity:1;fill:#e25243;fill-opacity:1;fill-rule:evenodd;stroke:none;stroke-width:6.27356339;stroke-miterlimit:4;stroke-dasharray:none;stroke-opacity:1" />
    <path
       style="opacity:1;fill:#ffffff;fill-opacity:0.39215686;stroke:none;stroke-width:16.35713768;stroke-linecap:round;stroke-linejoin:round;stroke-miterlimit:4;stroke-dasharray:none;stroke-opacity:1"
       d="m 88.57881,884.39136 a 11.123122,11.123122 0 0 0 -11.123662,11.12366 11.123122,11.123122 0 0 0 3.63465,8.20678 50.019058,50.019058 0 0 0 -42.529911,49.41284 v 45.95583 h -6.110231 c -3.510835,0 -6.337275,2.82643 -6.337275,6.33733 0,3.5108 2.82644,6.3372 6.337275,6.3372 h -4.526363 c -3.510853,0 -6.337284,2.8265 -6.337284,6.3373 0,3.5109 2.826431,6.3373 6.337284,6.3373 h 30.047606 a 34.382763,34.382763 0 0 0 30.607911,18.7299 z"
       id="circle3918"
       inkscape:connector-curvature="0" />
  </g>
</svg>
