<?xml version="1.0" encoding="UTF-8" standalone="no"?>
<!-- Created with Inkscape (http://www.inkscape.org/) -->

<svg
   xmlns:dc="http://purl.org/dc/elements/1.1/"
   xmlns:cc="http://creativecommons.org/ns#"
   xmlns:rdf="http://www.w3.org/1999/02/22-rdf-syntax-ns#"
   xmlns:svg="http://www.w3.org/2000/svg"
   xmlns="http://www.w3.org/2000/svg"
   xmlns:sodipodi="http://sodipodi.sourceforge.net/DTD/sodipodi-0.dtd"
   xmlns:inkscape="http://www.inkscape.org/namespaces/inkscape"
   width="50mm"
   height="50mm"
   viewBox="0 0 177.16535 177.16535"
   id="svg2"
   version="1.1"
   inkscape:version="0.91 r"
   sodipodi:docname="bell.svg">
  <defs
     id="defs4" />
  <sodipodi:namedview
     id="base"
     pagecolor="#ffffff"
     bordercolor="#666666"
     borderopacity="1.0"
     inkscape:pageopacity="0.0"
     inkscape:pageshadow="2"
     inkscape:zoom="0.17625114"
     inkscape:cx="-884.46093"
     inkscape:cy="963.35799"
     inkscape:document-units="px"
     inkscape:current-layer="g4180"
     showgrid="false"
     inkscape:showpageshadow="false"
     inkscape:object-paths="true"
     inkscape:snap-intersection-paths="true"
     inkscape:object-nodes="true"
     inkscape:snap-smooth-nodes="true"
     inkscape:snap-midpoints="true"
     inkscape:snap-nodes="true"
     showguides="false"
     inkscape:window-width="1366"
     inkscape:window-height="696"
     inkscape:window-x="0"
     inkscape:window-y="24"
     inkscape:window-maximized="1" />
  <metadata
     id="metadata7">
    <rdf:RDF>
      <cc:Work
         rdf:about="">
        <dc:format>image/svg+xml</dc:format>
        <dc:type
           rdf:resource="http://purl.org/dc/dcmitype/StillImage" />
        <dc:title></dc:title>
      </cc:Work>
    </rdf:RDF>
  </metadata>
  <g
     inkscape:label="Layer 1"
     inkscape:groupmode="layer"
     id="layer1"
     transform="translate(0,-875.19685)"
     style="display:none">
    <circle
       style="opacity:1;fill:#5ad04b;fill-opacity:1;fill-rule:evenodd;stroke:none;stroke-width:7;stroke-miterlimit:4;stroke-dasharray:none;stroke-opacity:1"
       id="path4136"
       cx="88.582664"
       cy="931.90155"
       r="55.810928" />
    <rect
       style="opacity:1;fill:#6c4bd0;fill-opacity:1;fill-rule:evenodd;stroke:none;stroke-width:7;stroke-miterlimit:4;stroke-dasharray:none;stroke-opacity:1"
       id="rect4138"
       width="111.62186"
       height="77.276672"
       x="32.771736"
       y="931.90155" />
    <rect
       style="opacity:1;fill:#d0734b;fill-opacity:1;fill-rule:evenodd;stroke:none;stroke-width:7;stroke-miterlimit:4;stroke-dasharray:none;stroke-opacity:1"
       id="rect4142"
       width="139.40106"
       height="14.142136"
       x="18.882128"
       y="1009.1782"
       rx="7.0710678"
       ry="7.0710678" />
    <rect
       style="opacity:1;fill:#d0734b;fill-opacity:1;fill-rule:evenodd;stroke:none;stroke-width:7;stroke-miterlimit:4;stroke-dasharray:none;stroke-opacity:1"
       id="rect4142-6"
       width="149.50256"
       height="14.142134"
       x="13.831373"
       y="1023.3204"
       rx="7.0710669"
       ry="7.0710669" />
    <path
       id="path4239"
       d="m 573.04488,937.27969 a 47.926201,47.926201 0 0 0 -47.92577,47.92578 l 0,77.27533 95.85351,0 0,-77.27533 a 47.926201,47.926201 0 0 0 -47.92774,-47.92578 z"
       style="opacity:1;fill:#ff0000;fill-opacity:0.31372549;fill-rule:evenodd;stroke:none;stroke-width:7;stroke-miterlimit:4;stroke-dasharray:none;stroke-opacity:1"
       inkscape:connector-curvature="0" />
    <circle
       r="38.364052"
       cy="1056.9811"
       cx="74.46759"
       id="circle4364"
       style="opacity:1;fill:#00a3ff;fill-opacity:1;fill-rule:evenodd;stroke:none;stroke-width:7;stroke-miterlimit:4;stroke-dasharray:none;stroke-opacity:1" />
    <circle
       style="opacity:1;fill:#ff6d00;fill-opacity:0.53554508;fill-rule:evenodd;stroke:none;stroke-width:7;stroke-miterlimit:4;stroke-dasharray:none;stroke-opacity:1"
       id="path4376"
       cx="74.46759"
       cy="1056.9811"
       r="30.249228" />
    <circle
       r="38.364052"
       cy="1143.4873"
       cx="53.191143"
       id="circle4385"
       style="opacity:1;fill:#00a3ff;fill-opacity:1;fill-rule:evenodd;stroke:none;stroke-width:7;stroke-miterlimit:4;stroke-dasharray:none;stroke-opacity:1" />
    <path
       id="path4387"
       d="m 53.19183,1113.2387 a 30.249231,30.249231 0 0 0 -30.249996,30.248 30.249231,30.249231 0 0 0 30.249996,30.25 l 0,-60.498 z"
       style="opacity:1;fill:#ffffff;fill-opacity:0.31372549;fill-rule:evenodd;stroke:none;stroke-width:7;stroke-miterlimit:4;stroke-dasharray:none;stroke-opacity:1"
       inkscape:connector-curvature="0" />
  </g>
  <g
     transform="translate(0,-875.19685)"
     id="g4180"
     inkscape:groupmode="layer"
     inkscape:label="Layer 1 copy">
    <path
       style="opacity:1;fill:#b98339;fill-opacity:1;fill-rule:evenodd;stroke:none;stroke-width:7;stroke-miterlimit:4;stroke-dasharray:none;stroke-opacity:1"
       d="M 88.581692,875.19685 A 12.411269,12.411269 0 0 0 76.171535,887.60896 12.411269,12.411269 0 0 0 88.581692,900.01911 12.411269,12.411269 0 0 0 100.9938,887.60896 12.411269,12.411269 0 0 0 88.581692,875.19685 Z m 0,8.27344 a 4.1373005,4.1373005 0 0 1 4.138672,4.13867 4.1373005,4.1373005 0 0 1 -4.138672,4.13672 4.1373005,4.1373005 0 0 1 -4.136719,-4.13672 4.1373005,4.1373005 0 0 1 4.136719,-4.13867 z"
       id="path4349"
       inkscape:connector-curvature="0" />
    <circle
       r="55.810928"
       cy="951.90155"
       cx="88.582664"
       id="circle4182"
       style="opacity:1;fill:#ffbc00;fill-opacity:1;fill-rule:evenodd;stroke:none;stroke-width:7;stroke-miterlimit:4;stroke-dasharray:none;stroke-opacity:1" />
    <g
       id="g4389"
       transform="translate(-65.338522,-55.828411)">
      <circle
         r="38.364056"
         cy="1069.8265"
         cx="153.92119"
         id="circle4380"
         style="opacity:1;fill:#00a3ff;fill-opacity:1;fill-rule:evenodd;stroke:none;stroke-width:7;stroke-miterlimit:4;stroke-dasharray:none;stroke-opacity:1" />
      <path
         id="circle4378"
         transform="translate(0,875.19685)"
         d="m 153.92188,164.38086 a 30.249235,30.249235 0 0 0 -30.25,30.24805 30.249235,30.249235 0 0 0 30.25,30.25 l 0,-60.49805 z"
         style="opacity:1;fill:#ffffff;fill-opacity:0.31372549;fill-rule:evenodd;stroke:none;stroke-width:7;stroke-miterlimit:4;stroke-dasharray:none;stroke-opacity:1"
         inkscape:connector-curvature="0" />
    </g>
    <rect
       y="951.90155"
       x="32.771736"
       height="77.276672"
       width="111.62186"
       id="rect4184"
       style="opacity:1;fill:#ffbc00;fill-opacity:1;fill-rule:evenodd;stroke:none;stroke-width:7;stroke-miterlimit:4;stroke-dasharray:none;stroke-opacity:1" />
    <path
       style="opacity:1;fill:#ffffff;fill-opacity:0.31372549;fill-rule:evenodd;stroke:none;stroke-width:7;stroke-miterlimit:4;stroke-dasharray:none;stroke-opacity:1"
       d="M 88.644531,903.97615 A 47.926213,47.926213 0 0 0 40.71875,951.90193 l 0,77.27537 47.925781,0 0,-125.20115 z"
       id="path4232"
       inkscape:connector-curvature="0" />
    <rect
       ry="7.0710678"
       rx="7.0710678"
       y="1003.1782"
       x="18.882128"
       height="14.142136"
       width="139.40106"
       id="rect4186"
       style="opacity:1;fill:#c2a040;fill-opacity:1;fill-rule:evenodd;stroke:none;stroke-width:7;stroke-miterlimit:4;stroke-dasharray:none;stroke-opacity:1" />
    <rect
       ry="7.0710669"
       rx="7.0710669"
       y="1017.3204"
       x="13.831373"
       height="14.142134"
       width="149.50256"
       id="rect4188"
       style="opacity:1;fill:#b98339;fill-opacity:1;fill-rule:evenodd;stroke:none;stroke-width:7;stroke-miterlimit:4;stroke-dasharray:none;stroke-opacity:1" />
    <path
       style="opacity:1;fill:#ffffff;fill-opacity:0.31372549;fill-rule:evenodd;stroke:none;stroke-width:7;stroke-miterlimit:4;stroke-dasharray:none;stroke-opacity:1"
       d="m 34.188056,1003.1782 c -3.917372,0 -7.070313,3.153 -7.070313,7.0703 0,3.9174 3.152941,7.0723 7.070313,7.0723 l 39.404297,0 0,-14.1426 -39.404297,0 z"
       id="rect4204"
       inkscape:connector-curvature="0" />
    <path
       inkscape:connector-curvature="0"
       id="path4220"
       d="m 31.616628,1017.3199 c -3.917372,0 -7.070313,3.153 -7.070313,7.0703 0,3.9174 3.152941,7.0723 7.070313,7.0723 l 39.404297,0 0,-14.1426 -39.404297,0 z"
       style="opacity:1;fill:#ffffff;fill-opacity:0.31372549;fill-rule:evenodd;stroke:none;stroke-width:7;stroke-miterlimit:4;stroke-dasharray:none;stroke-opacity:1" />
    <path
       style="opacity:1;fill:#ffffff;fill-opacity:0.31372549;fill-rule:evenodd;stroke:none;stroke-width:7;stroke-miterlimit:4;stroke-dasharray:none;stroke-opacity:1"
       d="m 82.126953,912.50154 a 31.878373,47.926231 0 0 0 -30.699219,35.02539 l 18.251954,0 a 12.937035,47.926231 0 0 1 12.447265,-35.02539 z m -31.859375,47.06054 a 31.878373,47.926231 0 0 0 -0.01953,0.86524 l 0,20.19726 18.941406,0 0,-20.19726 a 12.937035,47.926231 0 0 1 0.01172,-0.86524 l -18.933594,0 z"
       id="path4294"
       inkscape:connector-curvature="0" />
  </g>
</svg>
