<?xml version="1.0" encoding="UTF-8" standalone="no"?>
<!-- Created with Inkscape (http://www.inkscape.org/) -->

<svg
   xmlns:dc="http://purl.org/dc/elements/1.1/"
   xmlns:cc="http://creativecommons.org/ns#"
   xmlns:rdf="http://www.w3.org/1999/02/22-rdf-syntax-ns#"
   xmlns:svg="http://www.w3.org/2000/svg"
   xmlns="http://www.w3.org/2000/svg"
   xmlns:sodipodi="http://sodipodi.sourceforge.net/DTD/sodipodi-0.dtd"
   xmlns:inkscape="http://www.inkscape.org/namespaces/inkscape"
   width="50mm"
   height="50mm"
   viewBox="0 0 177.16535 177.16535"
   id="svg2"
   version="1.1"
   inkscape:version="0.91 r"
   sodipodi:docname="catbell_bare_green_prog_10.svg">
  <defs
     id="defs4" />
  <sodipodi:namedview
     id="base"
     pagecolor="#ffffff"
     bordercolor="#666666"
     borderopacity="1.0"
     inkscape:pageopacity="0.0"
     inkscape:pageshadow="2"
     inkscape:zoom="1.979899"
     inkscape:cx="21.981751"
     inkscape:cy="94.779667"
     inkscape:document-units="px"
     inkscape:current-layer="layer4"
     showgrid="false"
     inkscape:object-paths="true"
     inkscape:snap-intersection-paths="true"
     inkscape:object-nodes="true"
     inkscape:snap-smooth-nodes="true"
     inkscape:snap-midpoints="true"
     inkscape:snap-nodes="true"
     inkscape:window-width="1366"
     inkscape:window-height="696"
     inkscape:window-x="0"
     inkscape:window-y="24"
     inkscape:window-maximized="1"
     inkscape:snap-bbox="true"
     inkscape:bbox-paths="true"
     inkscape:bbox-nodes="true"
     inkscape:snap-bbox-edge-midpoints="true"
     inkscape:snap-bbox-midpoints="true"
     inkscape:snap-object-midpoints="true"
     inkscape:snap-center="false"
     inkscape:snap-others="false"
     showguides="false" />
  <metadata
     id="metadata7">
    <rdf:RDF>
      <cc:Work
         rdf:about="">
        <dc:format>image/svg+xml</dc:format>
        <dc:type
           rdf:resource="http://purl.org/dc/dcmitype/StillImage" />
        <dc:title></dc:title>
      </cc:Work>
    </rdf:RDF>
  </metadata>
  <g
     inkscape:label="base_circle"
     inkscape:groupmode="layer"
     id="layer1"
     transform="translate(0,-875.19685)"
     style="display:inline">
    <circle
       style="opacity:1;fill:#3ad36a;fill-opacity:1;fill-rule:evenodd;stroke:none;stroke-width:7;stroke-miterlimit:4;stroke-dasharray:none;stroke-opacity:1"
       id="path4136"
       cx="88.582664"
       cy="963.77954"
       r="88.388351" />
    <circle
       style="opacity:1;fill:#ffffff;fill-opacity:1;fill-rule:evenodd;stroke:none;stroke-width:7;stroke-miterlimit:4;stroke-dasharray:none;stroke-opacity:1"
       id="path4330"
       cx="88.582664"
       cy="963.77954"
       r="65.657051" />
    <circle
       r="41.808338"
       cy="963.77954"
       cx="88.582664"
       id="circle4358"
       style="opacity:1;fill:#3ad36a;fill-opacity:1;fill-rule:evenodd;stroke:none;stroke-width:7;stroke-miterlimit:4;stroke-dasharray:none;stroke-opacity:1" />
    <circle
       style="opacity:1;fill:#ffb200;fill-opacity:1;fill-rule:evenodd;stroke:none;stroke-width:7;stroke-miterlimit:4;stroke-dasharray:none;stroke-opacity:1"
       id="circle4386"
       cx="88.582664"
       cy="963.77954"
       r="17.821531" />
    <path
       style="opacity:1;fill:#50a35a;fill-opacity:0.39215687;fill-rule:evenodd;stroke:none;stroke-width:7;stroke-miterlimit:4;stroke-dasharray:none;stroke-opacity:1"
       d="m 88.582354,875.39214 a 88.388362,88.388362 0 0 0 -7.54297,0.37694 88.388373,88.388373 0 0 1 7.54297,-0.37694 z m 5.00781,0.25 a 88.388373,88.388373 0 0 1 4.933588,0.35937 88.388362,88.388362 0 0 0 -4.933588,-0.35937 z m -16.9043,0.65625 a 88.388362,88.388362 0 0 0 -4.39648,0.66405 88.388373,88.388373 0 0 1 4.39648,-0.66405 z m 25.037116,0.1875 a 88.388373,88.388373 0 0 1 5.70508,0.99609 88.388362,88.388362 0 0 0 -5.70508,-0.99609 z m -33.722666,1.43944 a 88.388362,88.388362 0 0 0 -4.28906,1.0957 88.388373,88.388373 0 0 1 4.28906,-1.0957 z m 41.736336,0.14648 a 88.388373,88.388373 0 0 1 6.39258,1.78908 88.388362,88.388362 0 0 0 -6.39258,-1.78908 z m 7.86133,2.32422 a 88.388373,88.388373 0 0 1 6.94725,2.71875 88.388362,88.388362 0 0 0 -6.94725,-2.71875 z m -58.060556,0.01 a 88.388362,88.388362 0 0 0 -4.17187,1.52344 88.388373,88.388373 0 0 1 4.17187,-1.52344 z m 65.673826,3.0293 a 88.388373,88.388373 0 0 1 7.3457,3.75781 88.388362,88.388362 0 0 0 -7.3457,-3.75781 z m -73.845696,0.28516 a 88.388362,88.388362 0 0 0 -4.00195,1.93359 88.388373,88.388373 0 0 1 4.00195,-1.93359 z m 81.203116,3.47852 -44.212886,76.57811 44.197266,76.55088 a 88.388362,88.388362 0 0 0 44.41797,-76.54888 88.388362,88.388362 0 0 0 -44.40235,-76.58011 z m -89.037096,0.65234 a 88.388362,88.388362 0 0 0 -3.74805,2.29882 88.388373,88.388373 0 0 1 3.74805,-2.29882 z m -7.34766,4.87109 a 88.388362,88.388362 0 0 0 -3.52344,2.67968 88.388373,88.388373 0 0 1 3.52344,-2.67968 z m -6.82031,5.57618 a 88.388362,88.388362 0 0 0 -3.24219,3.02148 88.388373,88.388373 0 0 1 3.24219,-3.02148 z m -6.27539,6.27539 a 88.388362,88.388362 0 0 0 -2.875001,3.27344 88.388373,88.388373 0 0 1 2.875001,-3.27344 z m -5.587901,6.83984 a 88.388362,88.388362 0 0 0 -2.54101,3.55469 88.388373,88.388373 0 0 1 2.54101,-3.55469 z m -4.85742,7.33398 a 88.388362,88.388362 0 0 0 -2.1875,3.8125 88.388373,88.388373 0 0 1 2.1875,-3.8125 z m -4.1132802,7.80079 a 88.388362,88.388362 0 0 0 -1.8007797,4.02148 88.388373,88.388373 0 0 1 1.8007797,-4.02148 z m -3.3183598,8.17967 a 88.388362,88.388362 0 0 0 -1.38867,4.18165 88.388373,88.388373 0 0 1 1.38867,-4.18165 z m -2.4863298,8.47461 a 88.388362,88.388362 0 0 0 -0.96093,4.28125 88.388373,88.388373 0 0 1 0.96093,-4.28125 z m -1.6269498,8.69139 a 88.388362,88.388362 0 0 0 -0.52733994,4.34182 88.388373,88.388373 0 0 1 0.52733994,-4.34182 z m -0.90429994,11.88482 a 88.388362,88.388362 0 0 0 0.37696,7.5449 88.388373,88.388373 0 0 1 -0.37696,-7.5449 z m 0.90429994,11.8887 a 88.388362,88.388362 0 0 0 0.6660198,4.4082 88.388373,88.388373 0 0 1 -0.6660198,-4.4082 z m 1.6249998,8.6777 a 88.388362,88.388362 0 0 0 1.0996098,4.3066 88.388373,88.388373 0 0 1 -1.0996098,-4.3066 z m 2.4941398,8.5039 a 88.388362,88.388362 0 0 0 1.5078101,4.1289 88.388373,88.388373 0 0 1 -1.5078101,-4.1289 z m 3.3085998,8.15629 a 88.388362,88.388362 0 0 0 1.9355402,4.0039 88.388373,88.388373 0 0 1 -1.9355402,-4.0039 z m 4.0996002,7.7754 a 88.388362,88.388362 0 0 0 2.3418,3.8203 88.388373,88.388373 0 0 1 -2.3418,-3.8203 z m 4.875,7.3633 a 88.388362,88.388362 0 0 0 2.70508,3.5586 88.388373,88.388373 0 0 1 -2.70508,-3.5586 z m 5.599611,6.8535 a 88.388362,88.388362 0 0 0 3.02149,3.2422 88.388373,88.388373 0 0 1 -3.02149,-3.2422 z m 6.25196,6.252 a 88.388362,88.388362 0 0 0 3.32226,2.9199 88.388373,88.388373 0 0 1 -3.32226,-2.9199 z m 6.80078,5.5625 a 88.388362,88.388362 0 0 0 3.63867,2.6035 88.388373,88.388373 0 0 1 -3.63867,-2.6035 z m 7.34765,4.8769 a 88.388362,88.388362 0 0 0 3.88282,2.2266 88.388373,88.388373 0 0 1 -3.88282,-2.2266 z m 89.001956,0.6661 a 88.388373,88.388373 0 0 1 -9.4043,4.6933 88.388362,88.388362 0 0 0 9.4043,-4.6933 z m -81.191406,3.4589 a 88.388362,88.388362 0 0 0 4.07813,1.8243 88.388373,88.388373 0 0 1 -4.07813,-1.8243 z m 71.619136,1.3086 a 88.388373,88.388373 0 0 1 -7.49804,2.7598 88.388362,88.388362 0 0 0 7.49804,-2.7598 z m -63.451166,2.0078 a 88.388362,88.388362 0 0 0 4.25781,1.4161 88.388373,88.388373 0 0 1 -4.25781,-1.4161 z m 54.857426,1.1153 a 88.388373,88.388373 0 0 1 -6.79492,1.7519 88.388362,88.388362 0 0 0 6.79492,-1.7519 z m -46.400396,1.373 a 88.388362,88.388362 0 0 0 4.38086,0.9824 88.388373,88.388373 0 0 1 -4.38086,-0.9824 z m 37.539066,0.8438 a 88.388373,88.388373 0 0 1 -5.972658,0.9179 88.388362,88.388362 0 0 0 5.972658,-0.9179 z m -28.851566,0.789 a 88.388362,88.388362 0 0 0 4.44141,0.5391 88.388373,88.388373 0 0 1 -4.44141,-0.5391 z m 19.794918,0.5039 a 88.388373,88.388373 0 0 1 -7.835928,0.4122 88.388362,88.388362 0 0 0 7.835928,-0.4122 z"
       id="circle4622"
       inkscape:connector-curvature="0" />
    <path
       style="opacity:1;fill:#ffffff;fill-opacity:0.39215686;fill-rule:evenodd;stroke:none;stroke-width:7;stroke-miterlimit:4;stroke-dasharray:none;stroke-opacity:1"
       d="M 88.355469,0.203125 A 88.388362,88.388362 0 0 0 0.19335938,88.582031 88.388362,88.388362 0 0 0 88.355469,176.95898 l 0,-176.755855 z"
       transform="translate(0,875.19685)"
       id="circle4527"
       inkscape:connector-curvature="0" />
    <path
       style="opacity:1;fill:#04321d;fill-opacity:0.54901963;fill-rule:evenodd;stroke:none;stroke-width:7;stroke-miterlimit:4;stroke-dasharray:none;stroke-opacity:1"
       d="m 88.581689,875.39119 a 88.388373,88.388373 0 0 0 -6.312499,0.23046 l 0,13.40625 12.626949,0 0,-13.3203 a 88.388373,88.388373 0 0 0 -6.31445,-0.31641 z"
       id="rect4206"
       inkscape:connector-curvature="0"
       inkscape:transform-center-x="-0.22633467"
       inkscape:transform-center-y="-81.568801" />
    <path
       inkscape:transform-center-y="-0.22633329"
       inkscape:transform-center-x="81.568801"
       inkscape:connector-curvature="0"
       id="path4210"
       d="m -0.03081842,963.55298 a 88.388373,88.388373 0 0 0 0.23046,6.3125 l 13.40625042,0 0,-12.62695 -13.32030042,0 a 88.388373,88.388373 0 0 0 -0.31641,6.31445 z"
       style="opacity:1;fill:#04321d;fill-opacity:0.54901963;fill-rule:evenodd;stroke:none;stroke-width:7;stroke-miterlimit:4;stroke-dasharray:none;stroke-opacity:1" />
    <path
       inkscape:transform-center-y="81.568819"
       inkscape:transform-center-x="0.22633437"
       inkscape:connector-curvature="0"
       id="path4212"
       d="m 88.130971,1052.1655 a 88.388373,88.388373 0 0 0 6.312499,-0.2305 l 0,-13.4062 -12.626949,0 0,13.3203 a 88.388373,88.388373 0 0 0 6.31445,0.3164 z"
       style="opacity:1;fill:#04321d;fill-opacity:0.54901963;fill-rule:evenodd;stroke:none;stroke-width:7;stroke-miterlimit:4;stroke-dasharray:none;stroke-opacity:1" />
    <path
       inkscape:transform-center-y="0.22633675"
       inkscape:transform-center-x="-81.568803"
       inkscape:connector-curvature="0"
       id="path4214"
       d="m 176.74348,964.0037 a 88.388373,88.388373 0 0 0 -0.23046,-6.3125 l -13.40625,0 0,12.62695 13.3203,0 a 88.388373,88.388373 0 0 0 0.31641,-6.31445 z"
       style="opacity:1;fill:#04321d;fill-opacity:0.54901963;fill-rule:evenodd;stroke:none;stroke-width:7;stroke-miterlimit:4;stroke-dasharray:none;stroke-opacity:1" />
  </g>
  <g
     inkscape:groupmode="layer"
     id="layer4"
     inkscape:label="progress"
     style="display:inline">
    <path
       id="circle5423-3"
       style="display:inline;opacity:1;fill:#a078b7;fill-opacity:1;fill-rule:evenodd;stroke:none;stroke-width:7;stroke-miterlimit:4;stroke-dasharray:none;stroke-opacity:1"
       transform="matrix(0,-1,-1,0,0,0)"
       sodipodi:type="arc"
       sodipodi:cx="-88.582664"
       sodipodi:cy="-88.582664"
       sodipodi:rx="65.657043"
       sodipodi:ry="65.657043"
       sodipodi:start="0"
       sodipodi:end="3.9269908"
       d="m -22.925621,-88.582664 a 65.657043,65.657043 0 0 1 -48.66375,63.419833 65.657043,65.657043 0 0 1 -73.853959,-30.591311 65.657043,65.657043 0 0 1 10.43412,-79.255058 l 46.426546,46.426536 z" />
    <circle
       style="display:inline;opacity:1;fill:#ffb200;fill-opacity:1;fill-rule:evenodd;stroke:none;stroke-width:7;stroke-miterlimit:4;stroke-dasharray:none;stroke-opacity:1"
       id="circle4386-6"
       cx="88.582664"
       cy="88.582664"
       r="17.821529" />
  </g>
  <g
     inkscape:groupmode="layer"
     id="layer3"
     inkscape:label="arrows"
     style="display:none">
    <g
       style="display:inline;fill:#9d3a34;fill-opacity:1"
       id="g4466"
       transform="matrix(0.5,-0.8660254,0.8660254,0.5,-540.31715,-409.54146)">
      <rect
         style="opacity:1;fill:#9d3a34;fill-opacity:1;fill-rule:evenodd;stroke:none;stroke-width:7;stroke-miterlimit:4;stroke-dasharray:none;stroke-opacity:1"
         id="rect4468"
         width="82.820412"
         height="10.933071"
         x="-117.05044"
         y="788.0412" />
      <circle
         style="opacity:1;fill:#9d3a34;fill-opacity:1;fill-rule:evenodd;stroke:none;stroke-width:7;stroke-miterlimit:4;stroke-dasharray:none;stroke-opacity:1"
         id="circle4470"
         cx="-117.05044"
         cy="793.50775"
         r="5.466537" />
    </g>
    <g
       id="g4193"
       style="fill:#8a5eaf;fill-opacity:1">
      <path
         style="opacity:1;fill:#8a5eaf;fill-opacity:1;fill-rule:evenodd;stroke:none;stroke-width:7;stroke-miterlimit:4;stroke-dasharray:none;stroke-opacity:1"
         d="m 110.49656,32.374103 15.46498,8.92871 7.69108,-13.321332 -7.7739,-22.2500428 -15.38216,26.6426648 z"
         id="path4474"
         inkscape:connector-curvature="0" />
      <g
         transform="matrix(0.43069352,-0.74598305,0.8660254,0.5,-403.21288,-568.29309)"
         style="fill:#8a5eaf;fill-opacity:1"
         id="g4476">
        <path
           inkscape:connector-curvature="0"
           style="opacity:1;fill:#8a5eaf;fill-opacity:1;fill-rule:evenodd;stroke:none;stroke-width:7;stroke-miterlimit:4;stroke-dasharray:none;stroke-opacity:1"
           d="m -296.42858,754.14789 a 9.2857141,8.9285622 0 0 1 -9.28571,8.92856 9.2857141,8.9285622 0 0 1 -9.28572,-8.92856 9.2857141,8.9285622 0 0 1 9.28572,-8.92856 9.2857141,8.9285622 0 0 1 9.28571,8.92856 z"
           id="path4478" />
        <path
           style="opacity:1;fill:#8a5eaf;fill-opacity:1;fill-rule:evenodd;stroke:none;stroke-width:7;stroke-miterlimit:4;stroke-dasharray:none;stroke-opacity:1"
           d="m -305.71429,763.07646 0,-17.85742 17.85742,0 17.85742,17.85742 -35.71484,0 z"
           id="path4480"
           inkscape:connector-curvature="0" />
      </g>
    </g>
    <g
       style="display:inline;fill:#9d3a34;fill-opacity:1"
       id="g4513"
       transform="matrix(0.8660254,0.5,-0.5,0.8660254,580.28309,-583.90987)">
      <path
         id="rect4494"
         transform="translate(0,875.19685)"
         d="m -89.775391,-52.304688 0,10.931641 37.248047,0 0,-10.931641 -37.248047,0 z"
         style="opacity:1;fill:#9d3a34;fill-opacity:1;fill-rule:evenodd;stroke:none;stroke-width:7;stroke-miterlimit:4;stroke-dasharray:none;stroke-opacity:1"
         inkscape:connector-curvature="0" />
      <circle
         style="opacity:1;fill:#9d3a34;fill-opacity:1;fill-rule:evenodd;stroke:none;stroke-width:7;stroke-miterlimit:4;stroke-dasharray:none;stroke-opacity:1"
         id="circle4496"
         cx="-89.776321"
         cy="828.35803"
         r="5.466537" />
    </g>
    <g
       style="display:inline;fill:#8a5eaf;fill-opacity:1"
       transform="matrix(0.74598305,0.43069352,-0.5,0.8660254,728.72325,-411.92447)"
       id="g4498">
      <path
         style="opacity:1;fill:#8a5eaf;fill-opacity:1;fill-rule:evenodd;stroke:none;stroke-width:7;stroke-miterlimit:4;stroke-dasharray:none;stroke-opacity:1"
         d="m -305.71429,745.21903 0,17.85742 17.85742,0 17.85742,-17.85742 -35.71484,0 z"
         id="path4500"
         inkscape:connector-curvature="0" />
      <g
         style="fill:#8a5eaf;fill-opacity:1"
         id="g4502">
        <path
           inkscape:connector-curvature="0"
           style="opacity:1;fill:#8a5eaf;fill-opacity:1;fill-rule:evenodd;stroke:none;stroke-width:7;stroke-miterlimit:4;stroke-dasharray:none;stroke-opacity:1"
           d="m -296.42858,754.14789 a 9.2857141,8.9285622 0 0 1 -9.28571,8.92856 9.2857141,8.9285622 0 0 1 -9.28572,-8.92856 9.2857141,8.9285622 0 0 1 9.28572,-8.92856 9.2857141,8.9285622 0 0 1 9.28571,8.92856 z"
           id="path4504" />
        <path
           style="opacity:1;fill:#8a5eaf;fill-opacity:1;fill-rule:evenodd;stroke:none;stroke-width:7;stroke-miterlimit:4;stroke-dasharray:none;stroke-opacity:1"
           d="m -305.71429,763.07646 0,-17.85742 17.85742,0 17.85742,17.85742 -35.71484,0 z"
           id="path4506"
           inkscape:connector-curvature="0" />
      </g>
    </g>
  </g>
  <g
     inkscape:groupmode="layer"
     id="layer2"
     inkscape:label="hidden"
     style="display:none">
    <g
       transform="translate(423.98372,-781.66249)"
       style="display:inline"
       id="g4462">
      <rect
         y="788.0412"
         x="-117.05044"
         height="10.933071"
         width="82.820412"
         id="rect4388"
         style="opacity:1;fill:#992500;fill-opacity:1;fill-rule:evenodd;stroke:none;stroke-width:7;stroke-miterlimit:4;stroke-dasharray:none;stroke-opacity:1" />
      <circle
         r="5.466537"
         cy="793.50775"
         cx="-117.05044"
         id="path4437"
         style="opacity:1;fill:#992500;fill-opacity:1;fill-rule:evenodd;stroke:none;stroke-width:7;stroke-miterlimit:4;stroke-dasharray:none;stroke-opacity:1" />
    </g>
    <rect
       style="display:inline;opacity:1;fill:#992500;fill-opacity:1;fill-rule:evenodd;stroke:none;stroke-width:7;stroke-miterlimit:4;stroke-dasharray:none;stroke-opacity:1"
       id="rect4439"
       width="35.714283"
       height="17.857141"
       x="176.84088"
       y="-49.300343" />
    <g
       id="g4456"
       transform="matrix(0.86138703,0,0,0.99999998,630.01879,-742.30253)"
       style="display:inline;fill:#b700ff;fill-opacity:1">
      <path
         inkscape:connector-curvature="0"
         id="rect4445"
         d="m -305.71429,745.21903 0,17.85742 17.85742,0 17.85742,-17.85742 -35.71484,0 z"
         style="opacity:1;fill:#b700ff;fill-opacity:1;fill-rule:evenodd;stroke:none;stroke-width:7;stroke-miterlimit:4;stroke-dasharray:none;stroke-opacity:1" />
      <g
         id="g4451"
         style="fill:#b700ff;fill-opacity:1">
        <path
           id="path4441"
           d="m -296.42858,754.14789 a 9.2857141,8.9285622 0 0 1 -9.28571,8.92856 9.2857141,8.9285622 0 0 1 -9.28572,-8.92856 9.2857141,8.9285622 0 0 1 9.28572,-8.92856 9.2857141,8.9285622 0 0 1 9.28571,8.92856 z"
           style="opacity:1;fill:#b700ff;fill-opacity:1;fill-rule:evenodd;stroke:none;stroke-width:7;stroke-miterlimit:4;stroke-dasharray:none;stroke-opacity:1"
           inkscape:connector-curvature="0" />
        <path
           inkscape:connector-curvature="0"
           id="path4449"
           d="m -305.71429,763.07646 0,-17.85742 17.85742,0 17.85742,17.85742 -35.71484,0 z"
           style="opacity:1;fill:#b700ff;fill-opacity:1;fill-rule:evenodd;stroke:none;stroke-width:7;stroke-miterlimit:4;stroke-dasharray:none;stroke-opacity:1" />
      </g>
    </g>
    <g
       style="display:inline"
       id="g4419"
       transform="matrix(0.70710678,0.70710678,-0.70710678,0.70710678,1174.0674,-519.52787)">
      <path
         id="rect4410"
         transform="translate(0,875.19685)"
         d="m -131.32031,86.589844 0,10.933594 45.572263,0 0,-10.933594 -45.572263,0 z"
         style="opacity:1;fill:#992500;fill-opacity:1;fill-rule:evenodd;stroke:none;stroke-width:7;stroke-miterlimit:4;stroke-dasharray:none;stroke-opacity:1"
         inkscape:connector-curvature="0" />
      <path
         style="opacity:1;fill:#7a01c9;fill-opacity:1;fill-rule:evenodd;stroke:none;stroke-width:7;stroke-miterlimit:4;stroke-dasharray:none;stroke-opacity:1"
         d="m -81.482866,950.03935 -8.5293,17.21484 8.5293,17.21485 39.103516,0 -8.529297,-17.21485 8.529297,-17.21484 -10.138672,0 -10.908203,11.71484 0,-11.71484 -18.056641,0 z"
         id="path4412"
         inkscape:connector-curvature="0" />
    </g>
  </g>
</svg>
