<?xml version="1.0" encoding="UTF-8" standalone="no"?>
<!-- Created with Inkscape (http://www.inkscape.org/) -->

<svg
   xmlns:dc="http://purl.org/dc/elements/1.1/"
   xmlns:cc="http://creativecommons.org/ns#"
   xmlns:rdf="http://www.w3.org/1999/02/22-rdf-syntax-ns#"
   xmlns:svg="http://www.w3.org/2000/svg"
   xmlns="http://www.w3.org/2000/svg"
   xmlns:sodipodi="http://sodipodi.sourceforge.net/DTD/sodipodi-0.dtd"
   xmlns:inkscape="http://www.inkscape.org/namespaces/inkscape"
   width="5cm"
   height="5cm"
   viewBox="0 0 177.16535 177.16535"
   id="svg2"
   version="1.1"
   inkscape:version="0.91 r13725"
   sodipodi:docname="delete.svg">
  <defs
     id="defs4" />
  <sodipodi:namedview
     id="base"
     pagecolor="#ffffff"
     bordercolor="#666666"
     borderopacity="1.0"
     inkscape:pageopacity="0.0"
     inkscape:pageshadow="2"
     inkscape:zoom="0.6393424"
     inkscape:cx="24.130484"
     inkscape:cy="200.43366"
     inkscape:document-units="px"
     inkscape:current-layer="layer1"
     showgrid="false"
     units="cm"
     inkscape:showpageshadow="false"
     inkscape:snap-intersection-paths="true"
     inkscape:object-paths="true"
     inkscape:snap-smooth-nodes="true"
     inkscape:object-nodes="true"
     inkscape:snap-center="true"
     inkscape:snap-object-midpoints="true"
     inkscape:snap-bbox="false"
     inkscape:snap-bbox-edge-midpoints="true"
     inkscape:snap-bbox-midpoints="true"
     inkscape:snap-midpoints="true"
     inkscape:bbox-nodes="true"
     inkscape:window-width="1366"
     inkscape:window-height="697"
     inkscape:window-x="-4"
     inkscape:window-y="-4"
     inkscape:window-maximized="1"
     inkscape:snap-nodes="true"
     showguides="true" />
  <metadata
     id="metadata7">
    <rdf:RDF>
      <cc:Work
         rdf:about="">
        <dc:format>image/svg+xml</dc:format>
        <dc:type
           rdf:resource="http://purl.org/dc/dcmitype/StillImage" />
        <dc:title />
      </cc:Work>
    </rdf:RDF>
  </metadata>
  <g
     inkscape:label="Layer 1"
     inkscape:groupmode="layer"
     id="layer1"
     transform="translate(0,-875.19688)">
    <path
       style="opacity:1;fill:#e25243;fill-opacity:1;fill-rule:evenodd;stroke:none;stroke-width:1;stroke-miterlimit:4;stroke-dasharray:none;stroke-opacity:1"
       d="m 25.265289,927.10146 0,86.87714 c 0,21.7409 13.530779,39.2441 30.337891,39.2441 l 65.95897,0 c 16.80711,0 30.33789,-17.5032 30.33789,-39.2441 l 0,-86.87714 -126.634751,0 z"
       id="rect5143"
       inkscape:connector-curvature="0" />
    <path
       style="opacity:1;fill:#e25243;fill-opacity:1;fill-rule:evenodd;stroke:none;stroke-width:1;stroke-miterlimit:4;stroke-dasharray:none;stroke-opacity:1"
       d="M 74.675781 0.31640625 C 69.564244 0.31640625 65.449219 4.429475 65.449219 9.5410156 L 65.449219 12.605469 L 40.71875 12.605469 C 31.179899 12.605469 22.969679 19.818595 19.033203 30.345703 L 13.257812 30.345703 L 13.257812 44.572266 L 16.546875 44.572266 L 160.61914 44.572266 L 163.9082 44.572266 L 163.9082 30.345703 L 158.13281 30.345703 C 154.19636 19.818521 145.98615 12.605469 136.44727 12.605469 L 114.31445 12.605469 L 114.31445 9.5410156 C 114.31445 4.429475 110.19943 0.31640625 105.08789 0.31640625 L 74.675781 0.31640625 z M 75.845703 7.8339844 L 103.91797 7.8339844 C 106.24755 7.8339844 108.12305 9.7094822 108.12305 12.039062 L 108.12305 12.605469 L 71.640625 12.605469 L 71.640625 12.039062 C 71.640625 9.7094822 73.516121 7.8339844 75.845703 7.8339844 z "
       transform="translate(0,875.19688)"
       id="rect5165" />
    <g
       id="g5226"
       transform="translate(-2.135557,0)"
       style="fill:#ffffff;fill-opacity:0.70588237">
      <rect
         ry="10.166698"
         rx="10.166698"
         y="943.23889"
         x="46.141186"
         height="93.846436"
         width="20.333395"
         id="rect5170"
         style="opacity:1;fill:#ffffff;fill-opacity:0.70588237;fill-rule:evenodd;stroke:none;stroke-width:1;stroke-miterlimit:4;stroke-dasharray:none;stroke-opacity:1" />
      <rect
         ry="10.166698"
         rx="10.166698"
         y="943.23889"
         x="80.551521"
         height="93.846428"
         width="20.333393"
         id="rect5170-6"
         style="opacity:1;fill:#ffffff;fill-opacity:0.70588237;fill-rule:evenodd;stroke:none;stroke-width:1;stroke-miterlimit:4;stroke-dasharray:none;stroke-opacity:1" />
      <rect
         ry="10.166698"
         rx="10.166698"
         y="943.23889"
         x="114.96187"
         height="93.846428"
         width="20.333393"
         id="rect5170-0"
         style="opacity:1;fill:#ffffff;fill-opacity:0.70588237;fill-rule:evenodd;stroke:none;stroke-width:1;stroke-miterlimit:4;stroke-dasharray:none;stroke-opacity:1" />
    </g>
    <path
       style="opacity:1;fill:#ffffff;fill-opacity:0.31372549;fill-rule:evenodd;stroke:none;stroke-width:1;stroke-miterlimit:4;stroke-dasharray:none;stroke-opacity:1"
       d="m 25.26529,927.10156 0,86.87694 c 0,21.7409 13.53078,39.2442 30.33789,39.2442 l 32.98047,0 0,-126.12114 -63.31836,0 z"
       id="rect5143-2"
       inkscape:connector-curvature="0" />
    <path
       style="opacity:1;fill:#ffffff;fill-opacity:0.31372549;fill-rule:evenodd;stroke:none;stroke-width:1;stroke-miterlimit:4;stroke-dasharray:none;stroke-opacity:1"
       d="m 74.676757,875.51329 c -5.11154,0 -9.22657,4.11307 -9.22657,9.22461 l 0,3.06445 -24.73046,0 c -9.53886,0 -17.74908,7.21313 -21.68555,17.74024 l -5.77539,0 0,14.22656 3.28906,0 72.03516,0 0,-31.9668 -16.94141,0 0,-0.56641 c 0,-2.32958 1.8755,-4.20507 4.20508,-4.20507 l 12.73633,0 0,-7.51758 -13.90625,0 z"
       id="rect5165-6"
       inkscape:connector-curvature="0" />
  </g>
</svg>
