<?xml version="1.0" encoding="UTF-8" standalone="no"?>
<!-- Created with Inkscape (http://www.inkscape.org/) -->

<svg
   xmlns:dc="http://purl.org/dc/elements/1.1/"
   xmlns:cc="http://creativecommons.org/ns#"
   xmlns:rdf="http://www.w3.org/1999/02/22-rdf-syntax-ns#"
   xmlns:svg="http://www.w3.org/2000/svg"
   xmlns="http://www.w3.org/2000/svg"
   xmlns:sodipodi="http://sodipodi.sourceforge.net/DTD/sodipodi-0.dtd"
   xmlns:inkscape="http://www.inkscape.org/namespaces/inkscape"
   width="5cm"
   height="5cm"
   viewBox="0 0 177.16535 177.16535"
   id="svg2"
   version="1.1"
   inkscape:version="0.92.4 (unknown)"
   sodipodi:docname="delete.svg">
  <defs
     id="defs4" />
  <sodipodi:namedview
     id="base"
     pagecolor="#ffffff"
     bordercolor="#666666"
     borderopacity="1.0"
     inkscape:pageopacity="0.0"
     inkscape:pageshadow="2"
     inkscape:zoom="1.8083334"
     inkscape:cx="-10.549041"
     inkscape:cy="68.885845"
     inkscape:document-units="px"
     inkscape:current-layer="layer1"
     showgrid="false"
     units="cm"
     inkscape:showpageshadow="false"
     inkscape:snap-intersection-paths="true"
     inkscape:object-paths="true"
     inkscape:snap-smooth-nodes="true"
     inkscape:object-nodes="true"
     inkscape:snap-center="true"
     inkscape:snap-object-midpoints="true"
     inkscape:snap-bbox="false"
     inkscape:snap-bbox-edge-midpoints="true"
     inkscape:snap-bbox-midpoints="true"
     inkscape:snap-midpoints="true"
     inkscape:bbox-nodes="true"
     inkscape:window-width="1366"
     inkscape:window-height="723"
     inkscape:window-x="0"
     inkscape:window-y="0"
     inkscape:window-maximized="1"
     inkscape:snap-nodes="true"
     showguides="true" />
  <metadata
     id="metadata7">
    <rdf:RDF>
      <cc:Work
         rdf:about="">
        <dc:format>image/svg+xml</dc:format>
        <dc:type
           rdf:resource="http://purl.org/dc/dcmitype/StillImage" />
        <dc:title />
      </cc:Work>
    </rdf:RDF>
  </metadata>
  <g
     inkscape:label="Layer 1"
     inkscape:groupmode="layer"
     id="layer1"
     transform="translate(0,-875.19688)">
    <g
       id="g2068"
       transform="translate(0.27485332,-0.32920568)">
      <path
         inkscape:connector-curvature="0"
         id="rect5143-6"
         d="m 32.194066,931.08225 v 76.99265 c 0,19.2674 11.991314,34.7791 26.886196,34.7791 h 58.454488 c 14.89489,0 26.8862,-15.5117 26.8862,-34.7791 v -76.99265 z"
         style="opacity:1;fill:#e25243;fill-opacity:1;fill-rule:evenodd;stroke:#515151;stroke-width:11.25;stroke-miterlimit:4;stroke-dasharray:none;stroke-opacity:1" />
      <path
         inkscape:connector-curvature="0"
         id="rect5143"
         d="m 32.194069,931.08224 v 76.99266 c 0,19.2674 11.991314,34.7791 26.886196,34.7791 h 58.454485 c 14.89488,0 26.8862,-15.5117 26.8862,-34.7791 v -76.99266 z"
         style="opacity:1;fill:#e25243;fill-opacity:1;fill-rule:evenodd;stroke:none;stroke-width:0.88622499;stroke-miterlimit:4;stroke-dasharray:none;stroke-opacity:1" />
      <path
         id="rect5165-7"
         d="m 75.98289,885.36352 c -4.52997,0 -8.17681,3.6451 -8.17681,8.17508 v 2.71579 H 45.88932 c -8.453566,0 -15.729668,6.39245 -19.218268,15.72184 h -5.1183 v 12.60794 h 2.91485 127.680428 2.91486 v -12.60794 h -5.1183 c -3.48858,-9.32945 -10.76468,-15.72184 -19.21826,-15.72184 h -19.61466 v -2.71579 c 0,-4.52998 -3.64683,-8.17508 -8.17681,-8.17508 z m 1.03682,6.66226 h 24.87834 c 2.06453,0 3.72665,1.66212 3.72665,3.72665 v 0.50196 H 73.29306 v -0.50196 c 0,-2.06453 1.66211,-3.72665 3.72665,-3.72665 z"
         style="opacity:1;fill:#e25243;fill-opacity:1;fill-rule:evenodd;stroke:#515151;stroke-width:11.25;stroke-linejoin:round;stroke-miterlimit:4;stroke-dasharray:none;stroke-opacity:1"
         inkscape:connector-curvature="0" />
      <path
         id="rect5165"
         d="m 75.982881,885.36352 c -4.529972,0 -8.17681,3.6451 -8.17681,8.17508 v 2.71579 H 45.889312 c -8.453568,0 -15.72967,6.39245 -19.218274,15.72184 h -5.118296 v 12.60794 h 2.91485 127.680438 2.91485 v -12.60794 h -5.1183 c -3.48858,-9.32945 -10.76467,-15.72184 -19.21826,-15.72184 h -19.61466 v -2.71579 c 0,-4.52998 -3.64683,-8.17508 -8.17681,-8.17508 z m 1.036814,6.66226 h 24.878345 c 2.06453,0 3.72665,1.66212 3.72665,3.72665 v 0.50196 H 73.29305 v -0.50196 c 0,-2.06453 1.662111,-3.72665 3.726645,-3.72665 z"
         style="opacity:1;fill:#e25243;fill-opacity:1;fill-rule:evenodd;stroke:none;stroke-width:0.88622499;stroke-miterlimit:4;stroke-dasharray:none;stroke-opacity:1"
         inkscape:connector-curvature="0" />
      <g
         style="fill:#ffffff;fill-opacity:0.70588235"
         transform="matrix(0.88622498,0,0,0.88622498,7.9107543,109.46177)"
         id="g5226">
        <rect
           style="opacity:1;fill:#ffffff;fill-opacity:0.70588235;fill-rule:evenodd;stroke:none;stroke-width:1;stroke-miterlimit:4;stroke-dasharray:none;stroke-opacity:1"
           id="rect5170"
           width="20.333395"
           height="93.846436"
           x="46.141186"
           y="943.23889"
           rx="10.166698"
           ry="10.166698" />
        <rect
           style="opacity:1;fill:#ffffff;fill-opacity:0.70588235;fill-rule:evenodd;stroke:none;stroke-width:1;stroke-miterlimit:4;stroke-dasharray:none;stroke-opacity:1"
           id="rect5170-6"
           width="20.333393"
           height="93.846428"
           x="80.551521"
           y="943.23889"
           rx="10.166698"
           ry="10.166698" />
        <rect
           style="opacity:1;fill:#ffffff;fill-opacity:0.70588235;fill-rule:evenodd;stroke:none;stroke-width:1;stroke-miterlimit:4;stroke-dasharray:none;stroke-opacity:1"
           id="rect5170-0"
           width="20.333393"
           height="93.846428"
           x="114.96187"
           y="943.23889"
           rx="10.166698"
           ry="10.166698" />
      </g>
      <path
         inkscape:connector-curvature="0"
         id="rect5143-2"
         d="m 32.194069,931.08233 v 76.99247 c 0,19.2674 11.991316,34.7792 26.886196,34.7792 H 88.308382 V 931.08233 Z"
         style="opacity:1;fill:#ffffff;fill-opacity:0.31372549;fill-rule:evenodd;stroke:none;stroke-width:0.88622499;stroke-miterlimit:4;stroke-dasharray:none;stroke-opacity:1" />
      <path
         inkscape:connector-curvature="0"
         id="rect5165-6"
         d="m 75.983746,885.36352 c -4.529975,0 -8.176817,3.6451 -8.176817,8.17508 v 2.71579 H 45.890178 c -8.453576,0 -15.729679,6.39246 -19.218277,15.72184 h -5.118294 v 12.60794 h 2.914847 63.839358 V 896.25439 H 73.293911 v -0.50197 c 0,-2.06453 1.662115,-3.72663 3.726647,-3.72663 h 11.287254 v -6.66227 z"
         style="opacity:1;fill:#ffffff;fill-opacity:0.31372549;fill-rule:evenodd;stroke:none;stroke-width:0.88622499;stroke-miterlimit:4;stroke-dasharray:none;stroke-opacity:1" />
    </g>
  </g>
</svg>
