<?xml version="1.0" encoding="UTF-8" standalone="no"?>
<!-- Created with Inkscape (http://www.inkscape.org/) -->

<svg
   xmlns:dc="http://purl.org/dc/elements/1.1/"
   xmlns:cc="http://creativecommons.org/ns#"
   xmlns:rdf="http://www.w3.org/1999/02/22-rdf-syntax-ns#"
   xmlns:svg="http://www.w3.org/2000/svg"
   xmlns="http://www.w3.org/2000/svg"
   xmlns:sodipodi="http://sodipodi.sourceforge.net/DTD/sodipodi-0.dtd"
   xmlns:inkscape="http://www.inkscape.org/namespaces/inkscape"
   width="50mm"
   height="50mm"
   viewBox="0 0 177.16535 177.16535"
   id="svg2"
   version="1.1"
   inkscape:version="0.91 r13725"
   sodipodi:docname="help.svg">
  <defs
     id="defs4" />
  <sodipodi:namedview
     id="base"
     pagecolor="#ffffff"
     bordercolor="#666666"
     borderopacity="1.0"
     inkscape:pageopacity="0.0"
     inkscape:pageshadow="2"
     inkscape:zoom="0.49497475"
     inkscape:cx="-335.17666"
     inkscape:cy="247.82712"
     inkscape:document-units="px"
     inkscape:current-layer="layer1"
     showgrid="false"
     inkscape:showpageshadow="false"
     inkscape:snap-nodes="true"
     inkscape:object-paths="true"
     inkscape:snap-intersection-paths="true"
     inkscape:object-nodes="true"
     inkscape:snap-smooth-nodes="false"
     inkscape:snap-midpoints="true"
     inkscape:snap-object-midpoints="true"
     inkscape:snap-center="true"
     inkscape:window-width="1366"
     inkscape:window-height="697"
     inkscape:window-x="-4"
     inkscape:window-y="-4"
     inkscape:window-maximized="1" />
  <metadata
     id="metadata7">
    <rdf:RDF>
      <cc:Work
         rdf:about="">
        <dc:format>image/svg+xml</dc:format>
        <dc:type
           rdf:resource="http://purl.org/dc/dcmitype/StillImage" />
        <dc:title />
      </cc:Work>
    </rdf:RDF>
  </metadata>
  <g
     inkscape:groupmode="layer"
     id="layer1"
     inkscape:label="Layer 1 copy 1"
     style="display:inline">
    <path
       style="opacity:1;fill:#ffffff;fill-opacity:1;stroke:none;stroke-opacity:1"
       d="M 88.582031 1.4570312 A 87.125656 87.125656 0 0 0 1.4570312 88.582031 A 87.125656 87.125656 0 0 0 88.582031 175.70898 A 87.125656 87.125656 0 0 0 175.70898 88.582031 A 87.125656 87.125656 0 0 0 88.582031 1.4570312 z M 88.582031 44.136719 A 44.446713 44.446713 0 0 1 133.0293 88.582031 A 44.446713 44.446713 0 0 1 88.582031 133.0293 A 44.446713 44.446713 0 0 1 44.136719 88.582031 A 44.446713 44.446713 0 0 1 88.582031 44.136719 z "
       id="path8172" />
    <path
       style="opacity:1;fill:#9e453c;fill-opacity:1;stroke:none;stroke-opacity:1"
       d="m 88.582031,1.455081 a 87.125672,87.125672 0 0 0 -43.52148,11.740235 l 21.32617,36.941406 a 44.446721,44.446721 0 0 1 22.19531,-6.001953 44.446721,44.446721 0 0 1 22.205079,5.990234 L 132.0918,13.222659 A 87.125672,87.125672 0 0 0 88.582031,1.455081 Z"
       id="path8752"
       inkscape:connector-curvature="0" />
    <path
       inkscape:connector-curvature="0"
       id="path8754"
       d="m 88.582031,175.70898 a 87.125672,87.125672 0 0 1 -43.52148,-11.74023 l 21.32617,-36.94141 a 44.446721,44.446721 0 0 0 22.19531,6.00195 44.446721,44.446721 0 0 0 22.205089,-5.99023 l 21.30468,36.90234 a 87.125672,87.125672 0 0 1 -43.509769,11.76758 z"
       style="opacity:1;fill:#9e453c;fill-opacity:1;stroke:none;stroke-opacity:1" />
    <path
       style="opacity:1;fill:#9e453c;fill-opacity:1;stroke:none;stroke-opacity:1"
       d="M 1.4571812,88.421024 A 87.125672,87.125672 0 0 1 13.197411,44.899544 l 36.941414,21.32617 a 44.446721,44.446721 0 0 0 -6.00195,22.19531 44.446721,44.446721 0 0 0 5.99023,22.205076 L 13.224761,131.93078 A 87.125672,87.125672 0 0 1 1.4571802,88.421024 Z"
       id="path8756"
       inkscape:connector-curvature="0" />
    <path
       inkscape:connector-curvature="0"
       id="path8758"
       d="m 175.70899,88.582032 a 87.125672,87.125672 0 0 1 -11.74023,43.521478 l -36.94141,-21.32617 a 44.446721,44.446721 0 0 0 6.00195,-22.195308 44.446721,44.446721 0 0 0 -5.99023,-22.205079 l 36.90234,-21.30468 a 87.125672,87.125672 0 0 1 11.76758,43.509759 z"
       style="opacity:1;fill:#9e453c;fill-opacity:1;stroke:none;stroke-opacity:1" />
    <path
       style="opacity:1;fill:#e25243;fill-opacity:1;stroke:none;stroke-opacity:1"
       d="m 163.94143,45.072263 -23.57422,13.609375 a 59.851065,59.851065 0 0 1 8.0664,29.902343 59.851065,59.851065 0 0 1 -8.08203,29.884769 l 23.61719,13.63477 A 87.12568,87.12568 0 0 0 175.709,88.582028 87.12568,87.12568 0 0 0 163.94143,45.072263 Z m -36.33789,22.320312 a 44.446725,44.446725 0 0 1 1.66406,3.429688 44.446717,44.446717 0 0 0 -1.66406,-3.429688 z m 1.96484,4.101563 a 44.446725,44.446725 0 0 1 1.19922,3.267578 44.446717,44.446717 0 0 0 -1.19922,-3.267578 z m 1.5332,4.271484 a 44.446725,44.446725 0 0 1 0.79102,3.074219 44.446717,44.446717 0 0 0 -0.79102,-3.074219 z m 1.08986,4.40625 a 44.446725,44.446725 0 0 1 0.42578,2.78125 44.446717,44.446717 0 0 0 -0.42578,-2.78125 z m 0.63476,4.517578 a 44.446725,44.446725 0 0 1 0.20312,3.892578 44.446717,44.446717 0 0 0 -0.20312,-3.892578 z m 0.0781,6.388672 a 44.446725,44.446725 0 0 1 -0.19922,2.619141 44.446717,44.446717 0 0 0 0.19922,-2.619141 z m -0.4043,3.96875 a 44.446725,44.446725 0 0 1 -0.5586,3.158203 44.446717,44.446717 0 0 0 0.5586,-3.158203 z m -0.76759,3.976563 a 44.446725,44.446725 0 0 1 -1.01953,3.603515 44.446717,44.446717 0 0 0 1.01953,-3.603515 z m -1.11328,3.861335 a 44.446725,44.446725 0 0 1 -3.5918,7.89257 l 0.0117,0.008 a 44.446717,44.446717 0 0 0 3.58008,-7.90039 z"
       id="path8784"
       inkscape:connector-curvature="0" />
    <path
       style="opacity:1;fill:#e25243;fill-opacity:1;stroke:none;stroke-opacity:1"
       d="M 88.582037,1.4619175 A 87.12568,87.12568 0 0 0 45.060553,13.202151 l 13.625,23.601562 A 59.851065,59.851065 0 0 1 88.58399,28.73926 59.851065,59.851065 0 0 1 118.4707,36.823244 L 132.0918,13.229495 A 87.12568,87.12568 0 0 0 88.582037,1.4619175 Z m 0,42.6796865 a 44.446725,44.446725 0 0 1 22.187493,5.980468 44.446717,44.446717 0 0 0 -22.187493,-5.980468 z m -1.59375,0.05664 a 44.446717,44.446717 0 0 0 -2.951172,0.22461 44.446725,44.446725 0 0 1 2.951172,-0.22461 z m -4.609375,0.425782 a 44.446717,44.446717 0 0 0 -2.951172,0.523437 44.446725,44.446725 0 0 1 2.951172,-0.523437 z m -4.179687,0.798828 A 44.446717,44.446717 0 0 0 74.89649,46.3584 44.446725,44.446725 0 0 1 78.199225,45.422854 Z m -4.072266,1.191406 a 44.446717,44.446717 0 0 0 -3.554687,1.40039 44.446725,44.446725 0 0 1 3.554687,-1.40039 z m -3.976562,1.589844 a 44.446717,44.446717 0 0 0 -3.736329,1.925781 44.446725,44.446725 0 0 1 3.736329,-1.925781 z"
       id="path8786"
       inkscape:connector-curvature="0" />
    <path
       style="opacity:1;fill:#e25243;fill-opacity:1;stroke:none;stroke-opacity:1"
       d="M 13.203277,44.899537 A 87.12568,87.12568 0 0 0 1.4630421,88.421021 87.12568,87.12568 0 0 0 13.23062,131.93079 l 23.501953,-13.56836 a 59.851065,59.851065 0 0 1 -7.99414,-29.7793 59.851065,59.851065 0 0 1 8.152344,-30.009765 L 13.203277,44.899537 Z M 49.716949,67.05774 a 44.446717,44.446717 0 0 0 -0.451172,0.875 44.446725,44.446725 0 0 1 0.451172,-0.875 z m -1.923829,3.919922 a 44.446717,44.446717 0 0 0 -0.472656,1.199218 44.446725,44.446725 0 0 1 0.472656,-1.199218 z m -1.527343,4.089843 a 44.446717,44.446717 0 0 0 -0.417969,1.476563 44.446725,44.446725 0 0 1 0.417969,-1.476563 z m -1.126954,4.257813 a 44.446717,44.446717 0 0 0 -0.300781,1.693359 44.446725,44.446725 0 0 1 0.300781,-1.693359 z m -0.695312,4.302734 a 44.446717,44.446717 0 0 0 -0.154297,2.029297 44.446725,44.446725 0 0 1 0.154297,-2.029297 z m -0.296875,4.871094 a 44.446717,44.446717 0 0 0 -0.0039,0.08203 44.446717,44.446717 0 0 0 0.216797,4.011719 44.446725,44.446725 0 0 1 -0.212891,-4.09375 z m 0.314453,4.9375 a 44.446717,44.446717 0 0 0 5.615234,17.222664 l 0.05664,-0.0332 A 44.446725,44.446725 0 0 1 44.461089,93.436646 Z"
       id="path8788"
       inkscape:connector-curvature="0" />
    <path
       style="opacity:1;fill:#e25243;fill-opacity:1;stroke:none;stroke-opacity:1"
       d="m 66.38672,127.02735 -0.0078,0.0117 a 44.446717,44.446717 0 0 0 7.898438,3.57617 44.446725,44.446725 0 0 1 -7.890625,-3.58789 z m 43.38476,0.57618 a 44.446725,44.446725 0 0 1 -3.42968,1.66406 44.446717,44.446717 0 0 0 3.42968,-1.66406 z m -4.10156,1.96484 a 44.446725,44.446725 0 0 1 -3.26758,1.19922 44.446717,44.446717 0 0 0 3.26758,-1.19922 z m -31.13281,1.14258 a 44.446717,44.446717 0 0 0 3.587891,1.01562 44.446725,44.446725 0 0 1 -3.587891,-1.01562 z m 26.86133,0.39062 a 44.446725,44.446725 0 0 1 -3.07422,0.79102 44.446717,44.446717 0 0 0 3.07422,-0.79102 z m -22.433595,0.83985 a 44.446717,44.446717 0 0 0 3.152344,0.55859 44.446725,44.446725 0 0 1 -3.152344,-0.55859 z m 18.027344,0.25 a 44.446725,44.446725 0 0 1 -2.78125,0.42578 44.446717,44.446717 0 0 0 2.78125,-0.42578 z m -13.525391,0.51367 a 44.446717,44.446717 0 0 0 2.619141,0.19922 44.446725,44.446725 0 0 1 -2.619141,-0.19922 z m 9.007812,0.12109 a 44.446725,44.446725 0 0 1 -3.892578,0.20313 44.446717,44.446717 0 0 0 3.892578,-0.20313 z m -33.779298,7.52344 -13.634765,23.61914 A 87.12568,87.12568 0 0 0 88.582032,175.70899 87.12568,87.12568 0 0 0 132.0918,163.94142 L 118.48242,140.3672 a 59.851065,59.851065 0 0 1 -29.898435,8.0664 59.851065,59.851065 0 0 1 -29.888672,-8.08398 z"
       id="path8790"
       inkscape:connector-curvature="0" />
    <path
       style="opacity:1;fill:#ffffff;fill-opacity:0.3137255;stroke:none;stroke-opacity:1"
       d="M 88.580078 1.4570312 A 87.125664 87.125664 0 0 0 1.4570312 88.582031 A 87.125664 87.125664 0 0 0 88.580078 175.70898 L 88.580078 133.0293 A 44.446717 44.446717 0 0 1 44.136719 88.582031 A 44.446717 44.446717 0 0 1 88.580078 44.136719 L 88.580078 1.4570312 z "
       id="path4156" />
  </g>
  <g
     inkscape:groupmode="layer"
     id="layer2"
     inkscape:label="Hidden"
     style="display:none">
    <circle
       r="59.851051"
       cy="197.81662"
       cx="-10.990192"
       id="circle8736"
       style="display:inline;opacity:1;fill:#1653d6;fill-opacity:0.43575416;stroke:none;stroke-opacity:1" />
    <circle
       r="44.446705"
       cy="197.81564"
       cx="-10.990604"
       id="circle8738"
       style="display:inline;opacity:1;fill:#d62a16;fill-opacity:1;stroke:none;stroke-opacity:1" />
    <path
       style="display:inline;opacity:1;fill:#000000;fill-opacity:0.39215686;stroke:none;stroke-opacity:1"
       d="M 32.166326,-55.82707 A 59.851055,59.851055 0 0 0 -27.685228,4.0244896 59.851055,59.851055 0 0 0 32.166326,63.87409 59.851055,59.851055 0 0 0 92.015936,4.0244896 59.851055,59.851055 0 0 0 32.166326,-55.82707 Z m -0.002,15.402343 A 44.446709,44.446709 0 0 1 76.611646,4.0225296 44.446709,44.446709 0 0 1 32.164376,48.4698 44.446709,44.446709 0 0 1 -12.280929,4.0225296 44.446709,44.446709 0 0 1 32.164376,-40.424727 Z"
       id="circle8176"
       inkscape:connector-curvature="0" />
    <path
       inkscape:connector-curvature="0"
       style="display:inline;opacity:1;fill:#e25243;fill-opacity:1;stroke:none;stroke-opacity:1"
       d="M 361.65179,-17.82179 324.71039,3.5063322 A 87.125664,87.125664 0 0 0 400.0932,47.107892 87.125664,87.125664 0 0 0 475.45452,3.4907122 L 438.55022,-17.81593 A 44.446717,44.446717 0 0 1 400.0932,4.4282122 44.446717,44.446717 0 0 1 361.65179,-17.82179 Z"
       id="path8741" />
    <path
       inkscape:connector-curvature="0"
       id="path8769"
       d="m 293.52407,-117.04125 a 59.851055,59.851055 0 0 0 -59.85156,59.851562 59.851055,59.851055 0 0 0 59.85156,59.8496002 59.851055,59.851055 0 0 0 59.84961,-59.8496002 59.851055,59.851055 0 0 0 -59.84961,-59.851562 z m -0.002,15.40235 a 44.446709,44.446709 0 0 1 44.44732,44.447252 44.446709,44.446709 0 0 1 -44.44727,44.44727 44.446709,44.446709 0 0 1 -44.44531,-44.44727 44.446709,44.446709 0 0 1 44.44531,-44.447252 z"
       style="display:inline;opacity:1;fill:#000000;fill-opacity:0.39215686;stroke:none;stroke-opacity:1" />
  </g>
</svg>
