<?xml version="1.0" encoding="UTF-8" standalone="no"?>
<!-- Created with Inkscape (http://www.inkscape.org/) -->

<svg
   xmlns:dc="http://purl.org/dc/elements/1.1/"
   xmlns:cc="http://creativecommons.org/ns#"
   xmlns:rdf="http://www.w3.org/1999/02/22-rdf-syntax-ns#"
   xmlns:svg="http://www.w3.org/2000/svg"
   xmlns="http://www.w3.org/2000/svg"
   xmlns:sodipodi="http://sodipodi.sourceforge.net/DTD/sodipodi-0.dtd"
   xmlns:inkscape="http://www.inkscape.org/namespaces/inkscape"
   width="50mm"
   height="50mm"
   viewBox="0 0 177.16535 177.16535"
   id="svg2"
   version="1.1"
   inkscape:version="0.92.4 (unknown)"
   sodipodi:docname="help.svg">
  <defs
     id="defs4" />
  <sodipodi:namedview
     id="base"
     pagecolor="#ffffff"
     bordercolor="#666666"
     borderopacity="1.0"
     inkscape:pageopacity="0.0"
     inkscape:pageshadow="2"
     inkscape:zoom="0.9899495"
     inkscape:cx="-96.605274"
     inkscape:cy="123.08182"
     inkscape:document-units="px"
     inkscape:current-layer="layer1"
     showgrid="false"
     inkscape:showpageshadow="false"
     inkscape:snap-nodes="true"
     inkscape:object-paths="true"
     inkscape:snap-intersection-paths="true"
     inkscape:object-nodes="true"
     inkscape:snap-smooth-nodes="false"
     inkscape:snap-midpoints="true"
     inkscape:snap-object-midpoints="true"
     inkscape:snap-center="true"
     inkscape:window-width="1366"
     inkscape:window-height="723"
     inkscape:window-x="0"
     inkscape:window-y="0"
     inkscape:window-maximized="1"
     inkscape:snap-others="false" />
  <metadata
     id="metadata7">
    <rdf:RDF>
      <cc:Work
         rdf:about="">
        <dc:format>image/svg+xml</dc:format>
        <dc:type
           rdf:resource="http://purl.org/dc/dcmitype/StillImage" />
        <dc:title />
      </cc:Work>
    </rdf:RDF>
  </metadata>
  <g
     inkscape:groupmode="layer"
     id="layer1"
     inkscape:label="Layer 1 copy 1"
     style="display:inline">
    <g
       id="g872"
       transform="translate(-1.8319742,1.2447836)">
      <path
         inkscape:connector-curvature="0"
         id="path8172-6"
         d="M 90.413752,7.0778014 A 80.259801,80.259801 0 0 0 10.154557,87.336998 80.259801,80.259801 0 0 0 90.413752,167.59798 80.259801,80.259801 0 0 0 170.67474,87.336998 80.259801,80.259801 0 0 0 90.413752,7.0778014 Z m 0,39.3163556 A 40.944132,40.944132 0 0 1 131.35839,87.336998 40.944132,40.944132 0 0 1 90.413752,128.28164 40.944132,40.944132 0 0 1 49.470917,87.336998 40.944132,40.944132 0 0 1 90.413752,46.394157 Z"
         style="display:inline;opacity:1;fill:#feffff;fill-opacity:1;stroke:#404040;stroke-width:11.25;stroke-miterlimit:4;stroke-dasharray:none;stroke-opacity:1" />
      <path
         inkscape:connector-curvature="0"
         id="path8172"
         d="M 91.091228,7.0818772 A 80.259801,80.259801 0 0 0 10.832031,87.341074 80.259801,80.259801 0 0 0 91.091228,167.60206 80.259801,80.259801 0 0 0 171.35222,87.341074 80.259801,80.259801 0 0 0 91.091228,7.0818772 Z m 0,39.3163558 A 40.944132,40.944132 0 0 1 132.03587,87.341074 40.944132,40.944132 0 0 1 91.091228,128.28572 40.944132,40.944132 0 0 1 50.148387,87.341074 40.944132,40.944132 0 0 1 91.091228,46.398233 Z"
         style="opacity:1;fill:#ffffff;fill-opacity:1;stroke:none;stroke-width:0.92119592;stroke-opacity:1" />
      <path
         inkscape:connector-curvature="0"
         id="path8752"
         d="M 91.091228,7.0800807 A 80.259816,80.259816 0 0 0 50.999417,17.895138 l 19.645582,34.030274 a 40.944139,40.944139 0 0 1 20.446229,-5.528975 40.944139,40.944139 0 0 1 20.455232,5.518179 l 19.62579,-33.99429 A 80.259816,80.259816 0 0 0 91.091228,7.0800807 Z"
         style="opacity:1;fill:#9e453c;fill-opacity:1;stroke:none;stroke-width:0.92119592;stroke-opacity:1" />
      <path
         style="opacity:1;fill:#9e453c;fill-opacity:1;stroke:none;stroke-width:0.92119592;stroke-opacity:1"
         d="M 91.091228,167.60206 A 80.259816,80.259816 0 0 1 50.999417,156.78701 l 19.645582,-34.03028 a 40.944139,40.944139 0 0 0 20.446229,5.52898 40.944139,40.944139 0 0 0 20.455242,-5.51818 l 19.62578,33.99429 a 80.259816,80.259816 0 0 1 -40.081022,10.84024 z"
         id="path8754"
         inkscape:connector-curvature="0" />
      <path
         inkscape:connector-curvature="0"
         id="path8756"
         d="M 10.832169,87.192755 A 80.259816,80.259816 0 0 1 21.647221,47.100944 l 34.030281,19.645582 a 40.944139,40.944139 0 0 0 -5.528971,20.446229 40.944139,40.944139 0 0 0 5.518175,20.455225 L 21.672417,127.27377 A 80.259816,80.259816 0 0 1 10.832168,87.192755 Z"
         style="opacity:1;fill:#9e453c;fill-opacity:1;stroke:none;stroke-width:0.92119592;stroke-opacity:1" />
      <path
         style="opacity:1;fill:#9e453c;fill-opacity:1;stroke:none;stroke-width:0.92119592;stroke-opacity:1"
         d="M 171.35223,87.341075 A 80.259816,80.259816 0 0 1 160.53718,127.43288 L 126.5069,107.7873 a 40.944139,40.944139 0 0 0 5.52897,-20.446225 40.944139,40.944139 0 0 0 -5.51818,-20.455229 l 33.99429,-19.625784 a 80.259816,80.259816 0 0 1 10.84025,40.081013 z"
         id="path8758"
         inkscape:connector-curvature="0" />
      <path
         inkscape:connector-curvature="0"
         id="path8784"
         d="m 160.512,47.260052 -21.71647,12.536902 a 55.134559,55.134559 0 0 1 7.43073,27.545916 55.134559,55.134559 0 0 1 -7.44514,27.52973 l 21.75606,12.56029 A 80.259824,80.259824 0 0 0 171.35224,87.341071 80.259824,80.259824 0 0 0 160.512,47.260052 Z m -33.47432,20.561381 a 40.944143,40.944143 0 0 1 1.53293,3.159416 40.944136,40.944136 0 0 0 -1.53293,-3.159416 z m 1.81001,3.778344 a 40.944143,40.944143 0 0 1 1.10471,3.01008 40.944136,40.944136 0 0 0 -1.10471,-3.01008 z m 1.41238,3.934874 a 40.944143,40.944143 0 0 1 0.72868,2.831958 40.944136,40.944136 0 0 0 -0.72868,-2.831958 z m 1.00397,4.059019 a 40.944143,40.944143 0 0 1 0.39223,2.562077 40.944136,40.944136 0 0 0 -0.39223,-2.562077 z m 0.58474,4.161575 a 40.944143,40.944143 0 0 1 0.18711,3.585826 40.944136,40.944136 0 0 0 -0.18711,-3.585826 z m 0.0719,5.885218 a 40.944143,40.944143 0 0 1 -0.18353,2.412743 40.944136,40.944136 0 0 0 0.18353,-2.412743 z m -0.37244,3.655997 a 40.944143,40.944143 0 0 1 -0.51458,2.909323 40.944136,40.944136 0 0 0 0.51458,-2.909323 z m -0.70711,3.663194 a 40.944143,40.944143 0 0 1 -0.93918,3.319536 40.944136,40.944136 0 0 0 0.93918,-3.319536 z m -1.02555,3.557046 a 40.944143,40.944143 0 0 1 -3.30874,7.2706 l 0.0108,0.007 a 40.944136,40.944136 0 0 0 3.29796,-7.2778 z"
         style="opacity:1;fill:#e25243;fill-opacity:1;stroke:none;stroke-width:0.92119592;stroke-opacity:1" />
      <path
         inkscape:connector-curvature="0"
         id="path8786"
         d="M 91.091234,7.0863784 A 80.259824,80.259824 0 0 0 50.999419,17.901434 l 12.551295,21.741664 a 55.134559,55.134559 0 0 1 27.542319,-7.428942 55.134559,55.134559 0 0 1 27.531517,7.446933 l 12.5477,-21.734465 A 80.259824,80.259824 0 0 0 91.091234,7.0863784 Z m 0,39.3163546 a 40.944143,40.944143 0 0 1 20.439026,5.509183 40.944136,40.944136 0 0 0 -20.439026,-5.509183 z m -1.468156,0.05218 a 40.944136,40.944136 0 0 0 -2.718608,0.20691 40.944143,40.944143 0 0 1 2.718608,-0.20691 z m -4.246138,0.392229 a 40.944136,40.944136 0 0 0 -2.718608,0.482188 40.944143,40.944143 0 0 1 2.718608,-0.482188 z m -3.850311,0.735878 a 40.944136,40.944136 0 0 0 -3.042466,0.86182 40.944143,40.944143 0 0 1 3.042466,-0.86182 z m -3.751354,1.097518 a 40.944136,40.944136 0 0 0 -3.274564,1.290033 40.944143,40.944143 0 0 1 3.274564,-1.290033 z m -3.663193,1.464558 a 40.944136,40.944136 0 0 0 -3.441891,1.774021 40.944143,40.944143 0 0 1 3.441891,-1.774021 z"
         style="opacity:1;fill:#e25243;fill-opacity:1;stroke:none;stroke-width:0.92119592;stroke-opacity:1" />
      <path
         inkscape:connector-curvature="0"
         id="path8788"
         d="M 21.652625,47.100938 A 80.259824,80.259824 0 0 0 10.837568,87.192752 80.259824,80.259824 0 0 0 21.677813,127.27378 L 43.327717,114.77466 A 55.134559,55.134559 0 0 1 35.963548,87.342087 55.134559,55.134559 0 0 1 43.473454,59.697213 Z m 33.636247,20.412046 a 40.944136,40.944136 0 0 0 -0.415617,0.806047 40.944143,40.944143 0 0 1 0.415617,-0.806047 z m -1.772224,3.611017 a 40.944136,40.944136 0 0 0 -0.435409,1.104715 40.944143,40.944143 0 0 1 0.435409,-1.104715 z m -1.406982,3.767547 a 40.944136,40.944136 0 0 0 -0.385031,1.360204 40.944143,40.944143 0 0 1 0.385031,-1.360204 z m -1.038145,3.92228 a 40.944136,40.944136 0 0 0 -0.277078,1.559915 40.944143,40.944143 0 0 1 0.277078,-1.559915 z m -0.640519,3.963661 a 40.944136,40.944136 0 0 0 -0.142137,1.86938 40.944143,40.944143 0 0 1 0.142137,-1.86938 z m -0.27348,4.487233 a 40.944136,40.944136 0 0 0 -0.0036,0.07556 40.944136,40.944136 0 0 0 0.199712,3.695579 40.944143,40.944143 0 0 1 -0.196115,-3.771145 z m 0.289674,4.548404 a 40.944136,40.944136 0 0 0 5.17273,15.865444 l 0.05218,-0.0306 a 40.944143,40.944143 0 0 1 -5.22491,-15.834844 z"
         style="opacity:1;fill:#e25243;fill-opacity:1;stroke:none;stroke-width:0.92119592;stroke-opacity:1" />
      <path
         inkscape:connector-curvature="0"
         id="path8790"
         d="m 70.644998,122.75674 -0.0072,0.0108 a 40.944136,40.944136 0 0 0 7.276009,3.29436 40.944143,40.944143 0 0 1 -7.268812,-3.30516 z m 39.965862,0.53078 a 40.944143,40.944143 0 0 1 -3.1594,1.53293 40.944136,40.944136 0 0 0 3.1594,-1.53293 z m -3.77834,1.81 a 40.944143,40.944143 0 0 1 -3.01008,1.10472 40.944136,40.944136 0 0 0 3.01008,-1.10472 z m -28.679417,1.05255 a 40.944136,40.944136 0 0 0 3.305151,0.93558 40.944143,40.944143 0 0 1 -3.305151,-0.93558 z m 24.744557,0.35984 a 40.944143,40.944143 0 0 1 -2.83197,0.72868 40.944136,40.944136 0 0 0 2.83197,-0.72868 z m -20.665745,0.77365 a 40.944136,40.944136 0 0 0 2.903927,0.51458 40.944143,40.944143 0 0 1 -2.903927,-0.51458 z m 16.606716,0.23031 a 40.944143,40.944143 0 0 1 -2.562075,0.39223 40.944136,40.944136 0 0 0 2.562075,-0.39223 z m -12.459535,0.47319 a 40.944136,40.944136 0 0 0 2.412742,0.18351 40.944143,40.944143 0 0 1 -2.412742,-0.18351 z m 8.29796,0.11155 a 40.944143,40.944143 0 0 1 -3.585827,0.18712 40.944136,40.944136 0 0 0 3.585827,-0.18712 z m -31.117352,6.93055 -12.56029,21.75786 a 80.259824,80.259824 0 0 0 40.091815,10.81505 80.259824,80.259824 0 0 0 40.081021,-10.84023 l -12.53691,-21.71647 a 55.134559,55.134559 0 0 1 -27.542312,7.43073 55.134559,55.134559 0 0 1 -27.533324,-7.44694 z"
         style="opacity:1;fill:#e25243;fill-opacity:1;stroke:none;stroke-width:0.92119592;stroke-opacity:1" />
      <path
         inkscape:connector-curvature="0"
         id="path4156"
         d="M 91.089429,7.0818772 A 80.259809,80.259809 0 0 0 10.832031,87.341074 80.259809,80.259809 0 0 0 91.089429,167.60206 V 128.28572 A 40.944136,40.944136 0 0 1 50.148387,87.341074 40.944136,40.944136 0 0 1 91.089429,46.398233 Z"
         style="opacity:1;fill:#ffffff;fill-opacity:0.31372549;stroke:none;stroke-width:0.92119592;stroke-opacity:1" />
    </g>
  </g>
  <g
     inkscape:groupmode="layer"
     id="layer2"
     inkscape:label="Hidden"
     style="display:none">
    <circle
       r="59.851051"
       cy="197.81662"
       cx="-10.990192"
       id="circle8736"
       style="display:inline;opacity:1;fill:#1653d6;fill-opacity:0.43575416;stroke:none;stroke-opacity:1" />
    <circle
       r="44.446705"
       cy="197.81564"
       cx="-10.990604"
       id="circle8738"
       style="display:inline;opacity:1;fill:#d62a16;fill-opacity:1;stroke:none;stroke-opacity:1" />
    <path
       style="display:inline;opacity:1;fill:#000000;fill-opacity:0.39215686;stroke:none;stroke-opacity:1"
       d="M 32.166326,-55.82707 A 59.851055,59.851055 0 0 0 -27.685228,4.0244896 59.851055,59.851055 0 0 0 32.166326,63.87409 59.851055,59.851055 0 0 0 92.015936,4.0244896 59.851055,59.851055 0 0 0 32.166326,-55.82707 Z m -0.002,15.402343 A 44.446709,44.446709 0 0 1 76.611646,4.0225296 44.446709,44.446709 0 0 1 32.164376,48.4698 44.446709,44.446709 0 0 1 -12.280929,4.0225296 44.446709,44.446709 0 0 1 32.164376,-40.424727 Z"
       id="circle8176"
       inkscape:connector-curvature="0" />
    <path
       inkscape:connector-curvature="0"
       style="display:inline;opacity:1;fill:#e25243;fill-opacity:1;stroke:none;stroke-opacity:1"
       d="M 361.65179,-17.82179 324.71039,3.5063322 A 87.125664,87.125664 0 0 0 400.0932,47.107892 87.125664,87.125664 0 0 0 475.45452,3.4907122 L 438.55022,-17.81593 A 44.446717,44.446717 0 0 1 400.0932,4.4282122 44.446717,44.446717 0 0 1 361.65179,-17.82179 Z"
       id="path8741" />
    <path
       inkscape:connector-curvature="0"
       id="path8769"
       d="m 293.52407,-117.04125 a 59.851055,59.851055 0 0 0 -59.85156,59.851562 59.851055,59.851055 0 0 0 59.85156,59.8496002 59.851055,59.851055 0 0 0 59.84961,-59.8496002 59.851055,59.851055 0 0 0 -59.84961,-59.851562 z m -0.002,15.40235 a 44.446709,44.446709 0 0 1 44.44732,44.447252 44.446709,44.446709 0 0 1 -44.44727,44.44727 44.446709,44.446709 0 0 1 -44.44531,-44.44727 44.446709,44.446709 0 0 1 44.44531,-44.447252 z"
       style="display:inline;opacity:1;fill:#000000;fill-opacity:0.39215686;stroke:none;stroke-opacity:1" />
  </g>
</svg>
