<?xml version="1.0" encoding="UTF-8" standalone="no"?>
<!-- Created with Inkscape (http://www.inkscape.org/) -->

<svg
   xmlns:dc="http://purl.org/dc/elements/1.1/"
   xmlns:cc="http://creativecommons.org/ns#"
   xmlns:rdf="http://www.w3.org/1999/02/22-rdf-syntax-ns#"
   xmlns:svg="http://www.w3.org/2000/svg"
   xmlns="http://www.w3.org/2000/svg"
   xmlns:sodipodi="http://sodipodi.sourceforge.net/DTD/sodipodi-0.dtd"
   xmlns:inkscape="http://www.inkscape.org/namespaces/inkscape"
   width="50mm"
   height="50mm"
   viewBox="0 0 177.16535 177.16535"
   id="svg2"
   version="1.1"
   inkscape:version="0.92.4 (5da689c313, 2019-01-14)"
   sodipodi:docname="home.svg">
  <defs
     id="defs4" />
  <sodipodi:namedview
     id="base"
     pagecolor="#ffffff"
     bordercolor="#666666"
     borderopacity="1.0"
     inkscape:pageopacity="0.0"
     inkscape:pageshadow="2"
     inkscape:zoom="1.979899"
     inkscape:cx="-20.016796"
     inkscape:cy="121.64553"
     inkscape:document-units="px"
     inkscape:current-layer="layer5"
     showgrid="false"
     inkscape:object-paths="true"
     inkscape:snap-intersection-paths="true"
     inkscape:object-nodes="true"
     inkscape:snap-smooth-nodes="true"
     inkscape:snap-midpoints="true"
     inkscape:snap-nodes="true"
     inkscape:window-width="1366"
     inkscape:window-height="705"
     inkscape:window-x="-8"
     inkscape:window-y="-8"
     inkscape:window-maximized="1"
     showguides="false"
     inkscape:snap-object-midpoints="true"
     inkscape:snap-center="true"
     inkscape:snap-others="true" />
  <metadata
     id="metadata7">
    <rdf:RDF>
      <cc:Work
         rdf:about="">
        <dc:format>image/svg+xml</dc:format>
        <dc:type
           rdf:resource="http://purl.org/dc/dcmitype/StillImage" />
        <dc:title />
      </cc:Work>
    </rdf:RDF>
  </metadata>
  <g
     inkscape:groupmode="layer"
     id="layer5"
     inkscape:label="base"
     style="display:inline">
    <path
       id="path7101"
       d="m 88.431499,8.0291519 a 10.375364,10.375364 0 0 0 -7.18452,3.0361431 L 12.491914,79.82036 a 10.375364,10.375364 0 0 0 0,14.673194 10.375364,10.375364 0 0 0 14.673195,0 L 88.582675,33.074187 150.00204,94.493554 a 10.375364,10.375364 0 0 0 14.67139,0 10.375364,10.375364 0 0 0 0,-14.673194 L 95.920173,11.065295 A 10.375364,10.375364 0 0 0 88.431499,8.0291519 Z"
       style="opacity:1;fill:#e25243;fill-opacity:1;stroke:#404040;stroke-width:11.24999964;stroke-opacity:1;stroke-miterlimit:4;stroke-dasharray:none"
       inkscape:connector-curvature="0" />
    <rect
       y="88.812088"
       x="31.376348"
       height="81.065742"
       width="114.41384"
       id="rect7646"
       style="opacity:1;fill:#5795be;fill-opacity:1;stroke:#404040;stroke-width:9.76800728;stroke-miterlimit:4;stroke-dasharray:none;stroke-opacity:1" />
    <rect
       style="opacity:1;fill:#5795be;fill-opacity:1;stroke:none;stroke-width:0.92146146;stroke-opacity:1"
       id="rect11686"
       width="112.93185"
       height="108.94131"
       x="32.117344"
       y="60.19553" />
    <path
       sodipodi:type="star"
       style="opacity:1;fill:#5795be;fill-opacity:1;stroke:none;stroke-opacity:1"
       id="path11688"
       sodipodi:sides="3"
       sodipodi:cx="-274.76147"
       sodipodi:cy="224.6425"
       sodipodi:r1="30.772367"
       sodipodi:r2="15.386183"
       sodipodi:arg1="0.52359878"
       sodipodi:arg2="1.5707963"
       inkscape:flatsided="false"
       inkscape:rounded="0"
       inkscape:randomized="0"
       d="m -248.11182,240.02869 -26.64965,-1e-5 -26.64966,1e-5 13.32483,-23.07928 13.32483,-23.07928 13.32482,23.07928 z"
       inkscape:transform-center-y="-8.1834044"
       transform="matrix(1.6148742,0,0,0.99647526,532.28847,-163.65516)"
       inkscape:transform-center-x="1.149013e-05" />
    <path
       inkscape:connector-curvature="0"
       style="opacity:1;fill:#e25243;fill-opacity:1;stroke:none;stroke-width:0.92146146;stroke-opacity:1"
       d="m 88.431499,8.0291519 a 10.375364,10.375364 0 0 0 -7.18452,3.0361431 L 12.491914,79.82036 a 10.375364,10.375364 0 0 0 0,14.673194 10.375364,10.375364 0 0 0 14.673195,0 L 88.582675,33.074187 150.00204,94.493554 a 10.375364,10.375364 0 0 0 14.67139,0 10.375364,10.375364 0 0 0 0,-14.673194 L 95.920173,11.065295 A 10.375364,10.375364 0 0 0 88.431499,8.0291519 Z"
       id="path11667" />
    <rect
       style="opacity:1;fill:#ffffff;fill-opacity:1;stroke:none;stroke-width:0.92146146;stroke-opacity:1"
       id="rect11690"
       width="56.879627"
       height="56.879627"
       x="60.143456"
       y="86.226372" />
    <path
       inkscape:connector-curvature="0"
       style="opacity:1;fill:#ffffff;fill-opacity:0.39215686;stroke:none;stroke-width:0.92146146;stroke-opacity:1"
       d="m 88.431499,8.0291519 a 10.375366,10.375366 0 0 0 -7.18452,3.0361431 L 32.117964,60.19611 12.491914,79.82036 a 10.375366,10.375366 0 0 0 0,14.673194 10.375366,10.375366 0 0 0 14.673195,0 l 4.952855,-4.952855 V 169.13734 H 88.582675 V 8.0345511 a 10.375366,10.375366 0 0 0 -0.151176,-0.0054 z"
       id="rect11780" />
  </g>
</svg>
