<?xml version="1.0" encoding="UTF-8" standalone="no"?>
<!-- Created with Inkscape (http://www.inkscape.org/) -->

<svg
   xmlns:dc="http://purl.org/dc/elements/1.1/"
   xmlns:cc="http://creativecommons.org/ns#"
   xmlns:rdf="http://www.w3.org/1999/02/22-rdf-syntax-ns#"
   xmlns:svg="http://www.w3.org/2000/svg"
   xmlns="http://www.w3.org/2000/svg"
   xmlns:sodipodi="http://sodipodi.sourceforge.net/DTD/sodipodi-0.dtd"
   xmlns:inkscape="http://www.inkscape.org/namespaces/inkscape"
   width="50mm"
   height="50mm"
   viewBox="0 0 177.16535 177.16535"
   id="svg2"
   version="1.1"
   inkscape:version="0.91 r13725"
   sodipodi:docname="hourglass_flat.svg">
  <defs
     id="defs4" />
  <sodipodi:namedview
     id="base"
     pagecolor="#ffffff"
     bordercolor="#666666"
     borderopacity="1.0"
     inkscape:pageopacity="0.0"
     inkscape:pageshadow="2"
     inkscape:zoom="0.98994949"
     inkscape:cx="-62.464693"
     inkscape:cy="157.16079"
     inkscape:document-units="px"
     inkscape:current-layer="layer1"
     showgrid="false"
     inkscape:showpageshadow="false"
     borderlayer="false"
     inkscape:snap-intersection-paths="true"
     inkscape:object-paths="true"
     inkscape:snap-smooth-nodes="true"
     inkscape:object-nodes="true"
     inkscape:snap-midpoints="true"
     inkscape:snap-nodes="true"
     inkscape:window-width="1366"
     inkscape:window-height="697"
     inkscape:window-x="-4"
     inkscape:window-y="-4"
     inkscape:window-maximized="1"
     inkscape:snap-object-midpoints="true" />
  <metadata
     id="metadata7">
    <rdf:RDF>
      <cc:Work
         rdf:about="">
        <dc:format>image/svg+xml</dc:format>
        <dc:type
           rdf:resource="http://purl.org/dc/dcmitype/StillImage" />
        <dc:title></dc:title>
      </cc:Work>
    </rdf:RDF>
  </metadata>
  <g
     inkscape:label="Layer 1"
     inkscape:groupmode="layer"
     id="layer1"
     transform="translate(0,-875.19685)">
    <path
       style="opacity:1;fill:#5795be;fill-opacity:1;fill-rule:evenodd;stroke:none;stroke-width:0;stroke-miterlimit:4;stroke-dasharray:none;stroke-opacity:1"
       d="m 88.531863,966.79221 a 62.376926,62.376926 0 0 0 -62.326172,62.41209 l 124.751959,0 a 62.376926,62.376926 0 0 0 0.002,-0.035 l 0,-0.066 A 62.376926,62.376926 0 0 0 88.531863,966.79221 Z"
       id="path4136"
       inkscape:connector-curvature="0" />
    <path
       style="opacity:1;fill:#5795be;fill-opacity:1;fill-rule:evenodd;stroke:none;stroke-width:0;stroke-miterlimit:4;stroke-dasharray:none;stroke-opacity:1"
       d="m 26.207713,898.35471 a 62.376918,62.376918 0 0 0 -0.002,0.0332 62.376918,62.376918 0 0 0 62.394531,62.34375 62.376918,62.376918 0 0 0 62.359376,-62.37696 l -124.751954,0 z"
       id="path4136-5"
       inkscape:connector-curvature="0" />
    <path
       style="opacity:1;fill:#5795be;fill-opacity:1;fill-rule:evenodd;stroke:none;stroke-width:0;stroke-miterlimit:4;stroke-dasharray:none;stroke-opacity:1"
       d="m 77.17719,995.11837 c 7.603651,0 15.207302,0 22.810953,0 0,-20.90364 0,-41.80729 0,-62.71093 -7.603651,0 -15.207302,0 -22.810953,0 0,20.90364 0,41.80729 0,62.71093 z"
       id="rect4199-5"
       inkscape:connector-curvature="0" />
    <rect
       style="opacity:1;fill:#e25243;fill-opacity:1;fill-rule:evenodd;stroke:none;stroke-width:0;stroke-miterlimit:4;stroke-dasharray:none;stroke-opacity:1"
       id="rect4371"
       width="176.77667"
       height="23.157862"
       x="0.19433042"
       y="875.19684" />
    <path
       style="opacity:1;fill:#ffef5c;fill-opacity:1;fill-rule:evenodd;stroke:none;stroke-width:0;stroke-miterlimit:4;stroke-dasharray:none;stroke-opacity:1"
       d="M 39.835938 36.365234 C 40.139506 37.342593 40.466994 38.317472 40.847656 39.283203 C 47.358829 58.484758 66.717308 72.197842 86.650391 73.40625 L 86.650391 121.25781 L 68.818359 154.00781 L 88.582031 154.00781 L 108.34766 154.00781 L 90.515625 121.26172 L 90.515625 73.480469 C 96.746681 73.343814 102.95633 71.956497 108.77148 69.076172 C 122.47586 63.15927 132.87881 50.578397 137.14648 36.365234 L 39.835938 36.365234 z "
       id="path4136-3-7-7"
       transform="translate(0,875.19685)" />
    <path
       style="opacity:1;fill:#aff490;fill-opacity:0.67298578;fill-rule:evenodd;stroke:none;stroke-width:1;stroke-miterlimit:4;stroke-dasharray:none;stroke-opacity:1"
       id="path4731"
       r="40.406101"
       cy="775.58038"
       cx="-432.34528" />
    <rect
       y="1029.2047"
       x="0.19369482"
       height="23.157862"
       width="176.77667"
       id="rect9867"
       style="opacity:1;fill:#e25243;fill-opacity:1;fill-rule:evenodd;stroke:none;stroke-width:0;stroke-miterlimit:4;stroke-dasharray:none;stroke-opacity:1" />
    <path
       style="opacity:1;fill:#ffffff;fill-opacity:0.39215687;fill-rule:evenodd;stroke:none;stroke-width:0;stroke-miterlimit:4;stroke-dasharray:none;stroke-opacity:1"
       d="M 0.19335938 0 L 0.19335938 23.158203 L 26.207031 23.158203 A 62.376928 62.376928 0 0 0 26.205078 23.191406 A 62.376928 62.376928 0 0 0 77.177734 84.445312 L 77.177734 92.691406 A 62.376936 62.376936 0 0 0 26.205078 154.00781 L 0.19335938 154.00781 L 0.19335938 177.16602 L 88.582031 177.16602 L 88.582031 0 L 0.19335938 0 z "
       transform="translate(0,875.19685)"
       id="rect9869" />
  </g>
  <g
     inkscape:groupmode="layer"
     id="layer2"
     inkscape:label="Layer 2"
     style="display:none">
    <path
       style="opacity:1;fill:#929001;fill-opacity:1;fill-rule:evenodd;stroke:none;stroke-width:0;stroke-miterlimit:4;stroke-dasharray:none;stroke-opacity:1"
       id="path4136-6"
       sodipodi:type="arc"
       sodipodi:cx="477.19806"
       sodipodi:cy="57.368801"
       sodipodi:rx="62.376904"
       sodipodi:ry="62.376904"
       sodipodi:start="0"
       sodipodi:end="6.2821032"
       sodipodi:open="true"
       d="M 539.57496,57.368801 A 62.376904,62.376904 0 0 1 477.21493,119.7457 62.376904,62.376904 0 0 1 414.82116,57.40255 62.376904,62.376904 0 0 1 477.14744,-5.0080819 62.376904,62.376904 0 0 1 539.57493,57.301303" />
    <path
       style="opacity:1;fill:#f4f390;fill-opacity:0.67298578;fill-rule:evenodd;stroke:none;stroke-width:0;stroke-miterlimit:4;stroke-dasharray:none;stroke-opacity:1"
       d="M 475.89781,1.0318884 C 443.74538,0.70679835 416.13194,32.884584 421.2061,64.636561 c 3.50068,29.669996 33.27649,53.308699 63.03818,48.766999 28.14808,-3.4121 51.38734,-30.141702 49.37227,-58.510398 C 532.4544,26.491635 507.62248,0.81490835 478.66148,1.0533784 c -0.92114,-0.0304 -1.8422,-0.0324 -2.76367,-0.0215 z"
       id="path4136-3-7"
       inkscape:connector-curvature="0" />
    <path
       style="opacity:1;fill:#929001;fill-opacity:1;fill-rule:evenodd;stroke:none;stroke-width:0;stroke-miterlimit:4;stroke-dasharray:none;stroke-opacity:1"
       id="path4136-9"
       sodipodi:type="arc"
       sodipodi:cx="504.67007"
       sodipodi:cy="309.08368"
       sodipodi:rx="62.376904"
       sodipodi:ry="62.376904"
       sodipodi:start="0"
       sodipodi:end="6.2821032"
       sodipodi:open="true"
       d="m 567.04698,309.08368 a 62.376904,62.376904 0 0 1 -62.36003,62.3769 62.376904,62.376904 0 0 1 -62.39377,-62.34315 62.376904,62.376904 0 0 1 62.32627,-62.41063 62.376904,62.376904 0 0 1 62.42749,62.30938" />
    <path
       style="opacity:1;fill:#929001;fill-opacity:1;fill-rule:evenodd;stroke:none;stroke-width:0;stroke-miterlimit:4;stroke-dasharray:none;stroke-opacity:1"
       id="path4136-5-1"
       sodipodi:type="arc"
       sodipodi:cx="504.67007"
       sodipodi:cy="178.26881"
       sodipodi:rx="62.376896"
       sodipodi:ry="62.376896"
       sodipodi:start="0"
       sodipodi:end="6.2821032"
       sodipodi:open="true"
       d="m 567.04697,178.26881 a 62.376896,62.376896 0 0 1 -62.36002,62.3769 62.376896,62.376896 0 0 1 -62.39376,-62.34315 62.376896,62.376896 0 0 1 62.32626,-62.41062 62.376896,62.376896 0 0 1 62.42748,62.30938" />
    <path
       style="opacity:1;fill:#929001;fill-opacity:1;fill-rule:evenodd;stroke:none;stroke-width:0;stroke-miterlimit:4;stroke-dasharray:none;stroke-opacity:1"
       d="m 493.26463,275.03232 c 7.60365,0 15.20729,0 22.81095,0 0,-20.9036 0,-41.8073 0,-62.711 -7.60366,0 -15.2073,0 -22.81095,0 0,20.9037 0,41.8074 0,62.711 z"
       id="rect4199-5-2"
       inkscape:connector-curvature="0" />
    <path
       style="opacity:1;fill:#f4f390;fill-opacity:0.67298578;fill-rule:evenodd;stroke:none;stroke-width:0;stroke-miterlimit:4;stroke-dasharray:none;stroke-opacity:1"
       d="m 503.39794,252.74672 c -32.15242,-0.325 -59.76587,31.8527 -54.69171,63.60479 3.50069,29.67 33.2765,53.3087 63.03818,48.767 28.1481,-3.4121 51.38734,-30.1417 49.37227,-58.5104 -1.16215,-28.40159 -25.99405,-54.07829 -54.95507,-53.83989 -0.92114,-0.03 -1.8422,-0.032 -2.76367,-0.021 z"
       id="path4136-3-70"
       inkscape:connector-curvature="0" />
    <path
       style="opacity:1;fill:#f4f390;fill-opacity:0.67298578;fill-rule:evenodd;stroke:none;stroke-width:0;stroke-miterlimit:4;stroke-dasharray:none;stroke-opacity:1"
       d="m 503.39794,121.93205 c -32.15242,-0.32509 -59.76586,31.8527 -54.69171,63.60468 3.50069,29.66999 33.2765,53.30869 63.03818,48.76699 28.14809,-3.4121 51.38733,-30.14169 49.37226,-58.51037 -1.16215,-28.4015 -25.99405,-54.07828 -54.95506,-53.83981 -0.92114,-0.0304 -1.8422,-0.0324 -2.76367,-0.0215 z"
       id="path4136-3-3-9"
       inkscape:connector-curvature="0" />
    <path
       style="opacity:1;fill:#d4d361;fill-opacity:1;fill-rule:evenodd;stroke:none;stroke-width:0;stroke-miterlimit:4;stroke-dasharray:none;stroke-opacity:1"
       d="m 499.22019,269.03822 c 6.19157,0 5.9217,-0.01 10.89982,-0.01 l -0.0893,-50.7241 c -5.08509,0 -5.47529,0.022 -10.81053,0.022 z"
       id="rect4199-5-6-3"
       inkscape:connector-curvature="0"
       sodipodi:nodetypes="ccccc" />
  </g>
</svg>
