<?xml version="1.0" encoding="UTF-8" standalone="no"?>
<!-- Created with Inkscape (http://www.inkscape.org/) -->

<svg
   xmlns:dc="http://purl.org/dc/elements/1.1/"
   xmlns:cc="http://creativecommons.org/ns#"
   xmlns:rdf="http://www.w3.org/1999/02/22-rdf-syntax-ns#"
   xmlns:svg="http://www.w3.org/2000/svg"
   xmlns="http://www.w3.org/2000/svg"
   xmlns:sodipodi="http://sodipodi.sourceforge.net/DTD/sodipodi-0.dtd"
   xmlns:inkscape="http://www.inkscape.org/namespaces/inkscape"
   width="50mm"
   height="50mm"
   viewBox="0 0 177.16535 177.16535"
   id="svg2"
   version="1.1"
   inkscape:version="0.92.4 (unknown)"
   sodipodi:docname="hourglass_flat.svg">
  <defs
     id="defs4" />
  <sodipodi:namedview
     id="base"
     pagecolor="#ffffff"
     bordercolor="#666666"
     borderopacity="1.0"
     inkscape:pageopacity="0.0"
     inkscape:pageshadow="2"
     inkscape:zoom="3.959798"
     inkscape:cx="123.39681"
     inkscape:cy="111.32882"
     inkscape:document-units="px"
     inkscape:current-layer="layer1"
     showgrid="false"
     inkscape:showpageshadow="false"
     borderlayer="false"
     inkscape:snap-intersection-paths="true"
     inkscape:object-paths="true"
     inkscape:snap-smooth-nodes="true"
     inkscape:object-nodes="true"
     inkscape:snap-midpoints="true"
     inkscape:snap-nodes="true"
     inkscape:window-width="1366"
     inkscape:window-height="723"
     inkscape:window-x="0"
     inkscape:window-y="0"
     inkscape:window-maximized="1"
     inkscape:snap-object-midpoints="true"
     inkscape:snap-bbox="true"
     inkscape:bbox-nodes="true"
     inkscape:snap-bbox-edge-midpoints="true"
     inkscape:snap-bbox-midpoints="true"
     inkscape:bbox-paths="true" />
  <metadata
     id="metadata7">
    <rdf:RDF>
      <cc:Work
         rdf:about="">
        <dc:format>image/svg+xml</dc:format>
        <dc:type
           rdf:resource="http://purl.org/dc/dcmitype/StillImage" />
        <dc:title />
      </cc:Work>
    </rdf:RDF>
  </metadata>
  <g
     inkscape:label="Layer 1"
     inkscape:groupmode="layer"
     id="layer1"
     transform="translate(0,-875.19685)">
    <path
       style="opacity:1;fill:#aff490;fill-opacity:0.67298578;fill-rule:evenodd;stroke:none;stroke-width:1;stroke-miterlimit:4;stroke-dasharray:none;stroke-opacity:1"
       id="path4731"
       r="40.406101"
       cy="775.58038"
       cx="-432.34528" />
    <path
       style="opacity:1;fill:#5795be;fill-opacity:1;fill-rule:evenodd;stroke:#404040;stroke-width:11.25;stroke-miterlimit:4;stroke-dasharray:none;stroke-opacity:1;stroke-linejoin:round"
       d="m 10.88585,885.91017 v 20.35766 h 22.866215 a 54.832319,54.832319 0 0 0 -0.0018,0.0293 54.83231,54.83231 0 0 0 44.807736,53.84399 v 7.24915 a 54.832317,54.832317 0 0 0 -5.26062,1.25427 54.832326,54.832326 0 0 0 -0.08606,0.022 54.832317,54.832317 0 0 0 -5.110474,1.77246 54.832326,54.832326 0 0 0 -0.06409,0.0238 54.832317,54.832317 0 0 0 -4.749755,2.1991 54.832326,54.832326 0 0 0 -0.254519,0.12452 54.832317,54.832317 0 0 0 -4.354246,2.57263 54.832326,54.832326 0 0 0 -0.384525,0.2362 54.832317,54.832317 0 0 0 -3.938597,2.8949 54.832326,54.832326 0 0 0 -0.494381,0.37536 54.832317,54.832317 0 0 0 -3.530278,3.18787 54.832326,54.832326 0 0 0 -0.543816,0.5072 54.832317,54.832317 0 0 0 -3.05054,3.35816 54.832326,54.832326 0 0 0 -0.648197,0.73974 54.832317,54.832317 0 0 0 -2.596435,3.51013 54.832326,54.832326 0 0 0 -0.66284,0.92835 54.832317,54.832317 0 0 0 -2.136844,3.59253 54.832326,54.832326 0 0 0 -0.66284,1.15539 54.832317,54.832317 0 0 0 -1.653441,3.53943 54.832326,54.832326 0 0 0 -0.664669,1.48869 54.832317,54.832317 0 0 0 -1.186528,3.3838 54.832326,54.832326 0 0 0 -0.60974,1.8438 54.832317,54.832317 0 0 0 -0.78735,3.263 54.832326,54.832326 0 0 0 -0.470588,2.1057 54.832317,54.832317 0 0 0 -0.419306,3.0341 54.832326,54.832326 0 0 0 -0.300291,2.4957 54.832317,54.832317 0 0 0 -0.177619,4.0869 54.832326,54.832326 0 0 0 -0.0091,0.2051 H 10.88585 v 20.3558 h 77.697145 77.697145 v -20.3558 h -22.86621 a 54.832317,54.832317 0 0 0 0.002,-0.031 v -0.059 A 54.832317,54.832317 0 0 0 98.609851,967.38477 v -7.24731 a 54.83231,54.83231 0 0 0 44.805909,-53.86963 h 22.86621 V 885.91017 H 88.582995 Z"
       id="path4136-3"
       inkscape:connector-curvature="0" />
    <path
       style="opacity:1;fill:#5795be;fill-opacity:1;fill-rule:evenodd;stroke:none;stroke-width:0;stroke-miterlimit:4;stroke-dasharray:none;stroke-opacity:1"
       d="M 88.538442,966.42753 A 54.832317,54.832317 0 0 0 33.75074,1021.2908 h 109.66297 a 54.832317,54.832317 0 0 0 0.002,-0.031 v -0.058 A 54.832317,54.832317 0 0 0 88.538442,966.42753 Z"
       id="path4136"
       inkscape:connector-curvature="0" />
    <path
       style="opacity:1;fill:#5795be;fill-opacity:1;fill-rule:evenodd;stroke:none;stroke-width:0;stroke-miterlimit:4;stroke-dasharray:none;stroke-opacity:1"
       d="m 33.752518,906.26767 a 54.83231,54.83231 0 0 0 -0.0018,0.0292 54.83231,54.83231 0 0 0 54.847792,54.80315 54.83231,54.83231 0 0 0 54.81689,-54.83235 H 33.752476 Z"
       id="path4136-5"
       inkscape:connector-curvature="0" />
    <path
       style="opacity:1;fill:#5795be;fill-opacity:1;fill-rule:evenodd;stroke:none;stroke-width:0;stroke-miterlimit:4;stroke-dasharray:none;stroke-opacity:1"
       d="m 78.557139,991.32758 c 6.683975,0 13.367949,0 20.051924,0 0,-18.3753 0,-36.75062 0,-55.12592 -6.683975,0 -13.367949,0 -20.051924,0 0,18.3753 0,36.75062 0,55.12592 z"
       id="rect4199-5"
       inkscape:connector-curvature="0" />
    <rect
       style="opacity:1;fill:#e25243;fill-opacity:1;fill-rule:evenodd;stroke:none;stroke-width:0;stroke-miterlimit:4;stroke-dasharray:none;stroke-opacity:1"
       id="rect4371"
       width="155.39519"
       height="20.356874"
       x="10.885504"
       y="885.91077" />
    <path
       inkscape:connector-curvature="0"
       style="opacity:1;fill:#ffef5c;fill-opacity:1;fill-rule:evenodd;stroke:none;stroke-width:0;stroke-miterlimit:4;stroke-dasharray:none;stroke-opacity:1"
       d="m 45.732383,917.87759 c 0.266851,0.85914 0.554728,1.71611 0.889349,2.56503 5.723634,16.87909 22.740668,28.93355 40.262806,29.9958 v 42.06383 L 71.209324,1021.2911 H 88.582542 105.95748 L 90.282264,992.50568 v -42.00201 c 5.477398,-0.12013 10.935976,-1.33965 16.047776,-3.87159 12.04681,-5.20124 21.1915,-16.26044 24.94299,-28.75449 z"
       id="path4136-3-7-7" />
    <rect
       y="1021.2911"
       x="10.884945"
       height="20.356874"
       width="155.39519"
       id="rect9867"
       style="opacity:1;fill:#e25243;fill-opacity:1;fill-rule:evenodd;stroke:none;stroke-width:0;stroke-miterlimit:4;stroke-dasharray:none;stroke-opacity:1" />
    <path
       inkscape:connector-curvature="0"
       style="opacity:1;fill:#ffffff;fill-opacity:0.39215686;fill-rule:evenodd;stroke:none;stroke-width:0;stroke-miterlimit:4;stroke-dasharray:none;stroke-opacity:1"
       d="m 10.88465,885.9108 v 20.35717 h 22.867268 a 54.832319,54.832319 0 0 0 -0.0018,0.0292 54.832319,54.832319 0 0 0 44.807416,53.84513 v 7.24871 A 54.832326,54.832326 0 0 0 33.75016,1021.2911 H 10.88465 v 20.3571 H 88.582542 V 885.9108 Z"
       id="rect9869" />
  </g>
  <g
     inkscape:groupmode="layer"
     id="layer2"
     inkscape:label="Layer 2"
     style="display:none">
    <path
       style="opacity:1;fill:#929001;fill-opacity:1;fill-rule:evenodd;stroke:none;stroke-width:0;stroke-miterlimit:4;stroke-dasharray:none;stroke-opacity:1"
       id="path4136-6"
       sodipodi:type="arc"
       sodipodi:cx="477.19806"
       sodipodi:cy="57.368801"
       sodipodi:rx="62.376904"
       sodipodi:ry="62.376904"
       sodipodi:start="0"
       sodipodi:end="6.2821032"
       sodipodi:open="true"
       d="M 539.57496,57.368801 A 62.376904,62.376904 0 0 1 477.21493,119.7457 62.376904,62.376904 0 0 1 414.82116,57.40255 62.376904,62.376904 0 0 1 477.14744,-5.0080819 62.376904,62.376904 0 0 1 539.57493,57.301303" />
    <path
       style="opacity:1;fill:#f4f390;fill-opacity:0.67298578;fill-rule:evenodd;stroke:none;stroke-width:0;stroke-miterlimit:4;stroke-dasharray:none;stroke-opacity:1"
       d="M 475.89781,1.0318884 C 443.74538,0.70679835 416.13194,32.884584 421.2061,64.636561 c 3.50068,29.669996 33.27649,53.308699 63.03818,48.766999 28.14808,-3.4121 51.38734,-30.141702 49.37227,-58.510398 C 532.4544,26.491635 507.62248,0.81490835 478.66148,1.0533784 c -0.92114,-0.0304 -1.8422,-0.0324 -2.76367,-0.0215 z"
       id="path4136-3-7"
       inkscape:connector-curvature="0" />
    <path
       style="opacity:1;fill:#929001;fill-opacity:1;fill-rule:evenodd;stroke:none;stroke-width:0;stroke-miterlimit:4;stroke-dasharray:none;stroke-opacity:1"
       id="path4136-9"
       sodipodi:type="arc"
       sodipodi:cx="504.67007"
       sodipodi:cy="309.08368"
       sodipodi:rx="62.376904"
       sodipodi:ry="62.376904"
       sodipodi:start="0"
       sodipodi:end="6.2821032"
       sodipodi:open="true"
       d="m 567.04698,309.08368 a 62.376904,62.376904 0 0 1 -62.36003,62.3769 62.376904,62.376904 0 0 1 -62.39377,-62.34315 62.376904,62.376904 0 0 1 62.32627,-62.41063 62.376904,62.376904 0 0 1 62.42749,62.30938" />
    <path
       style="opacity:1;fill:#929001;fill-opacity:1;fill-rule:evenodd;stroke:none;stroke-width:0;stroke-miterlimit:4;stroke-dasharray:none;stroke-opacity:1"
       id="path4136-5-1"
       sodipodi:type="arc"
       sodipodi:cx="504.67007"
       sodipodi:cy="178.26881"
       sodipodi:rx="62.376896"
       sodipodi:ry="62.376896"
       sodipodi:start="0"
       sodipodi:end="6.2821032"
       sodipodi:open="true"
       d="m 567.04697,178.26881 a 62.376896,62.376896 0 0 1 -62.36002,62.3769 62.376896,62.376896 0 0 1 -62.39376,-62.34315 62.376896,62.376896 0 0 1 62.32626,-62.41062 62.376896,62.376896 0 0 1 62.42748,62.30938" />
    <path
       style="opacity:1;fill:#929001;fill-opacity:1;fill-rule:evenodd;stroke:none;stroke-width:0;stroke-miterlimit:4;stroke-dasharray:none;stroke-opacity:1"
       d="m 493.26463,275.03232 c 7.60365,0 15.20729,0 22.81095,0 0,-20.9036 0,-41.8073 0,-62.711 -7.60366,0 -15.2073,0 -22.81095,0 0,20.9037 0,41.8074 0,62.711 z"
       id="rect4199-5-2"
       inkscape:connector-curvature="0" />
    <path
       style="opacity:1;fill:#f4f390;fill-opacity:0.67298578;fill-rule:evenodd;stroke:none;stroke-width:0;stroke-miterlimit:4;stroke-dasharray:none;stroke-opacity:1"
       d="m 503.39794,252.74672 c -32.15242,-0.325 -59.76587,31.8527 -54.69171,63.60479 3.50069,29.67 33.2765,53.3087 63.03818,48.767 28.1481,-3.4121 51.38734,-30.1417 49.37227,-58.5104 -1.16215,-28.40159 -25.99405,-54.07829 -54.95507,-53.83989 -0.92114,-0.03 -1.8422,-0.032 -2.76367,-0.021 z"
       id="path4136-3-70"
       inkscape:connector-curvature="0" />
    <path
       style="opacity:1;fill:#f4f390;fill-opacity:0.67298578;fill-rule:evenodd;stroke:none;stroke-width:0;stroke-miterlimit:4;stroke-dasharray:none;stroke-opacity:1"
       d="m 503.39794,121.93205 c -32.15242,-0.32509 -59.76586,31.8527 -54.69171,63.60468 3.50069,29.66999 33.2765,53.30869 63.03818,48.76699 28.14809,-3.4121 51.38733,-30.14169 49.37226,-58.51037 -1.16215,-28.4015 -25.99405,-54.07828 -54.95506,-53.83981 -0.92114,-0.0304 -1.8422,-0.0324 -2.76367,-0.0215 z"
       id="path4136-3-3-9"
       inkscape:connector-curvature="0" />
    <path
       style="opacity:1;fill:#d4d361;fill-opacity:1;fill-rule:evenodd;stroke:none;stroke-width:0;stroke-miterlimit:4;stroke-dasharray:none;stroke-opacity:1"
       d="m 499.22019,269.03822 c 6.19157,0 5.9217,-0.01 10.89982,-0.01 l -0.0893,-50.7241 c -5.08509,0 -5.47529,0.022 -10.81053,0.022 z"
       id="rect4199-5-6-3"
       inkscape:connector-curvature="0"
       sodipodi:nodetypes="ccccc" />
  </g>
</svg>
