<?xml version="1.0" encoding="UTF-8" standalone="no"?>
<!-- Created with Inkscape (http://www.inkscape.org/) -->

<svg
   xmlns:dc="http://purl.org/dc/elements/1.1/"
   xmlns:cc="http://creativecommons.org/ns#"
   xmlns:rdf="http://www.w3.org/1999/02/22-rdf-syntax-ns#"
   xmlns:svg="http://www.w3.org/2000/svg"
   xmlns="http://www.w3.org/2000/svg"
   xmlns:sodipodi="http://sodipodi.sourceforge.net/DTD/sodipodi-0.dtd"
   xmlns:inkscape="http://www.inkscape.org/namespaces/inkscape"
   width="50mm"
   height="50mm"
   viewBox="0 0 177.16535 177.16535"
   id="svg2"
   version="1.1"
   inkscape:version="0.91 r13725"
   sodipodi:docname="hourglass.svg">
  <defs
     id="defs4" />
  <sodipodi:namedview
     id="base"
     pagecolor="#ffffff"
     bordercolor="#666666"
     borderopacity="1.0"
     inkscape:pageopacity="0.0"
     inkscape:pageshadow="2"
     inkscape:zoom="1.4"
     inkscape:cx="220.45572"
     inkscape:cy="124.65956"
     inkscape:document-units="px"
     inkscape:current-layer="layer1"
     showgrid="false"
     inkscape:showpageshadow="false"
     borderlayer="false"
     inkscape:snap-intersection-paths="false"
     inkscape:object-paths="true"
     inkscape:snap-smooth-nodes="false"
     inkscape:object-nodes="true"
     inkscape:snap-midpoints="true"
     inkscape:snap-nodes="true"
     inkscape:window-width="1366"
     inkscape:window-height="697"
     inkscape:window-x="-4"
     inkscape:window-y="-4"
     inkscape:window-maximized="1" />
  <metadata
     id="metadata7">
    <rdf:RDF>
      <cc:Work
         rdf:about="">
        <dc:format>image/svg+xml</dc:format>
        <dc:type
           rdf:resource="http://purl.org/dc/dcmitype/StillImage" />
        <dc:title />
      </cc:Work>
    </rdf:RDF>
  </metadata>
  <g
     inkscape:label="Layer 1"
     inkscape:groupmode="layer"
     id="layer1"
     transform="translate(0,-875.19685)">
    <path
       style="opacity:1;fill:#87a8c8;fill-opacity:1;fill-rule:evenodd;stroke:none;stroke-width:0;stroke-miterlimit:4;stroke-dasharray:none;stroke-opacity:1"
       d="m 88.531863,966.79221 a 62.376926,62.376926 0 0 0 -62.326172,62.41209 l 124.751959,0 a 62.376926,62.376926 0 0 0 0.002,-0.035 l 0,-0.066 A 62.376926,62.376926 0 0 0 88.531863,966.79221 Z"
       id="path4136"
       inkscape:connector-curvature="0" />
    <path
       style="opacity:1;fill:#87a8c8;fill-opacity:1;fill-rule:evenodd;stroke:none;stroke-width:0;stroke-miterlimit:4;stroke-dasharray:none;stroke-opacity:1"
       d="m 26.207713,898.35471 a 62.376918,62.376918 0 0 0 -0.002,0.0332 62.376918,62.376918 0 0 0 62.394531,62.34375 62.376918,62.376918 0 0 0 62.359376,-62.37696 l -124.751954,0 z"
       id="path4136-5"
       inkscape:connector-curvature="0" />
    <path
       style="opacity:1;fill:#87a8c8;fill-opacity:1;fill-rule:evenodd;stroke:none;stroke-width:0;stroke-miterlimit:4;stroke-dasharray:none;stroke-opacity:1"
       d="m 77.17719,995.11837 c 7.603651,0 15.207302,0 22.810953,0 0,-20.90364 0,-41.80729 0,-62.71093 -7.603651,0 -15.207302,0 -22.810953,0 0,20.90364 0,41.80729 0,62.71093 z"
       id="rect4199-5"
       inkscape:connector-curvature="0" />
    <path
       style="opacity:1;fill:#bed4ea;fill-opacity:1;fill-rule:evenodd;stroke:none;stroke-width:0;stroke-miterlimit:4;stroke-dasharray:none;stroke-opacity:1"
       d="m 87.306195,972.83323 c -29.708042,-0.30038 -55.519849,27.1491 -55.273438,56.37107 l 113.101573,0 c -0.016,-0.8348 -0.0498,-1.6715 -0.10938,-2.5098 -1.16215,-28.40153 -25.99405,-54.07826 -54.955084,-53.83979 -0.921141,-0.0304 -1.842203,-0.0324 -2.763671,-0.0215 z"
       id="path4136-3"
       inkscape:connector-curvature="0" />
    <path
       style="opacity:1;fill:#bed4ea;fill-opacity:1;fill-rule:evenodd;stroke:none;stroke-width:0;stroke-miterlimit:4;stroke-dasharray:none;stroke-opacity:1"
       d="m 32.028066,898.35471 c 0.01865,2.41601 0.194388,4.84186 0.582031,7.26758 3.500693,29.67001 33.275416,53.30928 63.03711,48.76758 27.328013,-3.31269 50.024923,-28.60355 49.480463,-56.03516 l -113.099604,0 z"
       id="path4136-3-3"
       inkscape:connector-curvature="0" />
    <path
       style="opacity:1;fill:#bed4ea;fill-opacity:1;fill-rule:evenodd;stroke:none;stroke-width:0;stroke-miterlimit:4;stroke-dasharray:none;stroke-opacity:1"
       d="m 83.132752,989.12423 c 6.19158,0 5.92171,-0.006 10.899833,-0.006 l -0.08929,-50.72405 c -5.085092,0 -5.475298,0.022 -10.810547,0.022 z"
       id="rect4199-5-6"
       inkscape:connector-curvature="0"
       sodipodi:nodetypes="ccccc" />
    <rect
       style="opacity:1;fill:#612f1f;fill-opacity:1;fill-rule:evenodd;stroke:none;stroke-width:0;stroke-miterlimit:4;stroke-dasharray:none;stroke-opacity:1"
       id="rect4371"
       width="176.77667"
       height="13.63706"
       x="0.19433042"
       y="875.19684" />
    <rect
       style="opacity:1;fill:#612f1f;fill-opacity:0.99607843;fill-rule:evenodd;stroke:none;stroke-width:0;stroke-miterlimit:4;stroke-dasharray:none;stroke-opacity:1"
       id="rect4371-2"
       width="176.77666"
       height="13.637058"
       x="0.19433805"
       y="1038.7251" />
    <rect
       style="opacity:1;fill:#934d36;fill-opacity:1;fill-rule:evenodd;stroke:none;stroke-width:0;stroke-miterlimit:4;stroke-dasharray:none;stroke-opacity:1"
       id="rect4371-2-6"
       width="146.97714"
       height="9.5207062"
       x="15.094095"
       y="1029.2043" />
    <rect
       style="opacity:1;fill:#934d36;fill-opacity:1;fill-rule:evenodd;stroke:none;stroke-width:0;stroke-miterlimit:4;stroke-dasharray:none;stroke-opacity:1"
       id="rect4371-2-6-1"
       width="146.97713"
       height="9.7016964"
       x="15.094103"
       y="888.65302" />
    <rect
       style="opacity:1;fill:#ffffff;fill-opacity:0.3137255;fill-rule:evenodd;stroke:none;stroke-width:0;stroke-miterlimit:4;stroke-dasharray:none;stroke-opacity:1"
       id="rect4371-2-6-1-7"
       width="36.693779"
       height="9.7016954"
       x="32.028065"
       y="888.65302" />
    <rect
       style="opacity:1;fill:#ffffff;fill-opacity:0.3137255;fill-rule:evenodd;stroke:none;stroke-width:0;stroke-miterlimit:4;stroke-dasharray:none;stroke-opacity:1"
       id="rect4371-2-6-1-7-9"
       width="36.693775"
       height="9.7016945"
       x="32.032757"
       y="1029.2043" />
    <rect
       style="opacity:1;fill:#ffffff;fill-opacity:0.3137255;fill-rule:evenodd;stroke:none;stroke-width:0;stroke-miterlimit:4;stroke-dasharray:none;stroke-opacity:1"
       id="rect4371-2-2"
       width="41.075302"
       height="13.637056"
       x="15.094103"
       y="875.01593" />
    <rect
       style="opacity:1;fill:#ffffff;fill-opacity:0.3137255;fill-rule:evenodd;stroke:none;stroke-width:0;stroke-miterlimit:4;stroke-dasharray:none;stroke-opacity:1"
       id="rect4371-2-2-2"
       width="41.075298"
       height="13.637054"
       x="15.094095"
       y="1038.7251" />
    <path
       style="opacity:1;fill:#f0ea3e;fill-opacity:1;fill-rule:evenodd;stroke:none;stroke-width:0;stroke-miterlimit:4;stroke-dasharray:none;stroke-opacity:1"
       d="M 39.835938 36.365234 C 40.139506 37.342593 40.466994 38.317472 40.847656 39.283203 C 47.358829 58.484758 66.717308 72.197842 86.650391 73.40625 L 86.650391 121.25781 L 68.818359 154.00781 L 88.582031 154.00781 L 108.34766 154.00781 L 90.515625 121.26172 L 90.515625 73.480469 C 96.746681 73.343814 102.95633 71.956497 108.77148 69.076172 C 122.47586 63.15927 132.87881 50.578397 137.14648 36.365234 L 39.835938 36.365234 z "
       transform="translate(0,875.19685)"
       id="path4136-3-7-7" />
    <path
       style="opacity:1;fill:#aff490;fill-opacity:0.67298578;fill-rule:evenodd;stroke:none;stroke-width:1;stroke-miterlimit:4;stroke-dasharray:none;stroke-opacity:1"
       id="path4731"
       r="40.406101"
       cy="775.58038"
       cx="-432.34528" />
    <path
       style="opacity:1;fill:#d1cd31;fill-opacity:1;fill-rule:evenodd;stroke:none;stroke-width:0;stroke-miterlimit:4;stroke-dasharray:none;stroke-opacity:1"
       d="M 87.306641 36.365234 L 87.306641 154.00781 L 88.582031 154.00781 L 108.34766 154.00781 L 90.515625 121.26172 L 90.515625 73.480469 C 96.746676 73.343819 102.95633 71.956502 108.77148 69.076172 C 122.47587 63.159271 132.87881 50.578396 137.14648 36.365234 L 87.306641 36.365234 z "
       transform="translate(0,875.19685)"
       id="path4136-3-7-7-31" />
    <path
       style="opacity:1;fill:#ffffff;fill-opacity:0.86274511;fill-rule:evenodd;stroke:none;stroke-width:0;stroke-miterlimit:4;stroke-dasharray:none;stroke-opacity:1"
       d="m 43.310547,904.49177 c 0.30357,0.97736 0.631049,1.95224 1.011719,2.91797 1.609918,4.74768 4.01061,9.15684 7.005859,13.12695 l 23.660156,0 c -2.053589,-5.04984 -3.828344,-10.41098 -5.265625,-16.04492 l -26.412109,0 z m 14.472656,23.11719 c 7.849852,7.149 17.875991,11.99074 28.292969,13.50391 -2.883631,-4.10138 -5.541248,-8.62485 -7.927734,-13.50391 l -20.365235,0 z"
       id="path4136-3-7-7-3"
       inkscape:connector-curvature="0" />
    <path
       style="opacity:1;fill:#ffffff;fill-opacity:0.86274511;fill-rule:evenodd;stroke:none;stroke-width:0;stroke-miterlimit:4;stroke-dasharray:none;stroke-opacity:1"
       d="M 64.132812 113.85742 C 56.78337 116.78065 50.527409 122.41461 46.5625 129.30859 L 59.246094 129.30859 C 60.592817 123.77034 62.237805 118.56795 64.132812 113.85742 z M 43.662109 135.73633 C 42.577244 139.0133 41.996058 142.44916 42.025391 145.92773 L 56.265625 145.92773 C 56.679168 142.45053 57.222112 139.0518 57.859375 135.73633 L 43.662109 135.73633 z "
       transform="translate(0,875.19685)"
       id="path4136-3-2" />
  </g>
  <g
     inkscape:groupmode="layer"
     id="layer2"
     inkscape:label="Layer 2"
     style="display:none">
    <path
       style="opacity:1;fill:#929001;fill-opacity:1;fill-rule:evenodd;stroke:none;stroke-width:0;stroke-miterlimit:4;stroke-dasharray:none;stroke-opacity:1"
       id="path4136-6"
       sodipodi:type="arc"
       sodipodi:cx="477.19806"
       sodipodi:cy="57.368801"
       sodipodi:rx="62.376904"
       sodipodi:ry="62.376904"
       sodipodi:start="0"
       sodipodi:end="6.2821032"
       sodipodi:open="true"
       d="M 539.57496,57.368801 A 62.376904,62.376904 0 0 1 477.21493,119.7457 62.376904,62.376904 0 0 1 414.82116,57.40255 62.376904,62.376904 0 0 1 477.14744,-5.0080819 62.376904,62.376904 0 0 1 539.57493,57.301303" />
    <path
       style="opacity:1;fill:#f4f390;fill-opacity:0.67298578;fill-rule:evenodd;stroke:none;stroke-width:0;stroke-miterlimit:4;stroke-dasharray:none;stroke-opacity:1"
       d="M 475.89781,1.0318884 C 443.74538,0.70679835 416.13194,32.884584 421.2061,64.636561 c 3.50068,29.669996 33.27649,53.308699 63.03818,48.766999 28.14808,-3.4121 51.38734,-30.141702 49.37227,-58.510398 C 532.4544,26.491635 507.62248,0.81490835 478.66148,1.0533784 c -0.92114,-0.0304 -1.8422,-0.0324 -2.76367,-0.0215 z"
       id="path4136-3-7"
       inkscape:connector-curvature="0" />
    <path
       style="opacity:1;fill:#929001;fill-opacity:1;fill-rule:evenodd;stroke:none;stroke-width:0;stroke-miterlimit:4;stroke-dasharray:none;stroke-opacity:1"
       id="path4136-9"
       sodipodi:type="arc"
       sodipodi:cx="504.67007"
       sodipodi:cy="309.08368"
       sodipodi:rx="62.376904"
       sodipodi:ry="62.376904"
       sodipodi:start="0"
       sodipodi:end="6.2821032"
       sodipodi:open="true"
       d="m 567.04698,309.08368 a 62.376904,62.376904 0 0 1 -62.36003,62.3769 62.376904,62.376904 0 0 1 -62.39377,-62.34315 62.376904,62.376904 0 0 1 62.32627,-62.41063 62.376904,62.376904 0 0 1 62.42749,62.30938" />
    <path
       style="opacity:1;fill:#929001;fill-opacity:1;fill-rule:evenodd;stroke:none;stroke-width:0;stroke-miterlimit:4;stroke-dasharray:none;stroke-opacity:1"
       id="path4136-5-1"
       sodipodi:type="arc"
       sodipodi:cx="504.67007"
       sodipodi:cy="178.26881"
       sodipodi:rx="62.376896"
       sodipodi:ry="62.376896"
       sodipodi:start="0"
       sodipodi:end="6.2821032"
       sodipodi:open="true"
       d="m 567.04697,178.26881 a 62.376896,62.376896 0 0 1 -62.36002,62.3769 62.376896,62.376896 0 0 1 -62.39376,-62.34315 62.376896,62.376896 0 0 1 62.32626,-62.41062 62.376896,62.376896 0 0 1 62.42748,62.30938" />
    <path
       style="opacity:1;fill:#929001;fill-opacity:1;fill-rule:evenodd;stroke:none;stroke-width:0;stroke-miterlimit:4;stroke-dasharray:none;stroke-opacity:1"
       d="m 493.26463,275.03232 c 7.60365,0 15.20729,0 22.81095,0 0,-20.9036 0,-41.8073 0,-62.711 -7.60366,0 -15.2073,0 -22.81095,0 0,20.9037 0,41.8074 0,62.711 z"
       id="rect4199-5-2"
       inkscape:connector-curvature="0" />
    <path
       style="opacity:1;fill:#f4f390;fill-opacity:0.67298578;fill-rule:evenodd;stroke:none;stroke-width:0;stroke-miterlimit:4;stroke-dasharray:none;stroke-opacity:1"
       d="m 503.39794,252.74672 c -32.15242,-0.325 -59.76587,31.8527 -54.69171,63.60479 3.50069,29.67 33.2765,53.3087 63.03818,48.767 28.1481,-3.4121 51.38734,-30.1417 49.37227,-58.5104 -1.16215,-28.40159 -25.99405,-54.07829 -54.95507,-53.83989 -0.92114,-0.03 -1.8422,-0.032 -2.76367,-0.021 z"
       id="path4136-3-70"
       inkscape:connector-curvature="0" />
    <path
       style="opacity:1;fill:#f4f390;fill-opacity:0.67298578;fill-rule:evenodd;stroke:none;stroke-width:0;stroke-miterlimit:4;stroke-dasharray:none;stroke-opacity:1"
       d="m 503.39794,121.93205 c -32.15242,-0.32509 -59.76586,31.8527 -54.69171,63.60468 3.50069,29.66999 33.2765,53.30869 63.03818,48.76699 28.14809,-3.4121 51.38733,-30.14169 49.37226,-58.51037 -1.16215,-28.4015 -25.99405,-54.07828 -54.95506,-53.83981 -0.92114,-0.0304 -1.8422,-0.0324 -2.76367,-0.0215 z"
       id="path4136-3-3-9"
       inkscape:connector-curvature="0" />
    <path
       style="opacity:1;fill:#d4d361;fill-opacity:1;fill-rule:evenodd;stroke:none;stroke-width:0;stroke-miterlimit:4;stroke-dasharray:none;stroke-opacity:1"
       d="m 499.22019,269.03822 c 6.19157,0 5.9217,-0.01 10.89982,-0.01 l -0.0893,-50.7241 c -5.08509,0 -5.47529,0.022 -10.81053,0.022 z"
       id="rect4199-5-6-3"
       inkscape:connector-curvature="0"
       sodipodi:nodetypes="ccccc" />
  </g>
</svg>
