<?xml version="1.0" encoding="UTF-8" standalone="no"?>
<!-- Created with Inkscape (http://www.inkscape.org/) -->

<svg
   xmlns:dc="http://purl.org/dc/elements/1.1/"
   xmlns:cc="http://creativecommons.org/ns#"
   xmlns:rdf="http://www.w3.org/1999/02/22-rdf-syntax-ns#"
   xmlns:svg="http://www.w3.org/2000/svg"
   xmlns="http://www.w3.org/2000/svg"
   xmlns:sodipodi="http://sodipodi.sourceforge.net/DTD/sodipodi-0.dtd"
   xmlns:inkscape="http://www.inkscape.org/namespaces/inkscape"
   width="50mm"
   height="50mm"
   viewBox="0 0 177.16535 177.16535"
   id="svg2"
   version="1.1"
   inkscape:version="0.92.4 (unknown)"
   sodipodi:docname="off.svg">
  <defs
     id="defs4" />
  <sodipodi:namedview
     id="base"
     pagecolor="#ffffff"
     bordercolor="#666666"
     borderopacity="1.0"
     inkscape:pageopacity="0.0"
     inkscape:pageshadow="2"
     inkscape:zoom="1"
     inkscape:cx="-10.547244"
     inkscape:cy="34.862865"
     inkscape:document-units="px"
     inkscape:current-layer="g4193"
     showgrid="false"
     inkscape:showpageshadow="false"
     inkscape:object-paths="true"
     inkscape:snap-intersection-paths="true"
     inkscape:object-nodes="true"
     inkscape:snap-smooth-nodes="true"
     inkscape:snap-midpoints="true"
     inkscape:snap-object-midpoints="false"
     inkscape:window-width="1366"
     inkscape:window-height="723"
     inkscape:window-x="0"
     inkscape:window-y="0"
     inkscape:window-maximized="1" />
  <metadata
     id="metadata7">
    <rdf:RDF>
      <cc:Work
         rdf:about="">
        <dc:format>image/svg+xml</dc:format>
        <dc:type
           rdf:resource="http://purl.org/dc/dcmitype/StillImage" />
        <dc:title />
      </cc:Work>
    </rdf:RDF>
  </metadata>
  <g
     inkscape:label="Layer 1"
     inkscape:groupmode="layer"
     id="layer1"
     transform="translate(0,-875.19685)"
     style="display:none">
    <path
       inkscape:connector-curvature="0"
       style="opacity:1;fill:#e5bd41;fill-opacity:1;fill-rule:evenodd;stroke:none;stroke-width:7;stroke-miterlimit:4;stroke-dasharray:none;stroke-opacity:1"
       d="m 63.352198,917.29252 a 50.507638,50.507638 0 0 0 -25.277344,43.70117 50.507638,50.507638 0 0 0 50.507815,50.50781 50.507638,50.507638 0 0 0 50.507811,-50.50781 50.507638,50.507638 0 0 0 -25.28516,-43.68554 l -9.20117,15.93554 a 32.07235,32.07235 0 0 1 16.05078,27.75 32.07235,32.07235 0 0 1 -32.072261,32.07227 32.07235,32.07235 0 0 1 -32.072268,-32.07227 32.07235,32.07235 0 0 1 16.05664,-27.74023 l -9.214843,-15.96094 z"
       id="path4136" />
    <path
       transform="matrix(0,-1,1,0,0,0)"
       d="m -962.00325,213.34807 a 90.408653,90.408653 0 0 1 0,90.40866 l -78.29615,-45.20433 z"
       sodipodi:end="0.52359878"
       sodipodi:start="5.7595865"
       sodipodi:ry="90.408653"
       sodipodi:rx="90.408653"
       sodipodi:cy="258.5524"
       sodipodi:cx="-1040.2994"
       sodipodi:type="arc"
       id="path4141"
       style="opacity:1;fill:#e5bd41;fill-opacity:1;fill-rule:evenodd;stroke:none;stroke-width:7;stroke-miterlimit:4;stroke-dasharray:none;stroke-opacity:1" />
    <ellipse
       ry="9.2154455"
       rx="9.2154388"
       cy="925.83252"
       cx="257.49829"
       id="ellipse4169"
       style="opacity:1;fill:#75e541;fill-opacity:1;fill-rule:evenodd;stroke:none;stroke-width:7;stroke-miterlimit:4;stroke-dasharray:none;stroke-opacity:1" />
    <rect
       style="opacity:1;fill:#75e541;fill-opacity:1;fill-rule:evenodd;stroke:none;stroke-width:7;stroke-miterlimit:4;stroke-dasharray:none;stroke-opacity:1"
       id="rect4176"
       width="18.430878"
       height="45.873104"
       x="79.367226"
       y="913.73633" />
    <path
       style="opacity:1;fill:#75e541;fill-opacity:1;fill-rule:evenodd;stroke:none;stroke-width:7;stroke-miterlimit:4;stroke-dasharray:none;stroke-opacity:1"
       d="m 221.26985,901.12542 a 9.2154388,9.2154455 0 0 1 -9.21544,9.21545 9.2154388,9.2154455 0 0 1 -9.21544,-9.21545 9.2154388,9.2154455 0 0 1 9.21544,-9.21544 9.2154388,9.2154455 0 0 1 9.21544,9.21544 z"
       id="ellipse4178"
       inkscape:connector-curvature="0" />
    <ellipse
       style="opacity:1;fill:#75e541;fill-opacity:1;fill-rule:evenodd;stroke:none;stroke-width:7;stroke-miterlimit:4;stroke-dasharray:none;stroke-opacity:1"
       id="ellipse4186"
       cx="88.582664"
       cy="959.60944"
       rx="9.2154388"
       ry="9.2154455" />
    <ellipse
       ry="9.2154455"
       rx="9.2154388"
       cy="913.73633"
       cx="88.582664"
       id="ellipse4188"
       style="opacity:1;fill:#75e541;fill-opacity:1;fill-rule:evenodd;stroke:none;stroke-width:7;stroke-miterlimit:4;stroke-dasharray:none;stroke-opacity:1" />
    <path
       style="opacity:1;fill:#41e5b1;fill-opacity:0.32701422;fill-rule:evenodd;stroke:none;stroke-width:7;stroke-miterlimit:4;stroke-dasharray:none;stroke-opacity:1"
       d="m 546.85625,477.38603 c -41.98507,-0.0173 -79.79246,38.79199 -78.09717,81.03116 0.26806,37.95544 30.82815,73.81357 68.73194,78.21887 37.64164,5.4949 77.56732,-18.7388 87.9042,-55.80308 10.33143,-33.88661 -3.90619,-74.45506 -35.34952,-91.945 -12.95582,-7.73427 -28.08596,-11.8709 -43.18945,-11.50195 z"
       id="circle4211"
       inkscape:connector-curvature="0" />
  </g>
  <g
     transform="translate(0,-875.19685)"
     id="g4193"
     inkscape:groupmode="layer"
     inkscape:label="Layer 1 copy">
    <g
       id="g3575"
       transform="translate(1.4058577,2.3645952)">
      <path
         inkscape:connector-curvature="0"
         id="path4221-9"
         d="m 87.176816,883.14143 a 78.294395,78.294395 0 0 0 -6.665043,0.33325 78.294404,78.294404 0 0 0 -3.912956,0.47425 78.294395,78.294395 0 0 0 -3.841556,0.58044 78.294404,78.294404 0 0 0 -3.841556,0.86243 78.294395,78.294395 0 0 0 -3.751828,0.95764 78.294404,78.294404 0 0 0 -3.777469,1.2561 78.294395,78.294395 0 0 0 -3.609009,1.31653 78.294404,78.294404 0 0 0 -3.598022,1.60949 78.294395,78.294395 0 0 0 -3.510131,1.69739 78.294404,78.294404 0 0 0 -3.389278,1.94459 78.294395,78.294395 0 0 0 -3.336178,2.04346 78.294404,78.294404 0 0 0 -3.164063,2.26135 78.294395,78.294395 0 0 0 -3.14759,2.39501 78.294404,78.294404 0 0 0 -2.896725,2.54517 78.294395,78.294395 0 0 0 -2.887575,2.68798 78.294404,78.294404 0 0 0 -2.687991,2.88758 78.294395,78.294395 0 0 0 -2.545162,2.89673 78.294404,78.294404 0 0 0 -2.395022,3.14758 78.294395,78.294395 0 0 0 -2.261353,3.16407 78.294404,78.294404 0 0 0 -2.0343,3.31969 78.294395,78.294395 0 0 0 -1.96289,3.42042 78.294404,78.294404 0 0 0 -1.679072,3.47717 78.294395,78.294395 0 0 0 -1.614994,3.60901 78.294404,78.294404 0 0 0 -1.338497,3.67126 78.294395,78.294395 0 0 0 -1.22864,3.69873 78.294404,78.294404 0 0 0 -0.972291,3.8031 78.294395,78.294395 0 0 0 -0.856931,3.81409 78.294404,78.294404 0 0 0 -0.5804438,3.84155 78.294395,78.294395 0 0 0 -0.4742437,3.91297 78.294404,78.294404 0 0 0 -0.3332532,6.66321 78.294404,78.294404 0 0 0 0,0.002 78.294395,78.294395 0 0 0 0.3332532,6.66321 78.294404,78.294404 0 0 0 0.4742437,3.91296 78.294395,78.294395 0 0 0 0.5804438,3.84339 78.294404,78.294404 0 0 0 0.860597,3.83057 78.294395,78.294395 0 0 0 0.961303,3.76831 78.294404,78.294404 0 0 0 1.24694,3.75182 78.294395,78.294395 0 0 0 1.327519,3.63465 78.294404,78.294404 0 0 0 1.611328,3.60168 78.294395,78.294395 0 0 0 1.688231,3.49366 78.294404,78.294404 0 0 0 1.940916,3.38568 78.294395,78.294395 0 0 0 2.056275,3.3545 78.294404,78.294404 0 0 0 2.276006,3.1805 78.294395,78.294395 0 0 0 2.354738,3.0981 78.294404,78.294404 0 0 0 2.594596,2.9535 78.294395,78.294395 0 0 0 2.658694,2.8546 78.294404,78.294404 0 0 0 2.8656,2.6697 78.294395,78.294395 0 0 0 2.933353,2.5763 78.294404,78.294404 0 0 0 3.120112,2.3712 78.294395,78.294395 0 0 0 3.176888,2.2724 78.294404,78.294404 0 0 0 3.345328,2.0508 78.294395,78.294395 0 0 0 3.370978,1.9335 78.294404,78.294404 0 0 0 3.543084,1.7121 78.294395,78.294395 0 0 0 3.555909,1.593 78.294404,78.294404 0 0 0 3.702394,1.3495 78.294395,78.294395 0 0 0 3.66944,1.2195 78.294404,78.294404 0 0 0 3.819572,0.9759 78.294395,78.294395 0 0 0 3.801272,0.8533 78.294404,78.294404 0 0 0 3.885497,0.5878 78.294395,78.294395 0 0 0 3.852543,0.4669 78.294404,78.294404 0 0 0 6.687009,0.3351 78.294395,78.294395 0 0 0 78.294064,-78.29413 78.294395,78.294395 0 0 0 -78.294064,-78.29406 z"
         style="opacity:1;fill:#e25243;fill-opacity:1;fill-rule:evenodd;stroke:#404040;stroke-width:11.25;stroke-miterlimit:4;stroke-dasharray:none;stroke-opacity:1" />
      <g
         transform="matrix(0.8883149,0,0,0.8883149,1.2636826,98.072244)"
         id="g10571">
        <circle
           style="opacity:1;fill:#e25243;fill-opacity:1;fill-rule:evenodd;stroke:none;stroke-width:7;stroke-miterlimit:4;stroke-dasharray:none;stroke-opacity:1"
           id="path4221"
           cx="96.714355"
           cy="971.91125"
           r="88.138107" />
        <path
           id="path4195"
           d="m 68.919519,920.69937 a 55.641129,55.641129 0 0 0 -27.846481,48.14287 55.641129,55.641129 0 0 0 55.641324,55.64136 55.641129,55.641129 0 0 0 55.641318,-55.64136 55.641129,55.641129 0 0 0 -27.85509,-48.12565 l -10.13636,17.5552 a 35.332116,35.332116 0 0 1 17.68215,30.57045 35.332116,35.332116 0 0 1 -35.332018,35.33206 35.332116,35.332116 0 0 1 -35.332026,-35.33206 35.332116,35.332116 0 0 1 17.688603,-30.55969 z"
           style="opacity:1;fill:#ffffff;fill-opacity:1;fill-rule:evenodd;stroke:none;stroke-width:7;stroke-miterlimit:4;stroke-dasharray:none;stroke-opacity:1"
           inkscape:connector-curvature="0" />
        <rect
           y="916.78174"
           x="86.562279"
           height="50.535549"
           width="20.304153"
           id="rect4201"
           style="opacity:1;fill:#ffffff;fill-opacity:1;fill-rule:evenodd;stroke:none;stroke-width:7;stroke-miterlimit:4;stroke-dasharray:none;stroke-opacity:1" />
        <ellipse
           ry="10.152084"
           rx="10.152077"
           cy="967.31726"
           cx="96.714355"
           id="ellipse4205"
           style="opacity:1;fill:#ffffff;fill-opacity:1;fill-rule:evenodd;stroke:none;stroke-width:7;stroke-miterlimit:4;stroke-dasharray:none;stroke-opacity:1" />
        <ellipse
           style="opacity:1;fill:#ffffff;fill-opacity:1;fill-rule:evenodd;stroke:none;stroke-width:7;stroke-miterlimit:4;stroke-dasharray:none;stroke-opacity:1"
           id="ellipse4207"
           cx="96.714355"
           cy="916.78174"
           rx="10.152077"
           ry="10.152084" />
        <path
           style="opacity:1;fill:#ffffff;fill-opacity:0.31372549;fill-rule:evenodd;stroke:none;stroke-width:7;stroke-miterlimit:4;stroke-dasharray:none;stroke-opacity:1"
           d="M 96.713659,883.77302 A 88.138119,88.138119 0 0 0 8.5761719,971.91051 88.138119,88.138119 0 0 0 96.713659,1060.0501 Z"
           id="circle4223"
           inkscape:connector-curvature="0" />
      </g>
    </g>
  </g>
</svg>
