<?xml version="1.0" encoding="UTF-8" standalone="no"?>
<!-- Created with Inkscape (http://www.inkscape.org/) -->

<svg
   xmlns:dc="http://purl.org/dc/elements/1.1/"
   xmlns:cc="http://creativecommons.org/ns#"
   xmlns:rdf="http://www.w3.org/1999/02/22-rdf-syntax-ns#"
   xmlns:svg="http://www.w3.org/2000/svg"
   xmlns="http://www.w3.org/2000/svg"
   xmlns:sodipodi="http://sodipodi.sourceforge.net/DTD/sodipodi-0.dtd"
   xmlns:inkscape="http://www.inkscape.org/namespaces/inkscape"
   width="50mm"
   height="50mm"
   viewBox="0 0 177.16535 177.16535"
   id="svg2"
   version="1.1"
   inkscape:version="0.92.4 (unknown)"
   sodipodi:docname="options.svg">
  <defs
     id="defs4" />
  <sodipodi:namedview
     id="base"
     pagecolor="#ffffff"
     bordercolor="#666666"
     borderopacity="1.0"
     inkscape:pageopacity="0.0"
     inkscape:pageshadow="2"
     inkscape:zoom="0.98994949"
     inkscape:cx="239.26827"
     inkscape:cy="95.103993"
     inkscape:document-units="px"
     inkscape:current-layer="g4171"
     showgrid="false"
     inkscape:showpageshadow="false"
     inkscape:snap-nodes="true"
     inkscape:object-paths="true"
     inkscape:snap-intersection-paths="true"
     inkscape:object-nodes="true"
     inkscape:snap-smooth-nodes="true"
     inkscape:snap-midpoints="true"
     inkscape:snap-object-midpoints="true"
     inkscape:snap-center="true"
     inkscape:window-width="1366"
     inkscape:window-height="723"
     inkscape:window-x="0"
     inkscape:window-y="0"
     inkscape:window-maximized="1" />
  <metadata
     id="metadata7">
    <rdf:RDF>
      <cc:Work
         rdf:about="">
        <dc:format>image/svg+xml</dc:format>
        <dc:type
           rdf:resource="http://purl.org/dc/dcmitype/StillImage" />
        <dc:title />
      </cc:Work>
    </rdf:RDF>
  </metadata>
  <g
     inkscape:label="Layer 1"
     inkscape:groupmode="layer"
     id="layer1"
     transform="translate(0,-875.19685)"
     style="display:none">
    <path
       inkscape:transform-center-x="51.314295"
       style="fill:#0056be;fill-opacity:1;fill-rule:evenodd;stroke:none;stroke-width:1px;stroke-linecap:butt;stroke-linejoin:miter;stroke-opacity:1"
       d="m 21.151828,950.27752 21.957299,16.209 2.666969,-8.20809 4.941852,-15.20945 2.666972,-8.20811 -27.291245,0.20719 -4.941847,15.20946 z"
       id="path4155"
       inkscape:connector-curvature="0"
       inkscape:transform-center-y="-13.105847" />
    <path
       inkscape:transform-center-y="13.105845"
       inkscape:connector-curvature="0"
       id="path4157"
       d="m 26.093683,992.49103 27.291239,0.20718 -2.666971,-8.20809 -4.941848,-15.20945 -2.66698,-8.20811 -21.957298,16.20901 4.941858,15.20946 z"
       style="fill:#0056be;fill-opacity:1;fill-rule:evenodd;stroke:none;stroke-width:1px;stroke-linecap:butt;stroke-linejoin:miter;stroke-opacity:1"
       inkscape:transform-center-x="51.314296" />
    <path
       inkscape:transform-center-x="29.047006"
       style="fill:#0056be;fill-opacity:1;fill-rule:evenodd;stroke:none;stroke-width:1px;stroke-linecap:butt;stroke-linejoin:miter;stroke-opacity:1"
       d="m 54.904206,1023.7377 22.200854,-15.8738 -6.982219,-5.0728 -12.93793,-9.39999 -6.982238,-5.07289 -8.23641,26.01958 12.937943,9.3999 z"
       id="path4159"
       inkscape:connector-curvature="0"
       inkscape:transform-center-y="42.248423" />
    <path
       inkscape:transform-center-y="55.357164"
       inkscape:connector-curvature="0"
       id="path4161"
       d="m 96.578741,1032.0824 8.630479,-25.8915 -8.630447,10e-5 -15.992181,-10e-5 -8.630519,0 8.63053,25.8916 15.992138,-10e-5 z"
       style="fill:#0056be;fill-opacity:1;fill-rule:evenodd;stroke:none;stroke-width:1px;stroke-linecap:butt;stroke-linejoin:miter;stroke-opacity:1"
       inkscape:transform-center-x="1.8247367e-05" />
    <path
       inkscape:transform-center-x="-29.046978"
       style="fill:#0056be;fill-opacity:1;fill-rule:evenodd;stroke:none;stroke-width:1px;stroke-linecap:butt;stroke-linejoin:miter;stroke-opacity:1"
       d="m 135.19904,1014.3377 -8.23644,-26.01949 -6.98212,5.07293 -12.938,9.39986 -6.98224,5.0729 22.20095,15.8739 12.93785,-9.4001 z"
       id="path4163"
       inkscape:connector-curvature="0"
       inkscape:transform-center-y="42.248468" />
    <path
       inkscape:transform-center-y="13.105845"
       inkscape:connector-curvature="0"
       id="path4165"
       d="m 156.01344,977.28153 -21.95729,-16.20895 -2.66686,8.20808 -4.94196,15.20941 -2.66698,8.20812 27.29139,-0.20714 4.9417,-15.20952 z"
       style="fill:#0056be;fill-opacity:1;fill-rule:evenodd;stroke:none;stroke-width:1px;stroke-linecap:butt;stroke-linejoin:miter;stroke-opacity:1"
       inkscape:transform-center-x="-51.314235" />
    <path
       inkscape:transform-center-x="-51.314325"
       style="fill:#0056be;fill-opacity:1;fill-rule:evenodd;stroke:none;stroke-width:1px;stroke-linecap:butt;stroke-linejoin:miter;stroke-opacity:1"
       d="m 151.07158,935.06806 -27.2912,-0.20714 2.66705,8.20802 4.94174,15.20948 2.66698,8.20812 21.95744,-16.20906 -4.94201,-15.20942 z"
       id="path4167"
       inkscape:connector-curvature="0"
       inkscape:transform-center-y="-13.105812" />
    <path
       inkscape:transform-center-y="-42.24839"
       inkscape:connector-curvature="0"
       id="path4169"
       d="m 122.26107,903.8214 -22.20079,15.87379 6.98224,5.07277 12.93786,9.40005 6.98224,5.0729 8.2365,-26.01967 -12.93805,-9.39984 z"
       style="fill:#0056be;fill-opacity:1;fill-rule:evenodd;stroke:none;stroke-width:1px;stroke-linecap:butt;stroke-linejoin:miter;stroke-opacity:1"
       inkscape:transform-center-x="-29.047038" />
    <path
       inkscape:transform-center-y="-42.248435"
       inkscape:connector-curvature="0"
       id="path4153"
       d="m 41.966258,913.22133 8.236419,26.01953 6.982217,-5.07288 12.937936,-9.39996 6.982229,-5.07289 -22.200865,-15.87377 -12.937936,9.39997 z"
       style="fill:#0056be;fill-opacity:1;fill-rule:evenodd;stroke:none;stroke-width:1px;stroke-linecap:butt;stroke-linejoin:miter;stroke-opacity:1"
       inkscape:transform-center-x="29.047008" />
    <path
       style="fill:#0056be;fill-opacity:1;fill-rule:evenodd;stroke:none;stroke-width:1px;stroke-linecap:butt;stroke-linejoin:miter;stroke-opacity:1"
       d="m 80.586572,895.47665 -8.630495,25.89149 8.630495,0 15.992169,0 8.630509,0 -8.630509,-25.89149 -15.992169,0 z"
       id="path4136"
       inkscape:connector-curvature="0"
       inkscape:transform-center-y="-55.357151" />
    <circle
       style="opacity:1;fill:#0056be;fill-opacity:1;fill-rule:evenodd;stroke:none;stroke-width:7;stroke-miterlimit:4;stroke-dasharray:none;stroke-opacity:1"
       id="path4143"
       cx="88.582664"
       cy="963.77954"
       r="55.357143" />
    <circle
       style="opacity:1;fill:#f5e9e9;fill-opacity:1;fill-rule:evenodd;stroke:none;stroke-width:7;stroke-miterlimit:4;stroke-dasharray:none;stroke-opacity:1"
       id="path4147"
       cx="88.582664"
       cy="963.77954"
       r="39.285713" />
  </g>
  <g
     transform="translate(0,-875.19685)"
     id="g4171"
     inkscape:groupmode="layer"
     inkscape:label="Layer 1 copy">
    <g
       id="g2222"
       transform="translate(-1.3394678,1.4348493)">
      <path
         inkscape:connector-curvature="0"
         id="path4272-0"
         d="m 80.581968,882.57335 -5.648803,16.95373 h -0.0018 a 64.651746,64.651746 0 0 0 -4.432987,1.27075 64.651739,64.651739 0 0 0 -2.774044,0.88258 64.651746,64.651746 0 0 0 -2.6532,0.99425 L 50.589291,892.32005 35.479432,903.29539 v 0.002 l 5.394285,17.03979 v 0.002 a 64.651746,64.651746 0 0 0 -6.080931,8.33862 l -17.850951,0.13367 v 0.002 h -0.0018 l -3.894653,11.99158 -1.875,5.76965 v 0.002 l 14.335326,10.58167 a 64.651746,64.651746 0 0 0 -0.236206,5.18554 64.651739,64.651739 0 0 0 0,0.002 64.651746,64.651746 0 0 0 0.26001,5.16724 l -14.35913,10.59997 v 0.002 l 5.769653,17.7649 17.883911,0.13366 a 64.651739,64.651739 0 0 0 6.031492,8.39362 l -5.375975,16.9848 15.109859,10.979 14.525756,-10.3857 a 64.651746,64.651746 0 0 0 6.086428,2.1698 64.651739,64.651739 0 0 0 3.729862,1.0034 l 5.65246,16.9574 h 0.0018 8.069456 10.60364 l 5.652456,-16.9556 a 64.651739,64.651739 0 0 0 9.86023,-3.1476 l 14.48364,10.3583 15.10987,-10.979 -5.39429,-17.0434 a 64.651739,64.651739 0 0 0 6.0791,-8.33502 l 17.85278,-0.13366 5.77149,-17.7649 -14.33533,-10.58532 a 64.651739,64.651739 0 0 0 0.23438,-5.18372 64.651739,64.651739 0 0 0 -0.25818,-5.16906 l 14.35913,-10.59998 -5.77149,-17.76306 -17.88024,-0.1355 a 64.651739,64.651739 0 0 0 -6.03333,-8.39355 l 5.37598,-16.98669 -15.10987,-10.97718 -14.52392,10.38391 a 64.651739,64.651739 0 0 0 -9.81995,-3.17321 l -5.652456,-16.9574 H 88.65509 Z m 9.338381,54.53613 a 25.235031,25.235031 0 0 1 25.235601,25.23559 25.235031,25.235031 0 0 1 -25.235601,25.23377 25.235031,25.235031 0 0 1 -1.265259,-0.0641 25.235037,25.235037 0 0 1 -7.391972,-1.49963 25.235037,25.235037 0 0 1 -0.01831,-0.007 25.235037,25.235037 0 0 1 -2.277825,-0.96496 25.235031,25.235031 0 0 1 -0.04944,-0.0238 25.235037,25.235037 0 0 1 -2.114868,-1.1554 25.235031,25.235031 0 0 1 -0.146485,-0.0879 25.235037,25.235037 0 0 1 -0.0091,-0.005 25.235037,25.235037 0 0 1 -1.893318,-1.2964 25.235031,25.235031 0 0 1 -0.208735,-0.1593 25.235037,25.235037 0 0 1 -1.695562,-1.42822 25.235031,25.235031 0 0 1 -0.254513,-0.23803 25.235037,25.235037 0 0 1 -1.483153,-1.52711 25.235031,25.235031 0 0 1 -0.285647,-0.32593 25.235037,25.235037 0 0 1 -1.272581,-1.60399 25.235031,25.235031 0 0 1 -0.303956,-0.42664 25.235037,25.235037 0 0 1 -1.032713,-1.60766 25.235031,25.235031 0 0 1 -0.34424,-0.59693 25.235037,25.235037 0 0 1 -0.812991,-1.60218 25.235031,25.235031 0 0 1 -0.313106,-0.69946 25.235037,25.235037 0 0 1 -0.607913,-1.56372 25.235031,25.235031 0 0 1 -0.29114,-0.8789 25.235037,25.235037 0 0 1 -0.408319,-1.47217 25.235031,25.235031 0 0 1 -0.228881,-1.0199 25.235037,25.235037 0 0 1 -0.241706,-1.40442 25.235031,25.235031 0 0 1 -0.139153,-1.14258 25.235037,25.235037 0 0 1 -0.111694,-1.57104 25.235031,25.235031 0 0 1 -0.0293,-0.8606 25.235031,25.235031 0 0 1 0.124509,-2.52136 25.235037,25.235037 0 0 1 23.814693,-22.66846 25.235034,25.235034 0 0 1 0.02747,-0.002 25.235031,25.235031 0 0 1 1.265259,-0.0439 z"
         style="fill:#5795be;fill-opacity:1;fill-rule:evenodd;stroke:#404040;stroke-width:11.25;stroke-linecap:butt;stroke-linejoin:round;stroke-miterlimit:4;stroke-dasharray:none;stroke-opacity:1" />
      <g
         transform="matrix(0.91446586,0,0,0.91446586,8.9161283,81.001444)"
         id="g2187">
        <path
           inkscape:connector-curvature="0"
           id="path4272"
           d="m 78.369275,876.54737 -6.17867,18.54101 a 70.698909,70.698909 0 0 0 -10.783363,3.44228 l -15.837057,-11.32464 -16.523014,12.00313 5.899293,18.63579 a 70.698909,70.698909 0 0 0 -6.650112,9.11958 l -19.5213085,0.14718 -6.3108654,19.42402 15.6774069,11.5716 a 70.698909,70.698909 0 0 0 -0.259425,5.67229 70.698909,70.698909 0 0 0 0.284368,5.65235 l -15.7023499,11.59157 6.3108654,19.42657 19.5562265,0.1471 a 70.698909,70.698909 0 0 0 6.595246,9.1796 l -5.879345,18.5731 16.523014,12.0057 15.884453,-11.3572 a 70.698909,70.698909 0 0 0 10.735967,3.4698 l 6.181164,18.5436 H 98.79356 l 6.18116,-18.541 a 70.698909,70.698909 0 0 0 10.78088,-3.4423 l 15.83954,11.3271 16.52302,-12.0057 -5.8993,-18.6381 a 70.698909,70.698909 0 0 0 6.64762,-9.1146 l 19.52381,-0.1471 6.31087,-19.42656 -15.6774,-11.5741 a 70.698909,70.698909 0 0 0 0.25691,-5.66982 70.698909,70.698909 0 0 0 -0.28188,-5.65236 l 15.70237,-11.59154 -6.31087,-19.42402 -19.55375,-0.14718 a 70.698909,70.698909 0 0 0 -6.59772,-9.17946 l 5.87934,-18.57591 -16.52302,-12.00313 -15.88194,11.35459 a 70.698909,70.698909 0 0 0 -10.73848,-3.46974 l -6.18116,-18.5435 z m 10.212141,59.63652 a 27.595381,27.595381 0 0 1 27.595744,27.59572 27.595381,27.595381 0 0 1 -27.595744,27.59575 27.595381,27.595381 0 0 1 -27.59573,-27.59575 27.595381,27.595381 0 0 1 27.59573,-27.59572 z"
           style="fill:#5795be;fill-opacity:1;fill-rule:evenodd;stroke:none;stroke-width:1px;stroke-linecap:butt;stroke-linejoin:miter;stroke-opacity:1" />
        <path
           style="opacity:1;fill:#e8ae42;fill-opacity:1;fill-rule:evenodd;stroke:none;stroke-width:7;stroke-miterlimit:4;stroke-dasharray:none;stroke-opacity:1"
           d="M 88.581416,913.60693 A 50.17341,50.17341 0 0 0 38.40873,963.77961 50.17341,50.17341 0 0 0 88.581416,1013.9523 50.17341,50.17341 0 0 0 138.7566,963.77961 50.17341,50.17341 0 0 0 88.581416,913.60693 Z m 0,22.57696 a 27.595378,27.595378 0 0 1 27.595734,27.59572 27.595378,27.595378 0 0 1 -27.595734,27.59575 27.595378,27.595378 0 0 1 -27.593224,-27.59575 27.595378,27.595378 0 0 1 27.593224,-27.59572 z"
           id="circle4195"
           inkscape:connector-curvature="0" />
        <path
           style="fill:#ffffff;fill-opacity:0.31372549;fill-rule:evenodd;stroke:none;stroke-width:1px;stroke-linecap:butt;stroke-linejoin:miter;stroke-opacity:1"
           d="m 78.369714,876.54656 -6.178671,18.54099 a 70.698917,70.698917 0 0 0 -10.783361,3.4423 l -15.837051,-11.32465 -16.523015,12.00313 5.899296,18.63579 a 70.698917,70.698917 0 0 0 -6.650115,9.11958 l -19.5213041,0.14717 -6.3108733,19.42402 15.6774064,11.5716 a 70.698917,70.698917 0 0 0 -0.259418,5.6723 70.698917,70.698917 0 0 0 0.284364,5.65236 l -15.7023524,11.59153 6.3108733,19.42652 19.5562251,0.1472 a 70.698917,70.698917 0 0 0 6.595238,9.1795 l -5.87934,18.5733 16.523015,12.0057 15.884444,-11.3571 a 70.698917,70.698917 0 0 0 10.735968,3.4697 l 6.181166,18.5435 h 8.825244 V 991.30468 A 27.595384,27.595384 0 0 1 60.986124,963.77879 27.595384,27.595384 0 0 1 87.197453,936.23295 v -59.68639 z"
           id="path4234"
           inkscape:connector-curvature="0" />
      </g>
    </g>
  </g>
</svg>
