<?xml version="1.0" encoding="UTF-8" standalone="no"?>
<!-- Created with Inkscape (http://www.inkscape.org/) -->

<svg
   xmlns:dc="http://purl.org/dc/elements/1.1/"
   xmlns:cc="http://creativecommons.org/ns#"
   xmlns:rdf="http://www.w3.org/1999/02/22-rdf-syntax-ns#"
   xmlns:svg="http://www.w3.org/2000/svg"
   xmlns="http://www.w3.org/2000/svg"
   xmlns:sodipodi="http://sodipodi.sourceforge.net/DTD/sodipodi-0.dtd"
   xmlns:inkscape="http://www.inkscape.org/namespaces/inkscape"
   width="50mm"
   height="50mm"
   viewBox="0 0 177.16535 177.16535"
   id="svg2"
   version="1.1"
   inkscape:version="0.92.3 (2405546, 2018-03-11)"
   sodipodi:docname="pencil.svg">
  <defs
     id="defs4" />
  <sodipodi:namedview
     id="base"
     pagecolor="#ffffff"
     bordercolor="#666666"
     borderopacity="1.0"
     inkscape:pageopacity="0.0"
     inkscape:pageshadow="2"
     inkscape:zoom="0.125"
     inkscape:cx="2892.3583"
     inkscape:cy="1060.1337"
     inkscape:document-units="px"
     inkscape:current-layer="layer2"
     showgrid="false"
     inkscape:showpageshadow="false"
     borderlayer="false"
     inkscape:snap-intersection-paths="true"
     inkscape:object-paths="true"
     inkscape:snap-smooth-nodes="true"
     inkscape:object-nodes="true"
     inkscape:snap-midpoints="true"
     inkscape:snap-nodes="true"
     inkscape:window-width="1366"
     inkscape:window-height="723"
     inkscape:window-x="0"
     inkscape:window-y="0"
     inkscape:window-maximized="1"
     inkscape:snap-object-midpoints="true"
     inkscape:snap-global="true" />
  <metadata
     id="metadata7">
    <rdf:RDF>
      <cc:Work
         rdf:about="">
        <dc:format>image/svg+xml</dc:format>
        <dc:type
           rdf:resource="http://purl.org/dc/dcmitype/StillImage" />
        <dc:title />
      </cc:Work>
    </rdf:RDF>
  </metadata>
  <g
     inkscape:label="Layer 1"
     inkscape:groupmode="layer"
     id="layer1"
     transform="translate(0,-875.19685)"
     style="display:none">
    <rect
       id="rect32-3-3"
       width="78.602493"
       height="66.005791"
       x="43.562828"
       y="856.7923"
       style="fill:#5795be;fill-opacity:1;stroke-width:0.76020408"
       ry="17.89328" />
    <rect
       id="rect32"
       width="78.602493"
       height="100.38391"
       x="43.562828"
       y="901.78632"
       style="fill:#f38c82;fill-opacity:1;stroke-width:0.93749994" />
    <rect
       y="799.89264"
       x="-339.48834"
       height="23.157862"
       width="176.77667"
       id="rect9867"
       style="opacity:1;fill:#e25243;fill-opacity:1;fill-rule:evenodd;stroke:none;stroke-width:0;stroke-miterlimit:4;stroke-dasharray:none;stroke-opacity:1" />
    <path
       style="fill:#646464;fill-opacity:1;stroke-width:0.56474632"
       d="m 46.466797,135.43945 20.960937,28.38282 13.134766,17.78515 h 15.652344 l 13.134766,-17.78515 20.96094,-28.38282 H 88.388672 Z"
       transform="matrix(0.93749997,0,0,0.93749997,0,875.19685)"
       id="path4584-3"
       inkscape:connector-curvature="0" />
    <path
       style="fill:#ffef5c;fill-opacity:1;stroke-width:0.56474632"
       d="m 46.466797,135.4375 20.960937,28.38477 H 109.34961 L 130.31055,135.4375 H 88.388672 Z"
       transform="matrix(0.93749997,0,0,0.93749997,0,875.19685)"
       id="path4584"
       inkscape:connector-curvature="0" />
    <path
       inkscape:connector-curvature="0"
       style="opacity:1;fill:#ffef5c;fill-opacity:1;fill-rule:evenodd;stroke:none;stroke-width:0;stroke-miterlimit:4;stroke-dasharray:none;stroke-opacity:1"
       d="m -211.36693,823.05048 c 0.30357,0.97736 0.63106,1.95224 1.01172,2.91797 6.51117,19.20155 25.86965,32.91464 45.80274,34.12305 v 47.85156 l -17.83203,32.74999 h 19.76367 19.76563 l -17.83203,-32.74608 v -47.78126 c 6.23105,-0.13665 12.4407,-1.52397 18.25585,-4.40429 13.70438,-5.9169 24.10733,-18.49778 28.375,-32.71094 z"
       id="path4136-3-7-7" />
    <path
       style="fill:#ffef5c;fill-opacity:1;stroke-width:0.52944964"
       inkscape:transform-center-y="8.8698913"
       d="m -137.99195,1043.076 -19.65062,-26.6097 -19.65063,-26.60968 h 39.30125 39.301244 l -19.650624,26.60968 z"
       id="path4584-3-6"
       inkscape:connector-curvature="0" />
    <circle
       id="path33"
       cx="82.86438"
       cy="1042.2428"
       r="8.0348568"
       style="fill:#646464;fill-opacity:1;stroke-width:0.66981912" />
    <rect
       id="rect32-3"
       width="78.602493"
       height="100.38391"
       x="-236.24507"
       y="989.85663"
       style="fill:#e25243;fill-opacity:1;stroke-width:0.93749994" />
    <rect
       id="rect32-7"
       width="39.301247"
       height="100.38391"
       x="82.864075"
       y="901.78625"
       style="fill:#b33c30;fill-opacity:1;stroke-width:0.66291255" />
    <rect
       id="rect32-3-6"
       width="41.772137"
       height="100.38391"
       x="61.978004"
       y="901.78625"
       style="fill:#e25243;fill-opacity:1;stroke-width:0.68343377" />
    <rect
       id="rect32-3-5"
       width="78.602493"
       height="11.991057"
       x="43.562828"
       y="889.79523"
       style="fill:#ffef5c;fill-opacity:1;stroke-width:0.32401711" />
    <path
       style="opacity:1;fill:#5795be;fill-opacity:1;fill-rule:evenodd;stroke:none;stroke-width:0;stroke-miterlimit:4;stroke-dasharray:none;stroke-opacity:1"
       d="m -200.41774,954.05419 a 62.376926,62.376926 0 0 0 -62.32617,62.41211 h 124.75196 a 62.376926,62.376926 0 0 0 0.002,-0.035 v -0.066 a 62.376926,62.376926 0 0 0 -62.42779,-62.31111 z"
       id="path4136"
       inkscape:connector-curvature="0" />
    <path
       style="fill:#ffffff;fill-opacity:0.39215686;stroke-width:0.76020408"
       d="m 61.478575,856.8258 c -9.91288,0 -17.89307,7.98019 -17.89307,17.89306 v 15.10987 11.98974 3.11829 97.26574 0 l 19.65088,26.6089 12.26807,16.6113 a 8.0348568,8.0348568 0 0 0 7.38281,4.8853 V 856.8258 Z"
       id="rect32-3-3-3"
       inkscape:connector-curvature="0" />
    <path
       inkscape:connector-curvature="0"
       style="fill:#5795be;fill-opacity:1;stroke-width:0.76020408"
       d="m -80.597312,987.81978 c -9.912881,0 -17.893068,7.9802 -17.893068,17.89312 v 15.1098 11.9898 3.1182 97.2656 0 l 19.650881,26.6089 12.268068,16.6113 a 8.0348568,8.0348568 0 0 0 7.382812,4.8853 8.0348568,8.0348568 0 0 0 7.404788,-4.9146 l 12.246093,-16.582 19.650871,-26.6089 v 0 -97.2656 -3.1182 -11.9898 -15.1098 c 0,-9.91292 -7.980187,-17.89312 -17.893059,-17.89312 z"
       id="rect32-3-3-3-9" />
    <rect
       id="rect32-7-1"
       width="39.301247"
       height="100.38391"
       x="-63.828888"
       y="829.65356"
       style="fill:#f38c82;fill-opacity:1;stroke-width:0.66291255" />
    <rect
       id="rect32-2"
       width="78.602493"
       height="100.38391"
       x="-142.43138"
       y="855.76141"
       style="fill:#b33c30;fill-opacity:1;stroke-width:0.93749994" />
  </g>
  <g
     inkscape:groupmode="layer"
     id="layer2"
     inkscape:label="Layer 2"
     style="display:inline">
    <path
       style="display:inline;fill:#5795be;fill-opacity:1;stroke:#404040;stroke-width:11.25;stroke-linejoin:round;stroke-miterlimit:4;stroke-dasharray:none;stroke-opacity:1"
       d="m 120.59843,7.4552476 c -4.63209,0 -9.26405,1.7826149 -12.8134,5.3465964 l -10.820506,10.865113 -8.587923,8.621604 -1.715533,1.722601 -0.517057,0.519188 c -5.7e-4,5.76e-4 -9.35e-4,0.0011 -0.0019,0.0017 l -69.650145,69.93899 h -0.0019 l -0.0047,0.0395 -4.977096,33.22455 -0.0066,0.0395 -3.1040551,20.72624 v 0.002 a 8.1371524,8.1706944 0 0 0 -0.4537086,1.58336 8.1371522,8.1706942 0 0 0 -0.011968,0.0687 8.1371524,8.1706944 0 0 0 -0.089016,0.67564 8.1371522,8.1706942 0 0 0 -0.017111,0.25959 8.1371524,8.1706944 0 0 0 -0.015428,0.50543 8.1371522,8.1706942 0 0 0 0.013745,0.42979 8.1371524,8.1706944 0 0 0 0.022254,0.31633 8.1371522,8.1706942 0 0 0 0.085649,0.63437 8.1371524,8.1706944 0 0 0 0.018794,0.11002 8.1371522,8.1706942 0 0 0 2.2291587,4.27556 l 0.02225,-0.0223 a 8.1371524,8.1706944 0 0 0 8.803646,1.77418 l 20.646286,-3.11856 33.127531,-5.00276 v -0.002 l 69.653603,-69.938997 2.23258,-2.241794 8.58622,-8.623323 10.82051,-10.865111 c 7.0987,-7.127965 7.0987,-18.604472 0,-25.732437 L 133.41183,12.801844 c -3.54935,-3.5639815 -8.1813,-5.3465964 -12.8134,-5.3465964 z"
       id="rect32-3-3-7-7"
       inkscape:connector-curvature="0" />
    <g
       id="g1560"
       transform="matrix(0.71610928,0.71906114,-0.71610928,0.71906114,95.764645,-13.963616)">
      <rect
         ry="17.89328"
         style="display:inline;fill:#5795be;fill-opacity:1;stroke-width:0.76020408"
         y="-7.6651835"
         x="26.989704"
         height="66.005791"
         width="78.602493"
         id="rect32-3-3-7" />
      <rect
         style="display:inline;fill:#f38c82;fill-opacity:1;stroke-width:0.93749994"
         y="37.328835"
         x="26.989704"
         height="100.38391"
         width="78.602493"
         id="rect32-0" />
      <path
         inkscape:connector-curvature="0"
         id="path4584-3-9"
         d="m 26.989501,137.71386 19.65088,26.60889 12.31384,16.67358 h 14.67407 l 12.31384,-16.67358 19.650889,-26.60889 H 66.291261 Z"
         style="display:inline;fill:#646464;fill-opacity:1;stroke-width:0.52944964" />
      <path
         inkscape:connector-curvature="0"
         id="path4584-36"
         d="m 26.989501,137.71203 19.65088,26.61072 h 39.30175 L 105.59302,137.71203 H 66.291261 Z"
         style="display:inline;fill:#ffef5c;fill-opacity:1;stroke-width:0.52944964" />
      <circle
         style="display:inline;fill:#646464;fill-opacity:1;stroke-width:0.66981912"
         r="8.0348568"
         cy="177.78532"
         cx="66.29126"
         id="path33-0" />
      <rect
         style="display:inline;fill:#b33c30;fill-opacity:1;stroke-width:0.66291255"
         y="37.328773"
         x="66.290955"
         height="100.38391"
         width="39.301247"
         id="rect32-7-6" />
      <rect
         style="display:inline;fill:#e25243;fill-opacity:1;stroke-width:0.68343377"
         y="37.328773"
         x="45.404881"
         height="100.38391"
         width="41.772137"
         id="rect32-3-6-2" />
      <rect
         style="display:inline;fill:#ffef5c;fill-opacity:1;stroke-width:0.32401711"
         y="25.337746"
         x="26.989704"
         height="11.991057"
         width="78.602493"
         id="rect32-3-5-6" />
      <path
         inkscape:connector-curvature="0"
         id="rect32-3-3-3-1"
         d="m 44.905451,-7.6316788 c -9.91288,0 -17.89307,7.98019 -17.89307,17.8930598 v 15.10987 11.98974 3.11829 97.265739 0 l 19.65088,26.6089 12.26807,16.6113 a 8.0348568,8.0348568 0 0 0 7.38281,4.88531 V -7.6316788 Z"
         style="display:inline;fill:#ffffff;fill-opacity:0.39215686;stroke-width:0.76020408" />
    </g>
  </g>
</svg>
