<?xml version="1.0" encoding="UTF-8" standalone="no"?>
<!-- Created with Inkscape (http://www.inkscape.org/) -->

<svg
   xmlns:dc="http://purl.org/dc/elements/1.1/"
   xmlns:cc="http://creativecommons.org/ns#"
   xmlns:rdf="http://www.w3.org/1999/02/22-rdf-syntax-ns#"
   xmlns:svg="http://www.w3.org/2000/svg"
   xmlns="http://www.w3.org/2000/svg"
   xmlns:sodipodi="http://sodipodi.sourceforge.net/DTD/sodipodi-0.dtd"
   xmlns:inkscape="http://www.inkscape.org/namespaces/inkscape"
   width="256"
   height="256"
   viewBox="0 0 67.733332 67.733335"
   version="1.1"
   id="svg8"
   inkscape:version="0.92.4 (5da689c313, 2019-01-14)"
   sodipodi:docname="progress_base.svg">
  <defs
     id="defs2" />
  <sodipodi:namedview
     id="base"
     pagecolor="#ffffff"
     bordercolor="#666666"
     borderopacity="1.0"
     inkscape:pageopacity="0.0"
     inkscape:pageshadow="2"
     inkscape:zoom="0.54101563"
     inkscape:cx="108.24172"
     inkscape:cy="167.99692"
     inkscape:document-units="mm"
     inkscape:current-layer="layer2"
     showgrid="false"
     units="px"
     inkscape:pagecheckerboard="false"
     inkscape:object-paths="true"
     inkscape:snap-intersection-paths="true"
     inkscape:snap-center="true"
     inkscape:snap-object-midpoints="true"
     inkscape:snap-midpoints="true"
     inkscape:snap-smooth-nodes="true"
     inkscape:snap-bbox="true"
     inkscape:bbox-nodes="true"
     inkscape:snap-bbox-edge-midpoints="true"
     inkscape:snap-bbox-midpoints="true"
     inkscape:bbox-paths="true"
     inkscape:snap-nodes="true"
     inkscape:snap-global="true"
     inkscape:window-width="1366"
     inkscape:window-height="705"
     inkscape:window-x="-8"
     inkscape:window-y="-8"
     inkscape:window-maximized="1" />
  <metadata
     id="metadata5">
    <rdf:RDF>
      <cc:Work
         rdf:about="">
        <dc:format>image/svg+xml</dc:format>
        <dc:type
           rdf:resource="http://purl.org/dc/dcmitype/StillImage" />
        <dc:title />
      </cc:Work>
    </rdf:RDF>
  </metadata>
  <g
     inkscape:groupmode="layer"
     id="layer2"
     inkscape:label="Layer 2"
     style="display:none"
     sodipodi:insensitive="true">
    <circle
       style="fill:#b8ef5c;fill-opacity:1;stroke:none;stroke-width:7.34714127;stroke-linejoin:round;stroke-miterlimit:4;stroke-dasharray:none;stroke-opacity:1;paint-order:stroke markers fill"
       id="path4518-3-0"
       cx="-32.277256"
       cy="5.7056155"
       r="33.493065" />
    <circle
       style="fill:#404040;fill-opacity:1;stroke:none;stroke-width:6;stroke-linejoin:round;stroke-miterlimit:4;stroke-dasharray:none;stroke-opacity:1;paint-order:stroke markers fill"
       id="path6622-2"
       cx="-30.418873"
       cy="52.239918"
       r="9.2919369" />
  </g>
  <g
     inkscape:label="Layer 1"
     inkscape:groupmode="layer"
     id="layer1"
     transform="translate(0,-229.26665)"
     style="display:inline">
    <g
       id="g4653"
       transform="matrix(0.94117647,0,0,0.94117647,64.542099,17.79819)"
       style="fill:#404040;fill-opacity:1">
      <path
         id="path132"
         transform="matrix(0.26458333,0,0,0.26458333,0,229.26665)"
         d="m -188.20703,212.86914 a 27.446975,27.446975 0 0 0 -27.44727,27.44727 27.446975,27.446975 0 0 0 0.67188,5.88086 h 53.56445 a 27.446975,27.446975 0 0 0 0.65625,-5.88086 27.446975,27.446975 0 0 0 -27.44531,-27.44727 z"
         style="fill:#404040;fill-opacity:1;stroke-width:0.99999994"
         inkscape:connector-curvature="0" />
      <rect
         style="fill:#404040;fill-opacity:1;stroke-width:0.26458332"
         y="285.58823"
         x="-49.796703"
         height="8.8181572"
         width="34.408108"
         id="rect134" />
      <path
         inkscape:connector-curvature="0"
         style="fill:#404040;fill-opacity:1;stroke-width:0.26458332"
         d="m -15.388336,285.58827 a 7.262012,7.262012 0 0 0 -7.26209,7.26209 7.262012,7.262012 0 0 0 0.177768,1.55598 h 14.1722604 a 7.262012,7.262012 0 0 0 0.1736328,-1.55598 7.262012,7.262012 0 0 0 -7.2615712,-7.26209 z"
         id="path4648" />
    </g>
    <circle
       style="fill:#404040;fill-opacity:1;stroke:#404040;stroke-width:5.97932959;stroke-linejoin:round;stroke-miterlimit:4;stroke-dasharray:none;stroke-opacity:1;paint-order:stroke markers fill"
       id="path4518"
       cx="33.866665"
       cy="263.13333"
       r="27.257689" />
    <circle
       style="fill:#ffef5c;fill-opacity:1;stroke:none;stroke-width:5.97932959;stroke-linejoin:round;stroke-miterlimit:4;stroke-dasharray:none;stroke-opacity:1;paint-order:stroke markers fill"
       id="path4518-3"
       cx="33.866665"
       cy="263.13333"
       r="27.257689" />
    <path
       style="fill:#ffffff;fill-opacity:0.39215686;stroke:none;stroke-width:5.97932959;stroke-linejoin:round;stroke-miterlimit:4;stroke-dasharray:none;stroke-opacity:1;paint-order:stroke markers fill"
       d="M 33.866814,235.87548 A 27.257688,27.257688 0 0 0 6.6089833,263.13331 27.257688,27.257688 0 0 0 33.866814,290.39115 Z"
       id="path4518-3-6"
       inkscape:connector-curvature="0" />
    <g
       id="g4674"
       transform="matrix(1.0994363,0.79878723,-0.79878723,1.0994363,322.76409,35.131123)"
       inkscape:transform-center-x="-16.493326"
       inkscape:transform-center-y="-23.185002">
      <path
         inkscape:connector-curvature="0"
         id="circle4657"
         d="m -76.413909,235.13524 a 4.7682308,4.7682308 0 0 0 -4.768183,4.76818 h 9.536366 a 4.7682308,4.7682308 0 0 0 -4.768183,-4.76818 z"
         style="fill:#404040;fill-opacity:1;stroke-width:0.26458332" />
      <path
         style="fill:#404040;fill-opacity:1;stroke-width:0.26458332"
         d="m -71.645726,235.13524 a 4.7682308,4.7682308 0 0 0 -4.768183,4.76818 h 9.536366 a 4.7682308,4.7682308 0 0 0 -4.768183,-4.76818 z"
         id="path4667"
         inkscape:connector-curvature="0" />
      <rect
         y="235.13524"
         x="-76.41391"
         height="4.768187"
         width="4.7681837"
         id="rect4669"
         style="fill:#404040;fill-opacity:1;stroke-width:0.05768301" />
    </g>
    <g
       inkscape:transform-center-y="-23.185003"
       inkscape:transform-center-x="16.493326"
       transform="matrix(1.0994363,-0.79878723,0.79878723,1.0994363,-92.248623,-83.137024)"
       id="g4690">
      <path
         style="fill:#404040;fill-opacity:1;stroke-width:0.26458332"
         d="m -76.413909,235.13524 a 4.7682308,4.7682308 0 0 0 -4.768183,4.76818 h 9.536366 a 4.7682308,4.7682308 0 0 0 -4.768183,-4.76818 z"
         id="path4684"
         inkscape:connector-curvature="0" />
      <path
         inkscape:connector-curvature="0"
         id="path4686"
         d="m -71.645726,235.13524 a 4.7682308,4.7682308 0 0 0 -4.768183,4.76818 h 9.536366 a 4.7682308,4.7682308 0 0 0 -4.768183,-4.76818 z"
         style="fill:#404040;fill-opacity:1;stroke-width:0.26458332" />
      <rect
         style="fill:#404040;fill-opacity:1;stroke-width:0.05768301"
         id="rect4688"
         width="4.7681837"
         height="4.768187"
         x="-76.41391"
         y="235.13524" />
    </g>
  </g>
</svg>
