<?xml version="1.0" encoding="UTF-8" standalone="no"?>
<!-- Created with Inkscape (http://www.inkscape.org/) -->

<svg
   xmlns:dc="http://purl.org/dc/elements/1.1/"
   xmlns:cc="http://creativecommons.org/ns#"
   xmlns:rdf="http://www.w3.org/1999/02/22-rdf-syntax-ns#"
   xmlns:svg="http://www.w3.org/2000/svg"
   xmlns="http://www.w3.org/2000/svg"
   xmlns:sodipodi="http://sodipodi.sourceforge.net/DTD/sodipodi-0.dtd"
   xmlns:inkscape="http://www.inkscape.org/namespaces/inkscape"
   width="50mm"
   height="50mm"
   viewBox="0 0 177.16535 177.16535"
   id="svg2"
   version="1.1"
   inkscape:version="0.91 r"
   sodipodi:docname="snooze.svg">
  <defs
     id="defs4" />
  <sodipodi:namedview
     id="base"
     pagecolor="#ffffff"
     bordercolor="#666666"
     borderopacity="1.0"
     inkscape:pageopacity="0.0"
     inkscape:pageshadow="2"
     inkscape:zoom="0.3535534"
     inkscape:cx="-187.84536"
     inkscape:cy="361.89466"
     inkscape:document-units="px"
     inkscape:current-layer="g4193"
     showgrid="false"
     inkscape:showpageshadow="false"
     inkscape:object-paths="true"
     inkscape:snap-intersection-paths="true"
     inkscape:object-nodes="true"
     inkscape:snap-smooth-nodes="true"
     inkscape:snap-midpoints="true"
     inkscape:snap-object-midpoints="false"
     inkscape:window-width="1366"
     inkscape:window-height="696"
     inkscape:window-x="0"
     inkscape:window-y="24"
     inkscape:window-maximized="1"
     inkscape:snap-nodes="false" />
  <metadata
     id="metadata7">
    <rdf:RDF>
      <cc:Work
         rdf:about="">
        <dc:format>image/svg+xml</dc:format>
        <dc:type
           rdf:resource="http://purl.org/dc/dcmitype/StillImage" />
        <dc:title></dc:title>
      </cc:Work>
    </rdf:RDF>
  </metadata>
  <g
     inkscape:label="Layer 1"
     inkscape:groupmode="layer"
     id="layer1"
     transform="translate(0,-875.19685)"
     style="display:none">
    <path
       inkscape:connector-curvature="0"
       style="opacity:1;fill:#e5bd41;fill-opacity:1;fill-rule:evenodd;stroke:none;stroke-width:7;stroke-miterlimit:4;stroke-dasharray:none;stroke-opacity:1"
       d="m 63.352198,917.29252 a 50.507638,50.507638 0 0 0 -25.277344,43.70117 50.507638,50.507638 0 0 0 50.507815,50.50781 50.507638,50.507638 0 0 0 50.507811,-50.50781 50.507638,50.507638 0 0 0 -25.28516,-43.68554 l -9.20117,15.93554 a 32.07235,32.07235 0 0 1 16.05078,27.75 32.07235,32.07235 0 0 1 -32.072261,32.07227 32.07235,32.07235 0 0 1 -32.072268,-32.07227 32.07235,32.07235 0 0 1 16.05664,-27.74023 l -9.214843,-15.96094 z"
       id="path4136" />
    <path
       transform="matrix(0,-1,1,0,0,0)"
       d="m -962.00325,213.34807 a 90.408653,90.408653 0 0 1 0,90.40866 l -78.29615,-45.20433 z"
       sodipodi:end="0.52359878"
       sodipodi:start="5.7595865"
       sodipodi:ry="90.408653"
       sodipodi:rx="90.408653"
       sodipodi:cy="258.5524"
       sodipodi:cx="-1040.2994"
       sodipodi:type="arc"
       id="path4141"
       style="opacity:1;fill:#e5bd41;fill-opacity:1;fill-rule:evenodd;stroke:none;stroke-width:7;stroke-miterlimit:4;stroke-dasharray:none;stroke-opacity:1" />
    <ellipse
       ry="9.2154455"
       rx="9.2154388"
       cy="925.83252"
       cx="257.49829"
       id="ellipse4169"
       style="opacity:1;fill:#75e541;fill-opacity:1;fill-rule:evenodd;stroke:none;stroke-width:7;stroke-miterlimit:4;stroke-dasharray:none;stroke-opacity:1" />
    <rect
       style="opacity:1;fill:#75e541;fill-opacity:1;fill-rule:evenodd;stroke:none;stroke-width:7;stroke-miterlimit:4;stroke-dasharray:none;stroke-opacity:1"
       id="rect4176"
       width="18.430878"
       height="45.873104"
       x="79.367226"
       y="913.73633" />
    <path
       style="opacity:1;fill:#75e541;fill-opacity:1;fill-rule:evenodd;stroke:none;stroke-width:7;stroke-miterlimit:4;stroke-dasharray:none;stroke-opacity:1"
       d="m 221.26985,901.12542 a 9.2154388,9.2154455 0 0 1 -9.21544,9.21545 9.2154388,9.2154455 0 0 1 -9.21544,-9.21545 9.2154388,9.2154455 0 0 1 9.21544,-9.21544 9.2154388,9.2154455 0 0 1 9.21544,9.21544 z"
       id="ellipse4178"
       inkscape:connector-curvature="0" />
    <ellipse
       style="opacity:1;fill:#75e541;fill-opacity:1;fill-rule:evenodd;stroke:none;stroke-width:7;stroke-miterlimit:4;stroke-dasharray:none;stroke-opacity:1"
       id="ellipse4186"
       cx="88.582664"
       cy="959.60944"
       rx="9.2154388"
       ry="9.2154455" />
    <ellipse
       ry="9.2154455"
       rx="9.2154388"
       cy="913.73633"
       cx="88.582664"
       id="ellipse4188"
       style="opacity:1;fill:#75e541;fill-opacity:1;fill-rule:evenodd;stroke:none;stroke-width:7;stroke-miterlimit:4;stroke-dasharray:none;stroke-opacity:1" />
    <path
       style="opacity:1;fill:#41e5b1;fill-opacity:0.32701422;fill-rule:evenodd;stroke:none;stroke-width:7;stroke-miterlimit:4;stroke-dasharray:none;stroke-opacity:1"
       d="m 546.85625,477.38603 c -41.98507,-0.0173 -79.79246,38.79199 -78.09717,81.03116 0.26806,37.95544 30.82815,73.81357 68.73194,78.21887 37.64164,5.4949 77.56732,-18.7388 87.9042,-55.80308 10.33143,-33.88661 -3.90619,-74.45506 -35.34952,-91.945 -12.95582,-7.73427 -28.08596,-11.8709 -43.18945,-11.50195 z"
       id="circle4211"
       inkscape:connector-curvature="0" />
  </g>
  <g
     transform="translate(0,-875.19685)"
     id="g4193"
     inkscape:groupmode="layer"
     inkscape:label="Layer 1 copy"
     style="display:inline">
    <circle
       style="opacity:1;fill:#5d69a9;fill-opacity:1;fill-rule:evenodd;stroke:none;stroke-width:7;stroke-miterlimit:4;stroke-dasharray:none;stroke-opacity:1"
       id="path4209"
       cx="88.582664"
       cy="963.77954"
       r="88" />
    <circle
       style="opacity:1;fill:#909ad0;fill-opacity:1;fill-rule:evenodd;stroke:none;stroke-width:7;stroke-miterlimit:4;stroke-dasharray:none;stroke-opacity:1"
       id="path4221"
       cx="88.582664"
       cy="963.77954"
       r="80.006424" />
    <path
       style="opacity:1;fill:#ffffff;fill-opacity:0.31372549;fill-rule:evenodd;stroke:none;stroke-width:7;stroke-miterlimit:4;stroke-dasharray:none;stroke-opacity:1"
       d="M 88.582031,8.5761719 A 80.006433,80.006433 0 0 0 8.5761719,88.582031 80.006433,80.006433 0 0 0 88.582031,168.58984 l 0,-160.0136681 z"
       transform="translate(0,875.19685)"
       id="circle4223"
       inkscape:connector-curvature="0" />
  </g>
  <g
     inkscape:groupmode="layer"
     id="layer2"
     inkscape:label="Layer 1 copy 1"
     style="display:inline">
    <path
       style="opacity:1;fill:#ffffff;fill-opacity:1;fill-rule:evenodd;stroke:none;stroke-width:7;stroke-miterlimit:4;stroke-dasharray:none;stroke-opacity:1"
       d="M 81.6374,42.391583 A 49.019842,49.019842 0 0 0 32.617868,91.411118 49.019842,49.019842 0 0 0 81.6374,140.4326 49.019842,49.019842 0 0 0 116.09834,126.2451 49.018579,49.018579 0 0 1 67.10615,77.22752 49.018579,49.018579 0 0 1 81.666697,42.393536 a 49.019842,49.019842 0 0 0 -0.0293,-0.002 z"
       id="path4190"
       inkscape:connector-curvature="0" />
    <path
       inkscape:transform-center-y="-0.48495659"
       d="m 149.48274,121.1348 c -0.11885,0.11885 -16.18215,-7.99457 -16.34816,-7.96828 -0.16602,0.0263 -12.93594,12.70645 -13.0857,12.63014 -0.14977,-0.0763 2.60272,-17.8606 2.52641,-18.01036 -0.0763,-0.14976 -16.08197,-8.376297 -16.05568,-8.542311 0.0263,-0.166013 17.79073,-3.04389 17.90958,-3.162743 0.11885,-0.118853 2.99673,-17.883285 3.16275,-17.909579 0.16601,-0.02629 8.39254,15.979372 8.54231,16.05568 0.14976,0.07631 17.93405,-2.676179 18.01036,-2.526416 0.0763,0.149763 -12.60385,12.919689 -12.63014,13.085699 -0.0263,0.16601 8.08713,16.22932 7.96827,16.34817 z"
       inkscape:randomized="0"
       inkscape:rounded="0.00924209"
       inkscape:flatsided="false"
       sodipodi:arg2="1.4137167"
       sodipodi:arg1="0.78539816"
       sodipodi:r2="10.081029"
       sodipodi:r1="25.350044"
       sodipodi:cy="103.20961"
       sodipodi:cx="131.55756"
       sodipodi:sides="5"
       id="path4197"
       style="opacity:1;fill:#ffffff;fill-opacity:1;fill-rule:evenodd;stroke:none;stroke-width:7;stroke-miterlimit:4;stroke-dasharray:none;stroke-opacity:1"
       sodipodi:type="star"
       transform="matrix(0.70710678,0.70710678,-0.70710678,0.70710678,113.56691,-63.646795)" />
    <path
       transform="matrix(0.70710678,0.70710678,-0.70710678,0.70710678,92.62031,-112.0836)"
       sodipodi:type="star"
       style="opacity:1;fill:#ffffff;fill-opacity:1;fill-rule:evenodd;stroke:none;stroke-width:7;stroke-miterlimit:4;stroke-dasharray:none;stroke-opacity:1"
       id="path4203"
       sodipodi:sides="5"
       sodipodi:cx="131.55756"
       sodipodi:cy="103.20961"
       sodipodi:r1="25.350044"
       sodipodi:r2="10.081029"
       sodipodi:arg1="0.78539816"
       sodipodi:arg2="1.4137167"
       inkscape:flatsided="false"
       inkscape:rounded="0.00924209"
       inkscape:randomized="0"
       d="m 149.48274,121.1348 c -0.11885,0.11885 -16.18215,-7.99457 -16.34816,-7.96828 -0.16602,0.0263 -12.93594,12.70645 -13.0857,12.63014 -0.14977,-0.0763 2.60272,-17.8606 2.52641,-18.01036 -0.0763,-0.14976 -16.08197,-8.376297 -16.05568,-8.542311 0.0263,-0.166013 17.79073,-3.04389 17.90958,-3.162743 0.11885,-0.118853 2.99673,-17.883285 3.16275,-17.909579 0.16601,-0.02629 8.39254,15.979372 8.54231,16.05568 0.14976,0.07631 17.93405,-2.676179 18.01036,-2.526416 0.0763,0.149763 -12.60385,12.919689 -12.63014,13.085699 -0.0263,0.16601 8.08713,16.22932 7.96827,16.34817 z"
       inkscape:transform-center-y="-0.48495659" />
  </g>
</svg>
