<?xml version="1.0" encoding="UTF-8" standalone="no"?>
<!-- Created with Inkscape (http://www.inkscape.org/) -->

<svg
   xmlns:dc="http://purl.org/dc/elements/1.1/"
   xmlns:cc="http://creativecommons.org/ns#"
   xmlns:rdf="http://www.w3.org/1999/02/22-rdf-syntax-ns#"
   xmlns:svg="http://www.w3.org/2000/svg"
   xmlns="http://www.w3.org/2000/svg"
   xmlns:sodipodi="http://sodipodi.sourceforge.net/DTD/sodipodi-0.dtd"
   xmlns:inkscape="http://www.inkscape.org/namespaces/inkscape"
   width="50mm"
   height="50mm"
   viewBox="0 0 177.16535 177.16535"
   id="svg2"
   version="1.1"
   inkscape:version="0.92.4 (5da689c313, 2019-01-14)"
   sodipodi:docname="sound_okay.svg">
  <defs
     id="defs4" />
  <sodipodi:namedview
     id="base"
     pagecolor="#ffffff"
     bordercolor="#666666"
     borderopacity="1.0"
     inkscape:pageopacity="0.0"
     inkscape:pageshadow="2"
     inkscape:zoom="0.12374369"
     inkscape:cx="-286.66647"
     inkscape:cy="-96.700679"
     inkscape:document-units="px"
     inkscape:current-layer="layer2"
     showgrid="false"
     inkscape:showpageshadow="false"
     borderlayer="false"
     inkscape:snap-intersection-paths="true"
     inkscape:object-paths="true"
     inkscape:snap-smooth-nodes="true"
     inkscape:object-nodes="true"
     inkscape:snap-midpoints="true"
     inkscape:snap-nodes="true"
     inkscape:window-width="1366"
     inkscape:window-height="705"
     inkscape:window-x="-8"
     inkscape:window-y="-8"
     inkscape:window-maximized="1"
     inkscape:snap-object-midpoints="true"
     inkscape:snap-bbox="true"
     inkscape:bbox-nodes="true"
     inkscape:snap-bbox-edge-midpoints="true"
     inkscape:snap-bbox-midpoints="true"
     inkscape:bbox-paths="true"
     inkscape:snap-center="true"
     inkscape:snap-others="true"
     inkscape:snap-global="true" />
  <metadata
     id="metadata7">
    <rdf:RDF>
      <cc:Work
         rdf:about="">
        <dc:format>image/svg+xml</dc:format>
        <dc:type
           rdf:resource="http://purl.org/dc/dcmitype/StillImage" />
        <dc:title></dc:title>
      </cc:Work>
    </rdf:RDF>
  </metadata>
  <g
     inkscape:groupmode="layer"
     id="layer2"
     inkscape:label="Layer 2"
     style="display:inline">
    <path
       inkscape:connector-curvature="0"
       id="path4815"
       d="m 95.052715,9.2293463 c -3.15894,0 -5.70191,2.6827767 -5.70191,6.0131837 v 3.129272 L 69.040745,28.726416 43.028785,41.986914 H 9.2696252 V 135.17843 H 43.028785 l 26.01196,13.26051 20.31006,10.35461 v 3.1311 c 0,3.3304 2.54297,6.01135 5.70191,6.01135 3.15893,0 5.701895,-2.68095 5.701895,-6.01135 V 15.24253 c 0,-3.330407 -2.542965,-6.0131837 -5.701895,-6.0131837 z"
       style="fill:#5795be;fill-opacity:1;stroke:#404040;stroke-width:14.1732279;stroke-linejoin:round;stroke-miterlimit:4;stroke-dasharray:none;stroke-opacity:1" />
    <rect
       id="rect3825"
       width="33.75951"
       height="93.189972"
       x="9.2692642"
       y="41.987556"
       style="fill:#e25243;fill-opacity:1;stroke-width:1.0905267" />
    <path
       style="fill:#5795be;fill-opacity:1;stroke-width:0.32071394"
       d="M 95.051622,15.464381 69.040198,28.725654 43.028773,41.987558 h 52.022849 z"
       id="path3829"
       inkscape:connector-curvature="0" />
    <rect
       id="rect3825-5"
       width="52.02285"
       height="93.189972"
       x="43.02877"
       y="41.987556"
       style="fill:#5795be;fill-opacity:1;stroke-width:1.3537401" />
    <path
       inkscape:connector-curvature="0"
       id="path4654"
       d="M 95.051622,161.70071 69.040197,148.43943 43.028772,135.17753 h 52.02285 z"
       style="fill:#5795be;fill-opacity:1;stroke-width:0.32071394" />
    <rect
       style="fill:#9d483e;fill-opacity:1;stroke-width:0.65408021"
       y="41.987556"
       x="30.884111"
       height="93.189972"
       width="12.144665"
       id="rect4688" />
    <path
       style="fill:#296f9e;fill-opacity:1;stroke-width:0.32071394"
       d="M 95.051618,15.465002 69.041488,28.725499 V 148.43985 l 26.01013,13.2605 V 135.17752 41.987829 Z"
       id="path4690"
       inkscape:connector-curvature="0" />
    <rect
       style="fill:#5795be;fill-opacity:1;stroke-width:1.71934772"
       id="rect4671"
       width="11.404104"
       height="158.70529"
       x="89.349571"
       y="9.2299004"
       ry="6.0115638" />
    <path
       style="fill:#fff7f6;fill-opacity:0.39215686;stroke-width:1.0905267"
       d="M 9.2696252,88.582672 V 135.17752 H 43.028775 l 26.011963,13.2605 20.310058,10.35461 v 3.1311 c 0,3.3304 2.542965,6.01135 5.701904,6.01135 3.158935,0 5.7019,-2.68095 5.7019,-6.01135 V 88.582672 Z"
       id="rect4800"
       inkscape:connector-curvature="0" />
    <path
       inkscape:connector-curvature="0"
       id="path6783"
       d="m 153.74185,61.854216 a 14.056324,14.056324 0 0 0 -6.69617,1.878666 L 99.15079,91.387289 82.781164,75.017672 a 14.056323,14.056323 0 0 0 -19.87793,0 14.056323,14.056323 0 0 0 0,19.876097 v 0.002 l 19.87793,19.879761 a 14.056323,14.056323 0 0 0 2.26684,1.81823 14.056324,14.056324 0 0 0 18.817746,4.53187 l 57.23694,-33.045021 a 14.056324,14.056324 0 0 0 5.14526,-19.202265 14.056324,14.056324 0 0 0 -12.5061,-7.023928 z"
       style="opacity:1;fill:#ffef5c;fill-opacity:1;stroke:#404040;stroke-width:14.0625;stroke-miterlimit:4;stroke-dasharray:none;stroke-opacity:1" />
    <path
       style="opacity:1;fill:#ffef5c;fill-opacity:1;stroke:none;stroke-width:1.24931431;stroke-opacity:1"
       d="m 153.74185,61.854216 a 14.056324,14.056324 0 0 0 -6.69617,1.878666 L 99.15079,91.387289 82.781164,75.017672 a 14.056323,14.056323 0 0 0 -19.87793,0 14.056323,14.056323 0 0 0 0,19.876097 v 0.002 l 19.87793,19.879761 a 14.056323,14.056323 0 0 0 2.26684,1.81823 14.056324,14.056324 0 0 0 18.817746,4.53187 l 57.23694,-33.045021 a 14.056324,14.056324 0 0 0 5.14526,-19.202265 14.056324,14.056324 0 0 0 -12.5061,-7.023928 z"
       id="path7872"
       inkscape:connector-curvature="0" />
  </g>
  <g
     inkscape:groupmode="layer"
     id="layer4"
     inkscape:label="Layer 3"
     style="display:none"
     sodipodi:insensitive="true">
    <path
       style="display:inline;fill:#6fa55a;fill-opacity:1;stroke:none;stroke-width:5.69901323;stroke-miterlimit:4;stroke-dasharray:none;stroke-opacity:1"
       d="m 365.62498,-128.86142 a 51.5625,51.5625 0 0 0 -51.5625,51.562488 51.5625,51.5625 0 0 0 51.5625,51.5625 51.5625,51.5625 0 0 0 51.5625,-51.5625 51.5625,51.5625 0 0 0 -51.5625,-51.562488 z m 0,9.37499 a 42.1875,42.1875 0 0 1 42.1875,42.187498 42.1875,42.1875 0 0 1 -42.1875,42.1875 42.1875,42.1875 0 0 1 -42.1875,-42.1875 42.1875,42.1875 0 0 1 42.1875,-42.187498 z"
       id="path4728"
       inkscape:connector-curvature="0" />
    <path
       style="display:inline;fill:#6fa55a;fill-opacity:1;stroke:none;stroke-width:3.62664485;stroke-miterlimit:4;stroke-dasharray:none;stroke-opacity:1"
       d="m 365.62498,-110.11143 a 32.8125,32.8125 0 0 0 -32.81249,32.812498 32.8125,32.8125 0 0 0 32.81249,32.81251 32.8125,32.8125 0 0 0 32.8125,-32.81251 32.8125,32.8125 0 0 0 -32.8125,-32.812498 z m 0,9.375 a 23.4375,23.4375 0 0 1 23.4375,23.437498 23.4375,23.4375 0 0 1 -23.4375,23.437504 23.4375,23.4375 0 0 1 -23.43749,-23.437504 23.4375,23.4375 0 0 1 23.43749,-23.437498 z"
       id="circle4730-6"
       inkscape:connector-curvature="0" />
    <path
       style="display:inline;fill:#6fa55a;fill-opacity:1;stroke:none;stroke-width:10.91856003;stroke-miterlimit:4;stroke-dasharray:none;stroke-opacity:1"
       d="m 365.62499,-147.61142 a 70.3125,70.3125 0 0 0 -70.3125,70.312488 70.3125,70.3125 0 0 0 70.3125,70.3125001 70.3125,70.3125 0 0 0 70.31249,-70.3125001 70.3125,70.3125 0 0 0 -70.31249,-70.312488 z m 0,9.375 a 60.937496,60.937496 0 0 1 60.93749,60.937488 60.937496,60.937496 0 0 1 -60.93749,60.9375 60.937496,60.937496 0 0 1 -60.9375,-60.9375 60.937496,60.937496 0 0 1 60.9375,-60.937488 z"
       id="path4773"
       inkscape:connector-curvature="0" />
    <g
       style="display:inline"
       id="g5445"
       transform="translate(89.681192,242.27591)">
      <path
         id="path4782"
         transform="scale(0.93749997)"
         d="m 308.24023,100.7832 v 12.36524 a 25.000001,25.000001 0 0 1 7.61719,17.92578 25.000001,25.000001 0 0 1 -7.61719,17.94531 v 12.35352 a 35.000001,35.000001 0 0 0 17.61719,-30.29883 35.000001,35.000001 0 0 0 -17.61719,-30.29102 z"
         style="fill:#404040;fill-opacity:1;stroke:none;stroke-width:3.86842132;stroke-miterlimit:4;stroke-dasharray:none;stroke-opacity:1"
         inkscape:connector-curvature="0" />
      <path
         id="path4780"
         transform="scale(0.93749997)"
         d="m 308.24023,79.035156 v 10.638672 a 45.000001,45.000001 0 0 1 27.61719,41.400392 45.000001,45.000001 0 0 1 -27.61719,41.44726 v 10.67969 a 55.000002,55.000002 0 0 0 37.61719,-52.12695 55.000002,55.000002 0 0 0 -37.61719,-52.039064 z"
         style="fill:#404040;fill-opacity:1;stroke:none;stroke-width:6.07894754;stroke-miterlimit:4;stroke-dasharray:none;stroke-opacity:1"
         inkscape:connector-curvature="0" />
      <path
         id="path4784"
         transform="scale(0.93749997)"
         d="m 308.24023,58.25 v 10.273438 a 64.999998,64.999998 0 0 1 47.61719,62.550782 64.999998,64.999998 0 0 1 -47.61719,62.59766 v 10.19921 A 75.000002,75.000002 0 0 0 365.85742,131.07422 75.000002,75.000002 0 0 0 308.24023,58.25 Z"
         style="fill:#404040;fill-opacity:1;stroke:none;stroke-width:11.64646435;stroke-miterlimit:4;stroke-dasharray:none;stroke-opacity:1"
         inkscape:connector-curvature="0" />
    </g>
    <path
       style="display:inline;fill:#c34343;fill-opacity:1;stroke:none;stroke-width:0.93749994px;stroke-linecap:butt;stroke-linejoin:miter;stroke-opacity:1"
       d="M 537.05355,-8.3257169 V 90.11178 L 593.7079,-8.0164293 Z"
       id="path949"
       inkscape:connector-curvature="0" />
    <path
       inkscape:connector-curvature="0"
       id="path951"
       d="M 512.61122,211.42482 V 90.11178 l 69.82005,120.93188 z"
       style="display:inline;fill:#c34343;fill-opacity:1;stroke:none;stroke-width:1.15536225px;stroke-linecap:butt;stroke-linejoin:miter;stroke-opacity:1" />
  </g>
</svg>
