<?xml version="1.0" encoding="UTF-8" standalone="no"?>
<!-- Created with Inkscape (http://www.inkscape.org/) -->

<svg
   xmlns:dc="http://purl.org/dc/elements/1.1/"
   xmlns:cc="http://creativecommons.org/ns#"
   xmlns:rdf="http://www.w3.org/1999/02/22-rdf-syntax-ns#"
   xmlns:svg="http://www.w3.org/2000/svg"
   xmlns="http://www.w3.org/2000/svg"
   xmlns:sodipodi="http://sodipodi.sourceforge.net/DTD/sodipodi-0.dtd"
   xmlns:inkscape="http://www.inkscape.org/namespaces/inkscape"
   width="50mm"
   height="50mm"
   viewBox="0 0 177.16535 177.16535"
   id="svg2"
   version="1.1"
   inkscape:version="0.92.4 (unknown)"
   sodipodi:docname="wrench.svg"
   inkscape:export-filename="J:\work\fpc\catbell\res\controls\play.png"
   inkscape:export-xdpi="12.218804"
   inkscape:export-ydpi="12.218804">
  <defs
     id="defs4" />
  <sodipodi:namedview
     id="base"
     pagecolor="#ffffff"
     bordercolor="#666666"
     borderopacity="1.0"
     inkscape:pageopacity="0.0"
     inkscape:pageshadow="2"
     inkscape:zoom="1.4"
     inkscape:cx="154.18273"
     inkscape:cy="80.930654"
     inkscape:document-units="px"
     inkscape:current-layer="layer1"
     showgrid="false"
     inkscape:object-paths="true"
     inkscape:snap-intersection-paths="true"
     inkscape:object-nodes="true"
     inkscape:snap-smooth-nodes="true"
     inkscape:snap-midpoints="true"
     inkscape:snap-nodes="true"
     inkscape:window-width="1366"
     inkscape:window-height="723"
     inkscape:window-x="0"
     inkscape:window-y="0"
     inkscape:window-maximized="1"
     inkscape:snap-bbox="true"
     inkscape:snap-bbox-midpoints="true"
     inkscape:snap-bbox-edge-midpoints="true"
     inkscape:bbox-nodes="true"
     inkscape:bbox-paths="true"
     inkscape:snap-global="true" />
  <metadata
     id="metadata7">
    <rdf:RDF>
      <cc:Work
         rdf:about="">
        <dc:format>image/svg+xml</dc:format>
        <dc:type
           rdf:resource="http://purl.org/dc/dcmitype/StillImage" />
        <dc:title></dc:title>
      </cc:Work>
    </rdf:RDF>
  </metadata>
  <g
     inkscape:label="base_circle"
     inkscape:groupmode="layer"
     id="layer1"
     transform="translate(0,-875.19685)"
     style="display:inline">
    <path
       inkscape:connector-curvature="0"
       style="display:inline;fill:#5795be;fill-opacity:1;stroke:#515151;stroke-width:11.25;stroke-miterlimit:4;stroke-dasharray:none;stroke-opacity:1"
       d="m 21.016649,898.12208 35.349293,9.47239 -10.745131,40.10491 -36.3540209,-9.7417 a 43.089317,43.089317 0 0 0 11.5789509,21.25852 43.089317,43.089317 0 0 0 44.048708,10.41107 l 65.514441,65.51443 a 23.053394,23.053394 0 0 0 32.60312,0 23.053394,23.053394 0 0 0 1e-5,-32.6044 L 94.083343,933.60991 A 43.089317,43.089317 0 0 0 81.7832,898.27874 43.089317,43.089317 0 0 0 21.016649,898.12208 Z M 137.60772,1009.7387 a 12.87295,12.87295 0 0 1 18.20548,-0 12.87295,12.87295 0 0 1 4e-5,18.2068 12.87295,12.87295 0 0 1 -18.20554,-0 12.87295,12.87295 0 0 1 2e-5,-18.2042 z"
       id="rect4950-6" />
    <path
       style="fill:#5795be;fill-opacity:1;stroke:none;stroke-width:9.35373688;stroke-miterlimit:4;stroke-dasharray:none;stroke-opacity:1"
       d="m 21.01752,898.12294 35.349292,9.4724 -10.745137,40.10492 -36.3540208,-9.74171 a 43.089317,43.089317 0 0 0 11.5789568,21.25852 43.089317,43.089317 0 0 0 44.048729,10.41109 l 65.5144,65.51444 a 23.053394,23.053394 0 0 0 32.60312,0 23.053394,23.053394 0 0 0 1e-5,-32.6045 L 94.084213,933.61077 A 43.089317,43.089317 0 0 0 81.784069,898.27961 43.089317,43.089317 0 0 0 21.01752,898.12294 Z m 116.59104,111.61666 a 12.87295,12.87295 0 0 1 18.20549,-0 12.87295,12.87295 0 0 1 4e-5,18.2068 12.87295,12.87295 0 0 1 -18.20554,-0 12.87295,12.87295 0 0 1 1e-5,-18.2041 z"
       id="rect4950"
       inkscape:connector-curvature="0" />
    <path
       style="display:inline;fill:#ffffff;fill-opacity:0.39215686;stroke:none;stroke-width:9.35373688;stroke-miterlimit:4;stroke-dasharray:none;stroke-opacity:1"
       d="m 21.017527,898.12294 6.794852,1.82042 -4.171689,-4.17169 a 43.089317,43.089317 0 0 0 -2.623163,2.35127 z M 9.2676563,937.95855 a 43.089317,43.089317 0 0 0 11.5789577,21.25852 43.089317,43.089317 0 0 0 44.048726,10.41109 l 65.5144,65.51444 a 23.053394,23.053394 0 0 0 32.60312,0 l -7.19877,-7.1987 a 12.87295,12.87295 0 0 1 -18.20553,-0 12.87295,12.87295 0 0 1 10e-6,-18.2042 L 51.950424,924.0814 45.62168,947.70025 Z"
       id="rect4950-2"
       inkscape:connector-curvature="0" />
  </g>
  <g
     inkscape:groupmode="layer"
     id="layer2"
     inkscape:label="hollow_control"
     style="display:none"
     sodipodi:insensitive="true">
    <circle
       style="display:inline;fill:#e25243;fill-opacity:1;stroke:none;stroke-width:11.25;stroke-miterlimit:4;stroke-dasharray:none;stroke-opacity:1"
       id="path4952-7"
       cx="71.755371"
       cy="88.332809"
       r="43.089317" />
    <circle
       style="display:inline;fill:#e2cf43;fill-opacity:1;stroke:none;stroke-width:5.84501553;stroke-miterlimit:4;stroke-dasharray:none;stroke-opacity:1"
       id="path4990-3-5"
       cx="153.01271"
       cy="132.1731"
       r="12.87295" />
  </g>
</svg>
